VotoSerifGX-CondensedDisplay.ufo
<glyph name="asterisk" format="2">
  <advance width="320"/>
  <unicode hex="002A"/>
  <outline>
    <contour>
      <point x="133" y="377" type="line"/>
      <point x="189" y="377" type="line"/>
      <point x="168" y="556" type="line"/>
      <point x="269" y="465" type="line"/>
      <point x="295" y="518" type="line"/>
      <point x="173" y="568" type="line"/>
      <point x="296" y="619" type="line"/>
      <point x="269" y="674" type="line"/>
      <point x="168" y="580" type="line"/>
      <point x="189" y="760" type="line"/>
      <point x="134" y="760" type="line"/>
      <point x="153" y="581" type="line"/>
      <point x="52" y="676" type="line"/>
      <point x="25" y="619" type="line"/>
      <point x="146" y="568" type="line"/>
      <point x="25" y="518" type="line"/>
      <point x="52" y="463" type="line"/>
      <point x="153" y="556" type="line"/>
    </contour>
  </outline>
</glyph>
<glyph name="plus" format="2">
  <advance width="336"/>
  <unicode hex="002B"/>
  <outline>
    <contour>
      <point x="159" y="143" type="line"/>
      <point x="179" y="143" type="line"/>
      <point x="179" y="349" type="line"/>
      <point x="296" y="349" type="line"/>
      <point x="296" y="369" type="line"/>
      <point x="179" y="369" type="line"/>
      <point x="179" y="572" type="line"/>
      <point x="159" y="572" type="line"/>
      <point x="159" y="369" type="line"/>
      <point x="40" y="369" type="line"/>
      <point x="40" y="349" type="line"/>
      <point x="159" y="349" type="line"/>
    </contour>
  </outline>
</glyph>
<glyph name="five" format="2">
  <advance width="367"/>
  <unicode hex="0035"/>
  <outline>
    <contour>
      <point x="156" y="-10" type="curve" smooth="yes"/>
      <point x="235" y="-10"/>
      <point x="320" y="37"/>
      <point x="320" y="210" type="curve" smooth="yes"/>
      <point x="320" y="356"/>
      <point x="263" y="426"/>
      <point x="169" y="426" type="curve" smooth="yes"/>
      <point x="122" y="426"/>
      <point x="87" y="406"/>
      <point x="66" y="376" type="curve"/>
      <point x="84" y="653" type="line"/>
      <point x="239" y="653" type="line" smooth="yes"/>
      <point x="278" y="653"/>
      <point x="288" y="642"/>
      <point x="291" y="592" type="curve" smooth="yes"/>
      <point x="291" y="575" type="line"/>
      <point x="301" y="575" type="line"/>
      <point x="296" y="712" type="line"/>
      <point x="75" y="712" type="line"/>
      <point x="52" y="359" type="line"/>
      <point x="63" y="355" type="line"/>
      <point x="79" y="383"/>
      <point x="107" y="411"/>
      <point x="153" y="411" type="curve" smooth="yes"/>
      <point x="220" y="411"/>
      <point x="249" y="360"/>
      <point x="249" y="213" type="curve" smooth="yes"/>
      <point x="249" y="63"/>
      <point x="220" y="0"/>
      <point x="151" y="0" type="curve" smooth="yes"/>
      <point x="88" y="0"/>
      <point x="73" y="68"/>
      <point x="73" y="148" type="curve"/>
      <point x="48" y="149"/>
      <point x="30" y="126"/>
      <point x="30" y="94" type="curve" smooth="yes"/>
      <point x="30" y="62"/>
      <point x="55" y="-10"/>
    </contour>
  </outline>
</glyph>
<glyph name="colon" format="2">
  <advance width="188"/>
  <unicode hex="003A"/>
  <outline>
    <contour>
      <point x="90" y="415" type="curve" smooth="yes"/>
      <point x="111" y="415"/>
      <point x="125" y="430"/>
      <point x="125" y="469" type="curve" smooth="yes"/>
      <point x="125" y="508"/>
      <point x="111" y="523"/>
      <point x="90" y="523" type="curve" smooth="yes"/>
      <point x="66" y="523"/>
      <point x="54" y="508"/>
      <point x="54" y="469" type="curve" smooth="yes"/>
      <point x="54" y="430"/>
      <point x="66" y="415"/>
    </contour>
    <contour>
      <point x="90" y="-6" type="curve" smooth="yes"/>
      <point x="111" y="-6"/>
      <point x="125" y="10"/>
      <point x="125" y="49" type="curve" smooth="yes"/>
      <point x="125" y="87"/>
      <point x="111" y="102"/>
      <point x="90" y="102" type="curve" smooth="yes"/>
      <point x="66" y="102"/>
      <point x="54" y="87"/>
      <point x="54" y="49" type="curve" smooth="yes"/>
      <point x="54" y="10"/>
      <point x="66" y="-6"/>
    </contour>
  </outline>
</glyph>
<glyph name="less" format="2">
  <advance width="336"/>
  <unicode hex="003C"/>
  <outline>
    <contour>
      <point x="289" y="119" type="line"/>
      <point x="289" y="144" type="line"/>
      <point x="62" y="357" type="line"/>
      <point x="289" y="570" type="line"/>
      <point x="289" y="595" type="line"/>
      <point x="47" y="367" type="line"/>
      <point x="47" y="347" type="line"/>
    </contour>
  </outline>
</glyph>
<glyph name="question" format="2">
  <advance width="338"/>
  <unicode hex="003F"/>
  <outline>
    <contour>
      <point x="141" y="202" type="line"/>
      <point x="156" y="202" type="line"/>
      <point x="168" y="337" type="line"/>
      <point x="257" y="374"/>
      <point x="303" y="438"/>
      <point x="303" y="550" type="curve" smooth="yes"/>
      <point x="303" y="672"/>
      <point x="243" y="724"/>
      <point x="156" y="724" type="curve" smooth="yes"/>
      <point x="72" y="724"/>
      <point x="29" y="668"/>
      <point x="29" y="610" type="curve" smooth="yes"/>
      <point x="29" y="566"/>
      <point x="59" y="555"/>
      <point x="92" y="555" type="curve"/>
      <point x="92" y="670"/>
      <point x="110" y="714"/>
      <point x="156" y="714" type="curve" smooth="yes"/>
      <point x="206" y="714"/>
      <point x="225" y="677"/>
      <point x="225" y="558" type="curve" smooth="yes"/>
      <point x="225" y="445"/>
      <point x="221" y="371"/>
      <point x="124" y="334" type="curve"/>
    </contour>
    <contour>
      <point x="151" y="-6" type="curve" smooth="yes"/>
      <point x="171" y="-6"/>
      <point x="187" y="7"/>
      <point x="187" y="49" type="curve" smooth="yes"/>
      <point x="187" y="90"/>
      <point x="171" y="102"/>
      <point x="151" y="102" type="curve" smooth="yes"/>
      <point x="132" y="102"/>
      <point x="115" y="90"/>
      <point x="115" y="49" type="curve" smooth="yes"/>
      <point x="115" y="7"/>
      <point x="132" y="-6"/>
    </contour>
  </outline>
</glyph>
<glyph name="A" format="2">
  <advance width="469"/>
  <unicode hex="0041"/>
  <anchor x="242" y="0" name="bottom"/>
  <anchor x="242" y="714" name="top"/>
  <anchor x="382" y="714" name="topright"/>
  <outline>
    <contour>
      <point x="1" y="0" type="line"/>
      <point x="156" y="0" type="line"/>
      <point x="156" y="10" type="line"/>
      <point x="129" y="10" type="line" smooth="yes"/>
      <point x="99" y="10"/>
      <point x="87" y="17"/>
      <point x="87" y="38" type="curve" smooth="yes"/>
      <point x="87" y="49"/>
      <point x="90" y="77"/>
      <point x="98" y="110" type="curve" smooth="yes"/>
      <point x="131" y="259" type="line"/>
      <point x="311" y="259" type="line"/>
      <point x="349" y="85" type="line" smooth="yes"/>
      <point x="354" y="61"/>
      <point x="357" y="48"/>
      <point x="357" y="41" type="curve" smooth="yes"/>
      <point x="357" y="20"/>
      <point x="349" y="10"/>
      <point x="316" y="10" type="curve" smooth="yes"/>
      <point x="291" y="10" type="line"/>
      <point x="291" y="0" type="line"/>
      <point x="476" y="0" type="line"/>
      <point x="476" y="10" type="line"/>
      <point x="470" y="10" type="line" smooth="yes"/>
      <point x="446" y="10"/>
      <point x="438" y="18"/>
      <point x="432" y="49" type="curve" smooth="yes"/>
      <point x="276" y="714" type="line"/>
      <point x="219" y="714" type="line"/>
      <point x="90" y="104" type="line" smooth="yes"/>
      <point x="72" y="29"/>
      <point x="63" y="10"/>
      <point x="31" y="10" type="curve" smooth="yes"/>
      <point x="1" y="10" type="line"/>
    </contour>
    <contour>
      <point x="133" y="269" type="line"/>
      <point x="208" y="595" type="line" smooth="yes"/>
      <point x="222" y="654"/>
      <point x="215" y="648"/>
      <point x="222" y="686" type="curve"/>
      <point x="229" y="641"/>
      <point x="230" y="624"/>
      <point x="250" y="539" type="curve" smooth="yes"/>
      <point x="308" y="269" type="line"/>
    </contour>
  </outline>
</glyph>
<glyph name="C" format="2">
  <advance width="412"/>
  <unicode hex="0043"/>
  <anchor x="244" y="0" name="bottom"/>
  <anchor x="244" y="714" name="top"/>
  <anchor x="392" y="714" name="topright"/>
  <outline>
    <contour>
      <point x="247" y="-10" type="curve" smooth="yes"/>
      <point x="344" y="-10"/>
      <point x="387" y="51"/>
      <point x="387" y="99" type="curve" smooth="yes"/>
      <point x="387" y="108"/>
      <point x="385" y="130"/>
      <point x="364" y="138" type="curve"/>
      <point x="355" y="55"/>
      <point x="326" y="1"/>
      <point x="263" y="1" type="curve" smooth="yes"/>
      <point x="157" y="1"/>
      <point x="114" y="128"/>
      <point x="114" y="359" type="curve" smooth="yes"/>
      <point x="114" y="587"/>
      <point x="149" y="714"/>
      <point x="251" y="714" type="curve" smooth="yes"/>
      <point x="300" y="714"/>
      <point x="329" y="667"/>
      <point x="327" y="548" type="curve"/>
      <point x="364" y="548"/>
      <point x="389" y="572"/>
      <point x="389" y="610" type="curve" smooth="yes"/>
      <point x="389" y="673"/>
      <point x="329" y="724"/>
      <point x="251" y="724" type="curve" smooth="yes"/>
      <point x="108" y="724"/>
      <point x="37" y="578"/>
      <point x="37" y="360" type="curve" smooth="yes"/>
      <point x="37" y="138"/>
      <point x="113" y="-10"/>
    </contour>
  </outline>
</glyph>
<glyph name="F" format="2">
  <advance width="390"/>
  <unicode hex="0046"/>
  <anchor x="119" y="0" name="bottom"/>
  <anchor x="195" y="714" name="top"/>
  <anchor x="370" y="714" name="topright"/>
  <outline>
    <contour>
      <point x="23" y="0" type="line"/>
      <point x="231" y="0" type="line"/>
      <point x="231" y="10" type="line"/>
      <point x="206" y="10" type="line" smooth="yes"/>
      <point x="164" y="10"/>
      <point x="157" y="23"/>
      <point x="157" y="86" type="curve" smooth="yes"/>
      <point x="157" y="346" type="line"/>
      <point x="317" y="346" type="line"/>
      <point x="317" y="356" type="line"/>
      <point x="157" y="356" type="line"/>
      <point x="157" y="704" type="line"/>
      <point x="260" y="704" type="line" smooth="yes"/>
      <point x="332" y="704"/>
      <point x="350" y="680"/>
      <point x="353" y="596" type="curve" smooth="yes"/>
      <point x="354" y="543" type="line"/>
      <point x="364" y="543" type="line"/>
      <point x="359" y="714" type="line"/>
      <point x="23" y="714" type="line"/>
      <point x="23" y="704" type="line"/>
      <point x="36" y="704" type="line" smooth="yes"/>
      <point x="73" y="704"/>
      <point x="82" y="692"/>
      <point x="82" y="628" type="curve" smooth="yes"/>
      <point x="82" y="85" type="line" smooth="yes"/>
      <point x="82" y="21"/>
      <point x="74" y="10"/>
      <point x="32" y="10" type="curve" smooth="yes"/>
      <point x="23" y="10" type="line"/>
    </contour>
  </outline>
</glyph>
<glyph name="L" format="2">
  <advance width="410"/>
  <unicode hex="004C"/>
  <anchor x="205" y="0" name="bottom"/>
  <anchor x="205" y="357" name="center"/>
  <anchor x="205" y="714" name="top"/>
  <anchor x="390" y="714" name="topright"/>
  <outline>
    <contour>
      <point x="23" y="0" type="line"/>
      <point x="381" y="0" type="line"/>
      <point x="385" y="211" type="line"/>
      <point x="375" y="211" type="line"/>
      <point x="373" y="107" type="line" smooth="yes"/>
      <point x="369" y="36"/>
      <point x="345" y="10"/>
      <point x="271" y="10" type="curve" smooth="yes"/>
      <point x="158" y="10" type="line"/>
      <point x="158" y="624" type="line" smooth="yes"/>
      <point x="158" y="697"/>
      <point x="175" y="704"/>
      <point x="214" y="704" type="curve" smooth="yes"/>
      <point x="224" y="704" type="line"/>
      <point x="224" y="714" type="line"/>
      <point x="23" y="714" type="line"/>
      <point x="23" y="704" type="line"/>
      <point x="28" y="704" type="line" smooth="yes"/>
      <point x="70" y="704"/>
      <point x="83" y="697"/>
      <point x="83" y="622" type="curve" smooth="yes"/>
      <point x="83" y="93" type="line" smooth="yes"/>
      <point x="83" y="17"/>
      <point x="70" y="10"/>
      <point x="26" y="10" type="curve" smooth="yes"/>
      <point x="23" y="10" type="line"/>
    </contour>
  </outline>
</glyph>
<glyph name="S" format="2">
  <advance width="360"/>
  <unicode hex="0053"/>
  <anchor x="176" y="0" name="bottom"/>
  <anchor x="172" y="714" name="top"/>
  <anchor x="340" y="714" name="topright"/>
  <outline>
    <contour>
      <point x="170" y="-10" type="curve" smooth="yes"/>
      <point x="271" y="-10"/>
      <point x="331" y="60"/>
      <point x="331" y="187" type="curve" smooth="yes"/>
      <point x="331" y="281"/>
      <point x="305" y="337"/>
      <point x="210" y="392" type="curve" smooth="yes"/>
      <point x="124" y="443"/>
      <point x="91" y="485"/>
      <point x="91" y="577" type="curve" smooth="yes"/>
      <point x="91" y="669"/>
      <point x="131" y="714"/>
      <point x="179" y="714" type="curve" smooth="yes"/>
      <point x="232" y="714"/>
      <point x="259" y="657"/>
      <point x="259" y="554" type="curve"/>
      <point x="294" y="554"/>
      <point x="313" y="572"/>
      <point x="313" y="606" type="curve" smooth="yes"/>
      <point x="313" y="660"/>
      <point x="275" y="724"/>
      <point x="183" y="724" type="curve" smooth="yes"/>
      <point x="95" y="724"/>
      <point x="36" y="658"/>
      <point x="36" y="539" type="curve" smooth="yes"/>
      <point x="36" y="453"/>
      <point x="73" y="382"/>
      <point x="156" y="333" type="curve" smooth="yes"/>
      <point x="227" y="288"/>
      <point x="276" y="257"/>
      <point x="276" y="143" type="curve" smooth="yes"/>
      <point x="276" y="41"/>
      <point x="237" y="0"/>
      <point x="180" y="0" type="curve" smooth="yes"/>
      <point x="101" y="0"/>
      <point x="76" y="82"/>
      <point x="76" y="190" type="curve"/>
      <point x="44" y="190"/>
      <point x="25" y="158"/>
      <point x="25" y="127" type="curve" smooth="yes"/>
      <point x="25" y="66"/>
      <point x="55" y="-10"/>
    </contour>
  </outline>
</glyph>
<glyph name="grave" format="2">
  <advance width="207"/>
  <unicode hex="0060"/>
  <outline>
    <contour>
      <point x="160" y="606" type="curve"/>
      <point x="167" y="606" type="line"/>
      <point x="167" y="616" type="line"/>
      <point x="139" y="676"/>
      <point x="129" y="721"/>
      <point x="115" y="766" type="curve"/>
      <point x="40" y="766" type="line"/>
      <point x="40" y="756" type="line"/>
      <point x="63" y="721"/>
      <point x="120" y="650"/>
    </contour>
  </outline>
</glyph>
<glyph name="f" format="2">
  <advance width="248"/>
  <unicode hex="0066"/>
  <anchor x="124" y="0" name="bottom"/>
  <anchor x="172" y="771" name="top"/>
  <anchor x="288" y="771" name="topright"/>
  <outline>
    <contour>
      <point x="17" y="0" type="line"/>
      <point x="228" y="0" type="line"/>
      <point x="228" y="10" type="line"/>
      <point x="197" y="10" type="line" smooth="yes"/>
      <point x="164" y="10"/>
      <point x="150" y="20"/>
      <point x="150" y="88" type="curve" smooth="yes"/>
      <point x="150" y="526" type="line"/>
      <point x="241" y="526" type="line"/>
      <point x="241" y="536" type="line"/>
      <point x="150" y="536" type="line"/>
      <point x="150" y="617" type="line" smooth="yes"/>
      <point x="150" y="726"/>
      <point x="160" y="761"/>
      <point x="201" y="761" type="curve" smooth="yes"/>
      <point x="230" y="761"/>
      <point x="237" y="725"/>
      <point x="237" y="653" type="curve"/>
      <point x="274" y="653"/>
      <point x="291" y="667"/>
      <point x="291" y="702" type="curve" smooth="yes"/>
      <point x="291" y="749"/>
      <point x="264" y="771"/>
      <point x="199" y="771" type="curve" smooth="yes"/>
      <point x="111" y="771"/>
      <point x="77" y="708"/>
      <point x="77" y="585" type="curve" smooth="yes"/>
      <point x="77" y="536" type="line"/>
      <point x="19" y="536" type="line"/>
      <point x="19" y="526" type="line"/>
      <point x="77" y="526" type="line"/>
      <point x="77" y="88" type="line" smooth="yes"/>
      <point x="77" y="20"/>
      <point x="60" y="10"/>
      <point x="29" y="10" type="curve" smooth="yes"/>
      <point x="17" y="10" type="line"/>
    </contour>
  </outline>
</glyph>
<glyph name="h" format="2">
  <advance width="418"/>
  <unicode hex="0068"/>
  <anchor x="209" y="0" name="bottom"/>
  <anchor x="209" y="268" name="center"/>
  <anchor x="209" y="760" name="top"/>
  <anchor x="368" y="760" name="topright"/>
  <outline>
    <contour>
      <point x="12" y="0" type="line"/>
      <point x="193" y="0" type="line"/>
      <point x="193" y="10" type="line"/>
      <point x="195" y="10" type="line" smooth="yes"/>
      <point x="149" y="10"/>
      <point x="141" y="22"/>
      <point x="141" y="83" type="curve" smooth="yes"/>
      <point x="141" y="343" type="line" smooth="yes"/>
      <point x="141" y="477"/>
      <point x="167" y="524"/>
      <point x="213" y="524" type="curve" smooth="yes"/>
      <point x="263" y="524"/>
      <point x="277" y="477"/>
      <point x="277" y="371" type="curve" smooth="yes"/>
      <point x="277" y="0" type="line"/>
      <point x="400" y="0" type="line"/>
      <point x="400" y="10" type="line"/>
      <point x="398" y="10" type="line" smooth="yes"/>
      <point x="358" y="10"/>
      <point x="350" y="26"/>
      <point x="350" y="82" type="curve" smooth="yes"/>
      <point x="350" y="361" type="line" smooth="yes"/>
      <point x="350" y="483"/>
      <point x="309" y="545"/>
      <point x="241" y="545" type="curve" smooth="yes"/>
      <point x="186" y="545"/>
      <point x="152" y="508"/>
      <point x="142" y="457" type="curve"/>
      <point x="140" y="457" type="line"/>
      <point x="142" y="498"/>
      <point x="142" y="501"/>
      <point x="142" y="513" type="curve" smooth="yes"/>
      <point x="142" y="760" type="line"/>
      <point x="9" y="760" type="line"/>
      <point x="9" y="750" type="line"/>
      <point x="20" y="750" type="line" smooth="yes"/>
      <point x="60" y="750"/>
      <point x="68" y="735"/>
      <point x="68" y="679" type="curve" smooth="yes"/>
      <point x="68" y="84" type="line" smooth="yes"/>
      <point x="68" y="23"/>
      <point x="61" y="10"/>
      <point x="12" y="10" type="curve" smooth="yes"/>
      <point x="12" y="10" type="line"/>
    </contour>
  </outline>
</glyph>
<glyph name="j" format="2">
  <advance width="207"/>
  <unicode hex="006A"/>
  <anchor x="80" y="-240" name="bottom"/>
  <anchor x="105" y="750" name="top"/>
  <anchor x="184" y="750" name="topright"/>
  <outline>
    <contour>
      <point x="-6" y="-240" type="line"/>
      <point x="3" y="-240" type="line" smooth="yes"/>
      <point x="82" y="-240"/>
      <point x="145" y="-201"/>
      <point x="145" y="-18" type="curve" smooth="yes"/>
      <point x="145" y="536" type="line"/>
      <point x="15" y="536" type="line"/>
      <point x="15" y="526" type="line"/>
      <point x="20" y="526" type="line" smooth="yes"/>
      <point x="58" y="526"/>
      <point x="71" y="514"/>
      <point x="71" y="454" type="curve" smooth="yes"/>
      <point x="71" y="-52" type="line" smooth="yes"/>
      <point x="71" y="-190"/>
      <point x="44" y="-230"/>
      <point x="-3" y="-230" type="curve" smooth="yes"/>
      <point x="-6" y="-230" type="line"/>
    </contour>
    <contour>
      <point x="104" y="646" type="curve" smooth="yes"/>
      <point x="126" y="646"/>
      <point x="146" y="660"/>
      <point x="146" y="698" type="curve" smooth="yes"/>
      <point x="146" y="736"/>
      <point x="126" y="750"/>
      <point x="104" y="750" type="curve" smooth="yes"/>
      <point x="83" y="750"/>
      <point x="64" y="736"/>
      <point x="64" y="698" type="curve" smooth="yes"/>
      <point x="64" y="660"/>
      <point x="83" y="646"/>
    </contour>
  </outline>
</glyph>
<glyph name="k" format="2">
  <advance width="391"/>
  <unicode hex="006B"/>
  <anchor x="196" y="0" name="bottom"/>
  <anchor x="196" y="760" name="top"/>
  <anchor x="383" y="760" name="topright"/>
  <outline>
    <contour>
      <point x="10" y="0" type="line"/>
      <point x="195" y="0" type="line"/>
      <point x="195" y="10" type="line"/>
      <point x="197" y="10" type="line" smooth="yes"/>
      <point x="162" y="10"/>
      <point x="142" y="17"/>
      <point x="142" y="83" type="curve" smooth="yes"/>
      <point x="142" y="211" type="line"/>
      <point x="182" y="282" type="line"/>
      <point x="260" y="91" type="line" smooth="yes"/>
      <point x="293" y="4"/>
      <point x="330" y="0"/>
      <point x="410" y="0" type="curve" smooth="yes"/>
      <point x="399" y="0" type="line"/>
      <point x="399" y="10" type="line"/>
      <point x="392" y="10" type="line" smooth="yes"/>
      <point x="375" y="10"/>
      <point x="373" y="11"/>
      <point x="362" y="42" type="curve" smooth="yes"/>
      <point x="222" y="351" type="line"/>
      <point x="299" y="479" type="line" smooth="yes"/>
      <point x="315" y="515"/>
      <point x="333" y="526"/>
      <point x="356" y="526" type="curve"/>
      <point x="356" y="536" type="line"/>
      <point x="190" y="536" type="line"/>
      <point x="190" y="526" type="line"/>
      <point x="259" y="526"/>
      <point x="278" y="520"/>
      <point x="278" y="498" type="curve" smooth="yes"/>
      <point x="278" y="484"/>
      <point x="265" y="452"/>
      <point x="224" y="381" type="curve" smooth="yes"/>
      <point x="140" y="225" type="line"/>
      <point x="142" y="258"/>
      <point x="142" y="324"/>
      <point x="142" y="351" type="curve" smooth="yes"/>
      <point x="142" y="760" type="line"/>
      <point x="10" y="760" type="line"/>
      <point x="10" y="750" type="line"/>
      <point x="5" y="750" type="line" smooth="yes"/>
      <point x="57" y="750"/>
      <point x="68" y="742"/>
      <point x="68" y="679" type="curve" smooth="yes"/>
      <point x="68" y="83" type="line" smooth="yes"/>
      <point x="68" y="18"/>
      <point x="56" y="10"/>
      <point x="9" y="10" type="curve" smooth="yes"/>
      <point x="10" y="10" type="line"/>
    </contour>
  </outline>
</glyph>
<glyph name="l" format="2">
  <advance width="211"/>
  <unicode hex="006C"/>
  <anchor x="106" y="0" name="bottom"/>
  <anchor x="106" y="268" name="center"/>
  <anchor x="106" y="760" name="top"/>
  <anchor x="206" y="760" name="topright"/>
  <outline>
    <contour>
      <point x="9" y="0" type="line"/>
      <point x="201" y="0" type="line"/>
      <point x="201" y="10" type="line"/>
      <point x="206" y="10" type="line" smooth="yes"/>
      <point x="151" y="10"/>
      <point x="142" y="18"/>
      <point x="142" y="83" type="curve" smooth="yes"/>
      <point x="142" y="760" type="line"/>
      <point x="9" y="760" type="line"/>
      <point x="9" y="750" type="line"/>
      <point x="10" y="750" type="line" smooth="yes"/>
      <point x="51" y="750"/>
      <point x="68" y="745"/>
      <point x="68" y="679" type="curve" smooth="yes"/>
      <point x="68" y="83" type="line" smooth="yes"/>
      <point x="68" y="18"/>
      <point x="58" y="10"/>
      <point x="4" y="10" type="curve" smooth="yes"/>
      <point x="9" y="10" type="line"/>
    </contour>
  </outline>
</glyph>
<glyph name="s" format="2">
  <advance width="298"/>
  <unicode hex="0073"/>
  <anchor x="150" y="0" name="bottom"/>
  <anchor x="150" y="536" name="top"/>
  <anchor x="284" y="536" name="topright"/>
  <outline>
    <contour>
      <point x="143" y="-10" type="curve" smooth="yes"/>
      <point x="225" y="-10"/>
      <point x="273" y="45"/>
      <point x="273" y="140" type="curve" smooth="yes"/>
      <point x="273" y="241"/>
      <point x="210" y="276"/>
      <point x="172" y="303" type="curve" smooth="yes"/>
      <point x="110" y="345"/>
      <point x="87" y="371"/>
      <point x="87" y="437" type="curve" smooth="yes"/>
      <point x="87" y="500"/>
      <point x="117" y="533"/>
      <point x="155" y="533" type="curve" smooth="yes"/>
      <point x="201" y="533"/>
      <point x="217" y="487"/>
      <point x="217" y="398" type="curve"/>
      <point x="247" y="398"/>
      <point x="264" y="417"/>
      <point x="264" y="451" type="curve" smooth="yes"/>
      <point x="264" y="508"/>
      <point x="221" y="543"/>
      <point x="156" y="543" type="curve" smooth="yes"/>
      <point x="80" y="543"/>
      <point x="35" y="494"/>
      <point x="35" y="402" type="curve" smooth="yes"/>
      <point x="35" y="317"/>
      <point x="82" y="282"/>
      <point x="134" y="245" type="curve" smooth="yes"/>
      <point x="194" y="200"/>
      <point x="222" y="175"/>
      <point x="222" y="108" type="curve" smooth="yes"/>
      <point x="222" y="28"/>
      <point x="189" y="0"/>
      <point x="141" y="0" type="curve" smooth="yes"/>
      <point x="90" y="0"/>
      <point x="65" y="46"/>
      <point x="65" y="154" type="curve"/>
      <point x="43" y="154"/>
      <point x="19" y="139"/>
      <point x="19" y="96" type="curve" smooth="yes"/>
      <point x="19" y="44"/>
      <point x="51" y="-10"/>
    </contour>
  </outline>
</glyph>
<glyph name="v" format="2">
  <advance width="381"/>
  <unicode hex="0076"/>
  <anchor x="194" y="0" name="bottom"/>
  <anchor x="194" y="536" name="top"/>
  <anchor x="369" y="536" name="topright"/>
  <outline>
    <contour>
      <point x="160" y="0" type="line"/>
      <point x="209" y="0" type="line"/>
      <point x="325" y="484" type="line" smooth="yes"/>
      <point x="336" y="529"/>
      <point x="342" y="526"/>
      <point x="366" y="526" type="curve" smooth="yes"/>
      <point x="380" y="526" type="line"/>
      <point x="380" y="536" type="line"/>
      <point x="260" y="536" type="line"/>
      <point x="260" y="526" type="line"/>
      <point x="269" y="526" type="line" smooth="yes"/>
      <point x="311" y="526"/>
      <point x="316" y="522"/>
      <point x="316" y="506" type="curve" smooth="yes"/>
      <point x="316" y="495"/>
      <point x="307" y="448"/>
      <point x="283" y="354" type="curve" smooth="yes"/>
      <point x="257" y="236" type="line" smooth="yes"/>
      <point x="232" y="137"/>
      <point x="221" y="85"/>
      <point x="214" y="56" type="curve"/>
      <point x="206" y="101"/>
      <point x="194" y="165"/>
      <point x="180" y="219" type="curve" smooth="yes"/>
      <point x="126" y="430" type="line" smooth="yes"/>
      <point x="120" y="454"/>
      <point x="113" y="489"/>
      <point x="113" y="504" type="curve" smooth="yes"/>
      <point x="113" y="521"/>
      <point x="124" y="526"/>
      <point x="153" y="526" type="curve" smooth="yes"/>
      <point x="178" y="526" type="line"/>
      <point x="178" y="536" type="line"/>
      <point x="2" y="536" type="line"/>
      <point x="2" y="526" type="line"/>
      <point x="26" y="526"/>
      <point x="34" y="518"/>
      <point x="43" y="478" type="curve" smooth="yes"/>
    </contour>
  </outline>
</glyph>
<glyph name="w" format="2">
  <advance width="556"/>
  <unicode hex="0077"/>
  <anchor x="278" y="0" name="bottom"/>
  <anchor x="278" y="536" name="top"/>
  <anchor x="554" y="536" name="topright"/>
  <outline>
    <contour>
      <point x="139" y="0" type="line"/>
      <point x="178" y="0" type="line"/>
      <point x="272" y="479" type="line"/>
      <point x="381" y="0" type="line"/>
      <point x="425" y="0" type="line"/>
      <point x="495" y="482" type="line" smooth="yes"/>
      <point x="501" y="527"/>
      <point x="508" y="526"/>
      <point x="553" y="526" type="curve" smooth="yes"/>
      <point x="568" y="526" type="line"/>
      <point x="568" y="536" type="line"/>
      <point x="432" y="536" type="line"/>
      <point x="432" y="526" type="line"/>
      <point x="453" y="526" type="line" smooth="yes"/>
      <point x="483" y="526"/>
      <point x="485" y="519"/>
      <point x="485" y="509" type="curve" smooth="yes"/>
      <point x="485" y="498"/>
      <point x="482" y="472"/>
      <point x="476" y="435" type="curve" smooth="yes"/>
      <point x="446" y="215" type="line" smooth="yes"/>
      <point x="436" y="145"/>
      <point x="431" y="103"/>
      <point x="426" y="69" type="curve"/>
      <point x="424" y="69" type="line"/>
      <point x="418" y="110"/>
      <point x="407" y="179"/>
      <point x="398" y="222" type="curve" smooth="yes"/>
      <point x="322" y="538" type="line"/>
      <point x="274" y="538" type="line"/>
      <point x="216" y="225" type="line" smooth="yes"/>
      <point x="208" y="186"/>
      <point x="193" y="113"/>
      <point x="185" y="73" type="curve"/>
      <point x="183" y="73" type="line"/>
      <point x="181" y="103"/>
      <point x="171" y="158"/>
      <point x="164" y="191" type="curve" smooth="yes"/>
      <point x="114" y="429" type="line" smooth="yes"/>
      <point x="108" y="461"/>
      <point x="101" y="495"/>
      <point x="101" y="506" type="curve" smooth="yes"/>
      <point x="101" y="520"/>
      <point x="106" y="526"/>
      <point x="139" y="526" type="curve" smooth="yes"/>
      <point x="168" y="526" type="line"/>
      <point x="168" y="536" type="line"/>
      <point x="1" y="536" type="line"/>
      <point x="1" y="526" type="line"/>
      <point x="-6" y="526" type="line" smooth="yes"/>
      <point x="32" y="526"/>
      <point x="38" y="524"/>
      <point x="49" y="471" type="curve" smooth="yes"/>
    </contour>
  </outline>
</glyph>
<glyph name="z" format="2">
  <advance width="335"/>
  <unicode hex="007A"/>
  <anchor x="166" y="0" name="bottom"/>
  <anchor x="166" y="536" name="top"/>
  <anchor x="308" y="536" name="topright"/>
  <outline>
    <contour>
      <point x="22" y="0" type="line"/>
      <point x="292" y="0" type="line"/>
      <point x="297" y="152" type="line"/>
      <point x="287" y="152" type="line"/>
      <point x="284" y="102" type="line" smooth="yes"/>
      <point x="281" y="37"/>
      <point x="261" y="13"/>
      <point x="191" y="13" type="curve" smooth="yes"/>
      <point x="93" y="13" type="line"/>
      <point x="291" y="515" type="line"/>
      <point x="291" y="536" type="line"/>
      <point x="40" y="536" type="line"/>
      <point x="30" y="406" type="line"/>
      <point x="40" y="406" type="line"/>
      <point x="43" y="433" type="line" smooth="yes"/>
      <point x="50" y="500"/>
      <point x="73" y="523"/>
      <point x="140" y="523" type="curve" smooth="yes"/>
      <point x="221" y="523" type="line"/>
      <point x="22" y="21" type="line"/>
    </contour>
  </outline>
</glyph>
<glyph name="braceleft" format="2">
  <advance width="280"/>
  <unicode hex="007B"/>
  <outline>
    <contour>
      <point x="210" y="-129" type="curve" smooth="yes"/>
      <point x="252" y="-129" type="line"/>
      <point x="252" y="-119" type="line"/>
      <point x="235" y="-119" type="line" smooth="yes"/>
      <point x="198" y="-119"/>
      <point x="179" y="-91"/>
      <point x="179" y="4" type="curve" smooth="yes"/>
      <point x="179" y="192" type="line" smooth="yes"/>
      <point x="179" y="273"/>
      <point x="153" y="307"/>
      <point x="66" y="317" type="curve"/>
      <point x="66" y="319" type="line"/>
      <point x="157" y="334"/>
      <point x="179" y="363"/>
      <point x="179" y="442" type="curve" smooth="yes"/>
      <point x="179" y="627" type="line" smooth="yes"/>
      <point x="179" y="718"/>
      <point x="195" y="750"/>
      <point x="234" y="750" type="curve" smooth="yes"/>
      <point x="252" y="750" type="line"/>
      <point x="252" y="760" type="line"/>
      <point x="209" y="760" type="line" smooth="yes"/>
      <point x="140" y="760"/>
      <point x="105" y="709"/>
      <point x="105" y="618" type="curve" smooth="yes"/>
      <point x="105" y="431" type="line" smooth="yes"/>
      <point x="105" y="353"/>
      <point x="63" y="322"/>
      <point x="27" y="321" type="curve"/>
      <point x="27" y="312" type="line"/>
      <point x="81" y="309"/>
      <point x="105" y="265"/>
      <point x="105" y="202" type="curve" smooth="yes"/>
      <point x="105" y="14" type="line" smooth="yes"/>
      <point x="105" y="-75"/>
      <point x="140" y="-129"/>
    </contour>
  </outline>
</glyph>
<glyph name="cent" format="2">
  <advance width="361"/>
  <unicode hex="00A2"/>
  <outline>
    <contour>
      <point x="192" y="0" type="line"/>
      <point x="209" y="0" type="line"/>
      <point x="209" y="88" type="line"/>
      <point x="302" y="89"/>
      <point x="330" y="140"/>
      <point x="330" y="185" type="curve" smooth="yes"/>
      <point x="330" y="202"/>
      <point x="325" y="216"/>
      <point x="306" y="220" type="curve"/>
      <point x="300" y="146"/>
      <point x="269" y="100"/>
      <point x="209" y="99" type="curve"/>
      <point x="209" y="634" type="line"/>
      <point x="255" y="631"/>
      <point x="266" y="598"/>
      <point x="266" y="486" type="curve"/>
      <point x="293" y="485"/>
      <point x="327" y="489"/>
      <point x="327" y="545" type="curve" smooth="yes"/>
      <point x="327" y="596"/>
      <point x="290" y="643"/>
      <point x="209" y="644" type="curve"/>
      <point x="209" y="714" type="line"/>
      <point x="192" y="714" type="line"/>
      <point x="192" y="643" type="line"/>
      <point x="102" y="635"/>
      <point x="53" y="564"/>
      <point x="53" y="367" type="curve" smooth="yes"/>
      <point x="53" y="156"/>
      <point x="113" y="102"/>
      <point x="192" y="90" type="curve"/>
    </contour>
    <contour>
      <point x="192" y="102" type="line"/>
      <point x="138" y="119"/>
      <point x="126" y="190"/>
      <point x="126" y="366" type="curve" smooth="yes"/>
      <point x="126" y="570"/>
      <point x="153" y="623"/>
      <point x="192" y="633" type="curve"/>
    </contour>
  </outline>
</glyph>
<glyph name="sterling" format="2">
  <advance width="361"/>
  <unicode hex="00A3"/>
  <outline>
    <contour>
      <point x="266" y="-11" type="curve" smooth="yes"/>
      <point x="298" y="-11"/>
      <point x="315" y="8"/>
      <point x="340" y="68" type="curve"/>
      <point x="340" y="81" type="line"/>
      <point x="327" y="56"/>
      <point x="311" y="44"/>
      <point x="284" y="44" type="curve" smooth="yes"/>
      <point x="260" y="44"/>
      <point x="241" y="51"/>
      <point x="229" y="60" type="curve" smooth="yes"/>
      <point x="217" y="68"/>
      <point x="192" y="87"/>
      <point x="165" y="87" type="curve" smooth="yes"/>
      <point x="150" y="87"/>
      <point x="111" y="78"/>
      <point x="78" y="47" type="curve"/>
      <point x="77" y="49" type="line"/>
      <point x="146" y="110"/>
      <point x="173" y="159"/>
      <point x="173" y="246" type="curve" smooth="yes"/>
      <point x="173" y="276"/>
      <point x="170" y="303"/>
      <point x="163" y="340" type="curve"/>
      <point x="268" y="340" type="line"/>
      <point x="268" y="360" type="line"/>
      <point x="158" y="360" type="line"/>
      <point x="125" y="475"/>
      <point x="122" y="511"/>
      <point x="122" y="566" type="curve" smooth="yes"/>
      <point x="122" y="664"/>
      <point x="137" y="715"/>
      <point x="199" y="715" type="curve" smooth="yes"/>
      <point x="248" y="715"/>
      <point x="266" y="676"/>
      <point x="266" y="554" type="curve"/>
      <point x="296" y="554"/>
      <point x="320" y="570"/>
      <point x="320" y="614" type="curve" smooth="yes"/>
      <point x="320" y="676"/>
      <point x="287" y="725"/>
      <point x="206" y="725" type="curve" smooth="yes"/>
      <point x="105" y="725"/>
      <point x="57" y="665"/>
      <point x="57" y="557" type="curve" smooth="yes"/>
      <point x="57" y="494"/>
      <point x="76" y="430"/>
      <point x="93" y="360" type="curve"/>
      <point x="28" y="360" type="line"/>
      <point x="28" y="340" type="line"/>
      <point x="99" y="340" type="line"/>
      <point x="109" y="296"/>
      <point x="114" y="255"/>
      <point x="114" y="218" type="curve" smooth="yes"/>
      <point x="114" y="143"/>
      <point x="84" y="71"/>
      <point x="47" y="30" type="curve" smooth="yes"/>
      <point x="32" y="12" type="line"/>
      <point x="34" y="-7" type="line"/>
      <point x="48" y="9" type="line" smooth="yes"/>
      <point x="67" y="29"/>
      <point x="93" y="46"/>
      <point x="115" y="46" type="curve" smooth="yes"/>
      <point x="144" y="46"/>
      <point x="163" y="33"/>
      <point x="180" y="22" type="curve" smooth="yes"/>
      <point x="208" y="7"/>
      <point x="234" y="-11"/>
    </contour>
  </outline>
</glyph>
<glyph name="ordmasculine" format="2">
  <advance width="266"/>
  <unicode hex="00BA"/>
  <outline>
    <contour>
      <point x="132" y="380" type="curve" smooth="yes"/>
      <point x="206" y="380"/>
      <point x="236" y="436"/>
      <point x="236" y="550" type="curve" smooth="yes"/>
      <point x="236" y="662"/>
      <point x="205" y="718"/>
      <point x="134" y="718" type="curve" smooth="yes"/>
      <point x="61" y="718"/>
      <point x="30" y="664"/>
      <point x="30" y="550" type="curve" smooth="yes"/>
      <point x="30" y="437"/>
      <point x="59" y="380"/>
    </contour>
    <contour>
      <point x="134" y="390" type="curve" smooth="yes"/>
      <point x="96" y="390"/>
      <point x="88" y="430"/>
      <point x="88" y="551" type="curve" smooth="yes"/>
      <point x="88" y="670"/>
      <point x="96" y="708"/>
      <point x="133" y="708" type="curve" smooth="yes"/>
      <point x="169" y="708"/>
      <point x="178" y="670"/>
      <point x="178" y="551" type="curve" smooth="yes"/>
      <point x="178" y="430"/>
      <point x="170" y="390"/>
    </contour>
  </outline>
</glyph>
<glyph name="guillemotright" format="2">
  <advance width="341"/>
  <unicode hex="00BB"/>
  <outline>
    <contour>
      <point x="153" y="84" type="line"/>
      <point x="165" y="84" type="line"/>
      <point x="287" y="266" type="line"/>
      <point x="287" y="274" type="line"/>
      <point x="165" y="456" type="line"/>
      <point x="153" y="456" type="line"/>
      <point x="234" y="270" type="line"/>
    </contour>
    <contour>
      <point x="41" y="84" type="line"/>
      <point x="52" y="84" type="line"/>
      <point x="175" y="266" type="line"/>
      <point x="175" y="274" type="line"/>
      <point x="52" y="456" type="line"/>
      <point x="41" y="456" type="line"/>
      <point x="123" y="270" type="line"/>
    </contour>
  </outline>
</glyph>
<glyph name="Thorn" format="2">
  <advance width="401"/>
  <unicode hex="00DE"/>
  <anchor x="200" y="0" name="bottom"/>
  <anchor x="200" y="714" name="top"/>
  <outline>
    <contour>
      <point x="23" y="0" type="line"/>
      <point x="216" y="0" type="line"/>
      <point x="216" y="10" type="line"/>
      <point x="204" y="10" type="line" smooth="yes"/>
      <point x="169" y="10"/>
      <point x="160" y="23"/>
      <point x="160" y="86" type="curve" smooth="yes"/>
      <point x="160" y="155" type="line"/>
      <point x="185" y="155" type="line" smooth="yes"/>
      <point x="312" y="155"/>
      <point x="377" y="210"/>
      <point x="377" y="364" type="curve" smooth="yes"/>
      <point x="377" y="508"/>
      <point x="322" y="570"/>
      <point x="199" y="570" type="curve" smooth="yes"/>
      <point x="160" y="570" type="line"/>
      <point x="160" y="628" type="line" smooth="yes"/>
      <point x="160" y="692"/>
      <point x="168" y="704"/>
      <point x="203" y="704" type="curve" smooth="yes"/>
      <point x="224" y="704" type="line"/>
      <point x="224" y="714" type="line"/>
      <point x="23" y="714" type="line"/>
      <point x="23" y="704" type="line"/>
      <point x="40" y="704" type="line" smooth="yes"/>
      <point x="75" y="704"/>
      <point x="85" y="692"/>
      <point x="85" y="628" type="curve" smooth="yes"/>
      <point x="85" y="86" type="line" smooth="yes"/>
      <point x="85" y="22"/>
      <point x="75" y="10"/>
      <point x="40" y="10" type="curve" smooth="yes"/>
      <point x="23" y="10" type="line"/>
    </contour>
    <contour>
      <point x="160" y="165" type="line"/>
      <point x="160" y="560" type="line"/>
      <point x="192" y="560" type="line" smooth="yes"/>
      <point x="272" y="560"/>
      <point x="299" y="515"/>
      <point x="299" y="360" type="curve" smooth="yes"/>
      <point x="299" y="196"/>
      <point x="260" y="165"/>
      <point x="188" y="165" type="curve" smooth="yes"/>
    </contour>
  </outline>
</glyph>
<glyph name="hbar" format="2">
  <advance width="418"/>
  <unicode hex="0127"/>
  <anchor x="209" y="0" name="bottom"/>
  <anchor x="209" y="760" name="top"/>
  <outline>
    <contour>
      <point x="12" y="0" type="line"/>
      <point x="193" y="0" type="line"/>
      <point x="193" y="10" type="line"/>
      <point x="195" y="10" type="line" smooth="yes"/>
      <point x="149" y="10"/>
      <point x="141" y="22"/>
      <point x="141" y="83" type="curve" smooth="yes"/>
      <point x="141" y="334" type="line" smooth="yes"/>
      <point x="141" y="468"/>
      <point x="167" y="514"/>
      <point x="213" y="514" type="curve" smooth="yes"/>
      <point x="263" y="514"/>
      <point x="277" y="468"/>
      <point x="277" y="361" type="curve" smooth="yes"/>
      <point x="277" y="0" type="line"/>
      <point x="400" y="0" type="line"/>
      <point x="400" y="10" type="line"/>
      <point x="398" y="10" type="line" smooth="yes"/>
      <point x="358" y="10"/>
      <point x="350" y="26"/>
      <point x="350" y="82" type="curve" smooth="yes"/>
      <point x="350" y="352" type="line" smooth="yes"/>
      <point x="350" y="473"/>
      <point x="309" y="535"/>
      <point x="241" y="535" type="curve" smooth="yes"/>
      <point x="186" y="535"/>
      <point x="152" y="499"/>
      <point x="142" y="448" type="curve"/>
      <point x="140" y="448" type="line"/>
      <point x="141" y="459"/>
      <point x="142" y="483"/>
      <point x="142" y="503" type="curve" smooth="yes"/>
      <point x="142" y="615" type="line"/>
      <point x="249" y="615" type="line"/>
      <point x="249" y="625" type="line"/>
      <point x="142" y="625" type="line"/>
      <point x="142" y="760" type="line"/>
      <point x="9" y="760" type="line"/>
      <point x="9" y="750" type="line"/>
      <point x="20" y="750" type="line" smooth="yes"/>
      <point x="60" y="750"/>
      <point x="68" y="735"/>
      <point x="68" y="679" type="curve" smooth="yes"/>
      <point x="68" y="625" type="line"/>
      <point x="9" y="625" type="line"/>
      <point x="9" y="615" type="line"/>
      <point x="68" y="615" type="line"/>
      <point x="68" y="84" type="line" smooth="yes"/>
      <point x="68" y="23"/>
      <point x="61" y="10"/>
      <point x="12" y="10" type="curve" smooth="yes"/>
      <point x="12" y="10" type="line"/>
    </contour>
  </outline>
</glyph>
<glyph name="Lslash" format="2">
  <advance width="410"/>
  <unicode hex="0141"/>
  <anchor x="206" y="0" name="bottom"/>
  <anchor x="206" y="714" name="top"/>
  <outline>
    <contour>
      <point x="23" y="0" type="line"/>
      <point x="381" y="0" type="line"/>
      <point x="385" y="211" type="line"/>
      <point x="375" y="211" type="line"/>
      <point x="373" y="105" type="line" smooth="yes"/>
      <point x="370" y="37"/>
      <point x="348" y="10"/>
      <point x="288" y="10" type="curve" smooth="yes"/>
      <point x="158" y="10" type="line"/>
      <point x="158" y="361" type="line"/>
      <point x="263" y="449" type="line"/>
      <point x="263" y="461" type="line"/>
      <point x="158" y="374" type="line"/>
      <point x="158" y="624" type="line" smooth="yes"/>
      <point x="158" y="697"/>
      <point x="175" y="704"/>
      <point x="215" y="704" type="curve" smooth="yes"/>
      <point x="224" y="704" type="line"/>
      <point x="224" y="714" type="line"/>
      <point x="23" y="714" type="line"/>
      <point x="23" y="704" type="line"/>
      <point x="27" y="704" type="line" smooth="yes"/>
      <point x="71" y="704"/>
      <point x="83" y="697"/>
      <point x="83" y="622" type="curve" smooth="yes"/>
      <point x="83" y="315" type="line"/>
      <point x="24" y="265" type="line"/>
      <point x="24" y="252" type="line"/>
      <point x="83" y="303" type="line"/>
      <point x="83" y="93" type="line" smooth="yes"/>
      <point x="83" y="17"/>
      <point x="71" y="10"/>
      <point x="25" y="10" type="curve" smooth="yes"/>
      <point x="23" y="10" type="line"/>
    </contour>
  </outline>
</glyph>
<glyph name="Eng" format="2">
  <advance width="499"/>
  <unicode hex="014A"/>
  <anchor x="256" y="-240" name="bottom"/>
  <anchor x="256" y="714" name="top"/>
  <outline>
    <contour>
      <point x="288" y="-240" type="line"/>
      <point x="294" y="-240" type="line" smooth="yes"/>
      <point x="385" y="-240"/>
      <point x="416" y="-188"/>
      <point x="416" y="-12" type="curve" smooth="yes"/>
      <point x="416" y="625" type="line" smooth="yes"/>
      <point x="416" y="692"/>
      <point x="422" y="704"/>
      <point x="463" y="704" type="curve" smooth="yes"/>
      <point x="498" y="704" type="line"/>
      <point x="498" y="714" type="line"/>
      <point x="317" y="714" type="line"/>
      <point x="317" y="704" type="line"/>
      <point x="359" y="704" type="line" smooth="yes"/>
      <point x="402" y="704"/>
      <point x="406" y="692"/>
      <point x="406" y="627" type="curve" smooth="yes"/>
      <point x="406" y="138" type="line"/>
      <point x="159" y="714" type="line"/>
      <point x="23" y="714" type="line"/>
      <point x="23" y="704" type="line"/>
      <point x="47" y="704" type="line" smooth="yes"/>
      <point x="93" y="704"/>
      <point x="96" y="690"/>
      <point x="96" y="626" type="curve" smooth="yes"/>
      <point x="96" y="89" type="line" smooth="yes"/>
      <point x="96" y="25"/>
      <point x="91" y="10"/>
      <point x="45" y="10" type="curve" smooth="yes"/>
      <point x="23" y="10" type="line"/>
      <point x="23" y="0" type="line"/>
      <point x="196" y="0" type="line"/>
      <point x="196" y="10" type="line"/>
      <point x="158" y="10" type="line" smooth="yes"/>
      <point x="112" y="10"/>
      <point x="106" y="25"/>
      <point x="106" y="89" type="curve" smooth="yes"/>
      <point x="106" y="661" type="line"/>
      <point x="406" y="-3" type="line"/>
      <point x="406" y="-11" type="line" smooth="yes"/>
      <point x="406" y="-168"/>
      <point x="374" y="-230"/>
      <point x="292" y="-230" type="curve" smooth="yes"/>
      <point x="288" y="-230" type="line"/>
    </contour>
  </outline>
</glyph>
<glyph name="eng" format="2">
  <advance width="415"/>
  <unicode hex="014B"/>
  <anchor x="218" y="-240" name="bottom"/>
  <anchor x="218" y="536" name="top"/>
  <outline>
    <contour>
      <point x="218" y="-240" type="line"/>
      <point x="226" y="-240" type="line" smooth="yes"/>
      <point x="299" y="-240"/>
      <point x="354" y="-205"/>
      <point x="354" y="-20" type="curve" smooth="yes"/>
      <point x="354" y="362" type="line" smooth="yes"/>
      <point x="354" y="490"/>
      <point x="321" y="545"/>
      <point x="245" y="545" type="curve" smooth="yes"/>
      <point x="188" y="545"/>
      <point x="160" y="502"/>
      <point x="147" y="450" type="curve"/>
      <point x="145" y="450" type="line"/>
      <point x="145" y="536" type="line"/>
      <point x="19" y="536" type="line"/>
      <point x="19" y="526" type="line"/>
      <point x="13" y="526" type="line" smooth="yes"/>
      <point x="67" y="526"/>
      <point x="73" y="515"/>
      <point x="73" y="454" type="curve" smooth="yes"/>
      <point x="73" y="84" type="line" smooth="yes"/>
      <point x="73" y="23"/>
      <point x="66" y="10"/>
      <point x="15" y="10" type="curve" smooth="yes"/>
      <point x="16" y="10" type="line"/>
      <point x="16" y="0" type="line"/>
      <point x="200" y="0" type="line"/>
      <point x="200" y="10" type="line"/>
      <point x="200" y="10" type="line" smooth="yes"/>
      <point x="154" y="10"/>
      <point x="146" y="22"/>
      <point x="146" y="83" type="curve" smooth="yes"/>
      <point x="146" y="343" type="line" smooth="yes"/>
      <point x="146" y="496"/>
      <point x="198" y="524"/>
      <point x="224" y="524" type="curve" smooth="yes"/>
      <point x="265" y="524"/>
      <point x="281" y="478"/>
      <point x="281" y="368" type="curve" smooth="yes"/>
      <point x="281" y="-37" type="line" smooth="yes"/>
      <point x="281" y="-190"/>
      <point x="260" y="-230"/>
      <point x="221" y="-230" type="curve" smooth="yes"/>
      <point x="218" y="-230" type="line"/>
    </contour>
  </outline>
</glyph>
<glyph name="uni0185" format="2">
  <advance width="403"/>
  <unicode hex="0185"/>
  <anchor x="202" y="0" name="bottom"/>
  <anchor x="202" y="760" name="top"/>
  <outline>
    <contour>
      <point x="219" y="-10" type="curve" smooth="yes"/>
      <point x="311" y="-10"/>
      <point x="367" y="60"/>
      <point x="367" y="266" type="curve" smooth="yes"/>
      <point x="367" y="468"/>
      <point x="319" y="545"/>
      <point x="237" y="545" type="curve" smooth="yes"/>
      <point x="176" y="545"/>
      <point x="150" y="512"/>
      <point x="137" y="440" type="curve"/>
      <point x="135" y="440" type="line"/>
      <point x="136" y="501"/>
      <point x="136" y="535"/>
      <point x="136" y="570" type="curve" smooth="yes"/>
      <point x="136" y="760" type="line"/>
      <point x="7" y="760" type="line"/>
      <point x="7" y="750" type="line"/>
      <point x="2" y="750" type="line" smooth="yes"/>
      <point x="47" y="750"/>
      <point x="63" y="745"/>
      <point x="63" y="679" type="curve" smooth="yes"/>
      <point x="63" y="280" type="line" smooth="yes"/>
      <point x="63" y="104"/>
      <point x="80" y="-10"/>
    </contour>
    <contour>
      <point x="215" y="0" type="curve" smooth="yes"/>
      <point x="159" y="0"/>
      <point x="136" y="71"/>
      <point x="136" y="265" type="curve" smooth="yes"/>
      <point x="136" y="461"/>
      <point x="164" y="535"/>
      <point x="223" y="535" type="curve" smooth="yes"/>
      <point x="274" y="535"/>
      <point x="293" y="462"/>
      <point x="293" y="264" type="curve" smooth="yes"/>
      <point x="293" y="53"/>
      <point x="271" y="0"/>
    </contour>
  </outline>
</glyph>
<glyph name="uni018A" format="2">
  <advance width="545"/>
  <unicode hex="018A"/>
  <anchor x="275" y="0" name="bottom"/>
  <anchor x="275" y="714" name="top"/>
  <outline>
    <contour>
      <point x="86" y="0" type="line"/>
      <point x="277" y="0" type="line" smooth="yes"/>
      <point x="435" y="0"/>
      <point x="509" y="135"/>
      <point x="509" y="354" type="curve" smooth="yes"/>
      <point x="509" y="587"/>
      <point x="427" y="714"/>
      <point x="280" y="714" type="curve" smooth="yes"/>
      <point x="106" y="714" type="line" smooth="yes"/>
      <point x="37" y="714"/>
      <point x="4" y="669"/>
      <point x="4" y="614" type="curve" smooth="yes"/>
      <point x="4" y="577"/>
      <point x="19" y="552"/>
      <point x="49" y="552" type="curve" smooth="yes"/>
      <point x="60" y="552"/>
      <point x="68" y="557"/>
      <point x="75" y="565" type="curve"/>
      <point x="60" y="575"/>
      <point x="54" y="598"/>
      <point x="54" y="625" type="curve" smooth="yes"/>
      <point x="54" y="670"/>
      <point x="70" y="704"/>
      <point x="103" y="704" type="curve" smooth="yes"/>
      <point x="135" y="704"/>
      <point x="147" y="681"/>
      <point x="147" y="588" type="curve" smooth="yes"/>
      <point x="147" y="89" type="line" smooth="yes"/>
      <point x="147" y="20"/>
      <point x="137" y="10"/>
      <point x="96" y="10" type="curve" smooth="yes"/>
      <point x="86" y="10" type="line"/>
    </contour>
    <contour>
      <point x="221" y="10" type="line"/>
      <point x="221" y="704" type="line"/>
      <point x="276" y="704" type="line" smooth="yes"/>
      <point x="380" y="704"/>
      <point x="431" y="589"/>
      <point x="431" y="356" type="curve" smooth="yes"/>
      <point x="431" y="110"/>
      <point x="378" y="10"/>
      <point x="276" y="10" type="curve" smooth="yes"/>
    </contour>
  </outline>
</glyph>
<glyph name="uni0193" format="2">
  <advance width="475"/>
  <unicode hex="0193"/>
  <anchor x="238" y="0" name="bottom"/>
  <anchor x="238" y="714" name="top"/>
  <outline>
    <contour>
      <point x="266" y="-10" type="curve" smooth="yes"/>
      <point x="323" y="-10"/>
      <point x="368" y="4"/>
      <point x="414" y="34" type="curve"/>
      <point x="414" y="237" type="line" smooth="yes"/>
      <point x="414" y="304"/>
      <point x="422" y="318"/>
      <point x="468" y="318" type="curve" smooth="yes"/>
      <point x="459" y="318" type="line"/>
      <point x="459" y="328" type="line"/>
      <point x="279" y="328" type="line"/>
      <point x="279" y="318" type="line"/>
      <point x="278" y="318" type="line" smooth="yes"/>
      <point x="331" y="318"/>
      <point x="340" y="305"/>
      <point x="340" y="238" type="curve" smooth="yes"/>
      <point x="340" y="18" type="line"/>
      <point x="323" y="6"/>
      <point x="298" y="0"/>
      <point x="266" y="0" type="curve" smooth="yes"/>
      <point x="151" y="0"/>
      <point x="113" y="97"/>
      <point x="113" y="358" type="curve" smooth="yes"/>
      <point x="113" y="602"/>
      <point x="160" y="714"/>
      <point x="270" y="714" type="curve" smooth="yes"/>
      <point x="340" y="714"/>
      <point x="362" y="657"/>
      <point x="362" y="548" type="curve"/>
      <point x="401" y="548"/>
      <point x="419" y="571"/>
      <point x="419" y="611" type="curve" smooth="yes"/>
      <point x="419" y="755" type="line" smooth="yes"/>
      <point x="419" y="789"/>
      <point x="431" y="801"/>
      <point x="467" y="801" type="curve" smooth="yes"/>
      <point x="492" y="801"/>
      <point x="507" y="789"/>
      <point x="505" y="768" type="curve"/>
      <point x="512" y="769"/>
      <point x="517" y="779"/>
      <point x="517" y="796" type="curve" smooth="yes"/>
      <point x="517" y="832"/>
      <point x="503" y="852"/>
      <point x="466" y="852" type="curve" smooth="yes"/>
      <point x="427" y="852"/>
      <point x="409" y="826"/>
      <point x="409" y="749" type="curve" smooth="yes"/>
      <point x="409" y="663" type="line"/>
      <point x="372" y="707"/>
      <point x="333" y="724"/>
      <point x="270" y="724" type="curve" smooth="yes"/>
      <point x="114" y="724"/>
      <point x="36" y="585"/>
      <point x="36" y="358" type="curve" smooth="yes"/>
      <point x="36" y="121"/>
      <point x="108" y="-10"/>
    </contour>
  </outline>
</glyph>
<glyph name="uni0195" format="2">
  <advance width="598"/>
  <unicode hex="0195"/>
  <anchor x="299" y="0" name="bottom"/>
  <anchor x="299" y="536" name="top"/>
  <outline>
    <contour>
      <point x="402" y="-9" type="curve" smooth="yes"/>
      <point x="510" y="-9"/>
      <point x="539" y="66"/>
      <point x="539" y="202" type="curve" smooth="yes"/>
      <point x="539" y="536" type="line"/>
      <point x="418" y="536" type="line"/>
      <point x="418" y="526" type="line"/>
      <point x="405" y="526" type="line" smooth="yes"/>
      <point x="468" y="526"/>
      <point x="467" y="513"/>
      <point x="467" y="437" type="curve" smooth="yes"/>
      <point x="467" y="150" type="line" smooth="yes"/>
      <point x="467" y="37"/>
      <point x="454" y="1"/>
      <point x="402" y="1" type="curve" smooth="yes"/>
      <point x="367" y="1"/>
      <point x="341" y="16"/>
      <point x="341" y="143" type="curve" smooth="yes"/>
      <point x="341" y="361" type="line" smooth="yes"/>
      <point x="341" y="483"/>
      <point x="302" y="545"/>
      <point x="236" y="545" type="curve" smooth="yes"/>
      <point x="187" y="545"/>
      <point x="157" y="513"/>
      <point x="142" y="458" type="curve"/>
      <point x="140" y="458" type="line"/>
      <point x="142" y="472"/>
      <point x="142" y="501"/>
      <point x="142" y="513" type="curve" smooth="yes"/>
      <point x="142" y="760" type="line"/>
      <point x="12" y="760" type="line"/>
      <point x="12" y="750" type="line"/>
      <point x="18" y="750" type="line" smooth="yes"/>
      <point x="61" y="750"/>
      <point x="68" y="735"/>
      <point x="68" y="679" type="curve" smooth="yes"/>
      <point x="68" y="84" type="line" smooth="yes"/>
      <point x="68" y="23"/>
      <point x="61" y="10"/>
      <point x="10" y="10" type="curve" smooth="yes"/>
      <point x="12" y="10" type="line"/>
      <point x="12" y="0" type="line"/>
      <point x="193" y="0" type="line"/>
      <point x="193" y="10" type="line"/>
      <point x="196" y="10" type="line" smooth="yes"/>
      <point x="149" y="10"/>
      <point x="141" y="22"/>
      <point x="141" y="83" type="curve" smooth="yes"/>
      <point x="141" y="343" type="line" smooth="yes"/>
      <point x="141" y="473"/>
      <point x="165" y="524"/>
      <point x="209" y="524" type="curve" smooth="yes"/>
      <point x="255" y="524"/>
      <point x="268" y="477"/>
      <point x="268" y="371" type="curve" smooth="yes"/>
      <point x="268" y="200" type="line" smooth="yes"/>
      <point x="268" y="45"/>
      <point x="309" y="-9"/>
    </contour>
  </outline>
</glyph>
<glyph name="uni0197" format="2">
  <advance width="246"/>
  <unicode hex="0197"/>
  <anchor x="124" y="0" name="bottom"/>
  <anchor x="124" y="714" name="top"/>
  <outline>
    <contour>
      <point x="23" y="0" type="line"/>
      <point x="224" y="0" type="line"/>
      <point x="224" y="10" type="line"/>
      <point x="203" y="10" type="line" smooth="yes"/>
      <point x="164" y="10"/>
      <point x="159" y="20"/>
      <point x="159" y="86" type="curve" smooth="yes"/>
      <point x="159" y="369" type="line"/>
      <point x="254" y="369" type="line"/>
      <point x="254" y="379" type="line"/>
      <point x="159" y="379" type="line"/>
      <point x="159" y="627" type="line" smooth="yes"/>
      <point x="159" y="693"/>
      <point x="166" y="704"/>
      <point x="203" y="704" type="curve" smooth="yes"/>
      <point x="224" y="704" type="line"/>
      <point x="224" y="714" type="line"/>
      <point x="23" y="714" type="line"/>
      <point x="23" y="704" type="line"/>
      <point x="40" y="704" type="line" smooth="yes"/>
      <point x="82" y="704"/>
      <point x="85" y="693"/>
      <point x="85" y="628" type="curve" smooth="yes"/>
      <point x="85" y="379" type="line"/>
      <point x="-8" y="379" type="line"/>
      <point x="-8" y="369" type="line"/>
      <point x="85" y="369" type="line"/>
      <point x="85" y="86" type="line" smooth="yes"/>
      <point x="85" y="21"/>
      <point x="81" y="10"/>
      <point x="41" y="10" type="curve" smooth="yes"/>
      <point x="23" y="10" type="line"/>
    </contour>
  </outline>
</glyph>
<glyph name="uni019B" format="2">
  <advance width="354"/>
  <unicode hex="019B"/>
  <anchor x="178" y="0" name="bottom"/>
  <anchor x="178" y="768" name="top"/>
  <outline>
    <contour>
      <point x="4" y="0" type="line"/>
      <point x="78" y="0" type="line"/>
      <point x="179" y="304" type="line" smooth="yes"/>
      <point x="188" y="335"/>
      <point x="198" y="372"/>
      <point x="207" y="414" type="curve"/>
      <point x="209" y="414" type="line"/>
      <point x="219" y="351"/>
      <point x="252" y="156"/>
      <point x="256" y="140" type="curve" smooth="yes"/>
      <point x="281" y="38"/>
      <point x="303" y="0"/>
      <point x="356" y="0" type="curve" smooth="yes"/>
      <point x="354" y="0" type="line"/>
      <point x="354" y="23" type="line"/>
      <point x="348" y="23" type="line" smooth="yes"/>
      <point x="313" y="23"/>
      <point x="288" y="60"/>
      <point x="268" y="166" type="curve" smooth="yes"/>
      <point x="194" y="574" type="line" smooth="yes"/>
      <point x="191" y="598"/>
      <point x="186" y="620"/>
      <point x="181" y="639" type="curve"/>
      <point x="263" y="707" type="line"/>
      <point x="263" y="720" type="line"/>
      <point x="178" y="650" type="line"/>
      <point x="157" y="735"/>
      <point x="131" y="770"/>
      <point x="77" y="770" type="curve" smooth="yes"/>
      <point x="25" y="770"/>
      <point x="17" y="737"/>
      <point x="17" y="705" type="curve" smooth="yes"/>
      <point x="17" y="695"/>
      <point x="19" y="681"/>
      <point x="27" y="676" type="curve"/>
      <point x="31" y="715"/>
      <point x="45" y="743"/>
      <point x="82" y="743" type="curve" smooth="yes"/>
      <point x="108" y="744"/>
      <point x="142" y="730"/>
      <point x="165" y="640" type="curve"/>
      <point x="85" y="573" type="line"/>
      <point x="85" y="561" type="line"/>
      <point x="169" y="630" type="line"/>
      <point x="174" y="600"/>
      <point x="180" y="566"/>
      <point x="184" y="523" type="curve"/>
    </contour>
  </outline>
</glyph>
<glyph name="uni01A2" format="2">
  <advance width="736"/>
  <unicode hex="01A2"/>
  <anchor x="368" y="0" name="bottom"/>
  <anchor x="368" y="714" name="top"/>
  <outline>
    <contour>
      <point x="523" y="-240" type="line"/>
      <point x="723" y="-240" type="line"/>
      <point x="723" y="-230" type="line"/>
      <point x="713" y="-230" type="line" smooth="yes"/>
      <point x="667" y="-230"/>
      <point x="660" y="-216"/>
      <point x="660" y="-144" type="curve" smooth="yes"/>
      <point x="660" y="521" type="line" smooth="yes"/>
      <point x="660" y="656"/>
      <point x="619" y="724"/>
      <point x="527" y="724" type="curve" smooth="yes"/>
      <point x="455" y="724"/>
      <point x="416" y="660"/>
      <point x="399" y="575" type="curve"/>
      <point x="373" y="664"/>
      <point x="327" y="725"/>
      <point x="239" y="725" type="curve" smooth="yes"/>
      <point x="89" y="725"/>
      <point x="37" y="574"/>
      <point x="37" y="359" type="curve" smooth="yes"/>
      <point x="37" y="140"/>
      <point x="100" y="-10"/>
      <point x="237" y="-10" type="curve" smooth="yes"/>
      <point x="367" y="-10"/>
      <point x="427" y="137"/>
      <point x="427" y="357" type="curve" smooth="yes"/>
      <point x="428" y="496" type="line" smooth="yes"/>
      <point x="428" y="647"/>
      <point x="457" y="712"/>
      <point x="515" y="712" type="curve" smooth="yes"/>
      <point x="573" y="712"/>
      <point x="586" y="645"/>
      <point x="586" y="553" type="curve" smooth="yes"/>
      <point x="586" y="-145" type="line" smooth="yes"/>
      <point x="586" y="-215"/>
      <point x="582" y="-230"/>
      <point x="527" y="-230" type="curve" smooth="yes"/>
      <point x="523" y="-230" type="line"/>
    </contour>
    <contour>
      <point x="237" y="0" type="curve" smooth="yes"/>
      <point x="155" y="0"/>
      <point x="114" y="116"/>
      <point x="114" y="358" type="curve" smooth="yes"/>
      <point x="114" y="595"/>
      <point x="143" y="715"/>
      <point x="241" y="715" type="curve" smooth="yes"/>
      <point x="316" y="715"/>
      <point x="357" y="634"/>
      <point x="357" y="434" type="curve" smooth="yes"/>
      <point x="357" y="344" type="line" smooth="yes"/>
      <point x="357" y="105"/>
      <point x="318" y="0"/>
    </contour>
  </outline>
</glyph>
<glyph name="uni01A7" format="2">
  <advance width="360"/>
  <unicode hex="01A7"/>
  <anchor x="181" y="0" name="bottom"/>
  <anchor x="181" y="714" name="top"/>
  <outline>
    <contour>
      <point x="195" y="-10" type="curve" smooth="yes"/>
      <point x="271" y="-10"/>
      <point x="335" y="38"/>
      <point x="335" y="95" type="curve" smooth="yes"/>
      <point x="335" y="106"/>
      <point x="334" y="132"/>
      <point x="301" y="141" type="curve"/>
      <point x="293" y="46"/>
      <point x="263" y="1"/>
      <point x="199" y="1" type="curve" smooth="yes"/>
      <point x="137" y="1"/>
      <point x="82" y="41"/>
      <point x="82" y="148" type="curve" smooth="yes"/>
      <point x="82" y="249"/>
      <point x="126" y="278"/>
      <point x="203" y="332" type="curve" smooth="yes"/>
      <point x="268" y="377"/>
      <point x="321" y="436"/>
      <point x="321" y="552" type="curve" smooth="yes"/>
      <point x="321" y="652"/>
      <point x="269" y="724"/>
      <point x="172" y="724" type="curve" smooth="yes"/>
      <point x="91" y="724"/>
      <point x="49" y="670"/>
      <point x="49" y="603" type="curve" smooth="yes"/>
      <point x="49" y="571"/>
      <point x="69" y="553"/>
      <point x="106" y="553" type="curve"/>
      <point x="106" y="659"/>
      <point x="126" y="713"/>
      <point x="184" y="713" type="curve" smooth="yes"/>
      <point x="239" y="713"/>
      <point x="270" y="663"/>
      <point x="270" y="568" type="curve" smooth="yes"/>
      <point x="270" y="476"/>
      <point x="239" y="453"/>
      <point x="165" y="396" type="curve" smooth="yes"/>
      <point x="97" y="343"/>
      <point x="34" y="310"/>
      <point x="34" y="178" type="curve" smooth="yes"/>
      <point x="34" y="61"/>
      <point x="92" y="-10"/>
    </contour>
  </outline>
</glyph>
<glyph name="uni01AC" format="2">
  <advance width="416"/>
  <unicode hex="01AC"/>
  <anchor x="208" y="0" name="bottom"/>
  <anchor x="208" y="714" name="top"/>
  <outline>
    <contour>
      <point x="104" y="0" type="line"/>
      <point x="316" y="0" type="line"/>
      <point x="316" y="10" type="line"/>
      <point x="300" y="10" type="line" smooth="yes"/>
      <point x="253" y="10"/>
      <point x="248" y="25"/>
      <point x="248" y="89" type="curve" smooth="yes"/>
      <point x="248" y="706" type="line"/>
      <point x="303" y="706" type="line" smooth="yes"/>
      <point x="375" y="706"/>
      <point x="388" y="682"/>
      <point x="392" y="614" type="curve" smooth="yes"/>
      <point x="394" y="546" type="line"/>
      <point x="404" y="546" type="line"/>
      <point x="400" y="714" type="line"/>
      <point x="125" y="714" type="line" smooth="yes"/>
      <point x="41" y="714"/>
      <point x="4" y="659"/>
      <point x="4" y="598" type="curve" smooth="yes"/>
      <point x="4" y="561"/>
      <point x="24" y="533"/>
      <point x="53" y="533" type="curve" smooth="yes"/>
      <point x="63" y="533"/>
      <point x="70" y="537"/>
      <point x="78" y="544" type="curve"/>
      <point x="66" y="554"/>
      <point x="57" y="576"/>
      <point x="57" y="612" type="curve" smooth="yes"/>
      <point x="57" y="662"/>
      <point x="75" y="706"/>
      <point x="123" y="706" type="curve" smooth="yes"/>
      <point x="173" y="706" type="line"/>
      <point x="173" y="89" type="line" smooth="yes"/>
      <point x="173" y="25"/>
      <point x="168" y="10"/>
      <point x="123" y="10" type="curve" smooth="yes"/>
      <point x="104" y="10" type="line"/>
    </contour>
  </outline>
</glyph>
<glyph name="uni01AD" format="2">
  <advance width="243"/>
  <unicode hex="01AD"/>
  <anchor x="122" y="0" name="bottom"/>
  <anchor x="122" y="761" name="top"/>
  <outline>
    <contour>
      <point x="176" y="-10" type="curve" smooth="yes"/>
      <point x="197" y="-10"/>
      <point x="217" y="-2"/>
      <point x="229" y="3" type="curve"/>
      <point x="229" y="13" type="line"/>
      <point x="210" y="7"/>
      <point x="200" y="5"/>
      <point x="190" y="5" type="curve" smooth="yes"/>
      <point x="155" y="5"/>
      <point x="136" y="29"/>
      <point x="136" y="115" type="curve" smooth="yes"/>
      <point x="136" y="526" type="line"/>
      <point x="221" y="526" type="line"/>
      <point x="221" y="536" type="line"/>
      <point x="136" y="536" type="line"/>
      <point x="136" y="619" type="line" smooth="yes"/>
      <point x="136" y="696"/>
      <point x="146" y="716"/>
      <point x="177" y="716" type="curve" smooth="yes"/>
      <point x="200" y="716"/>
      <point x="210" y="706"/>
      <point x="211" y="683" type="curve"/>
      <point x="224" y="685"/>
      <point x="233" y="697"/>
      <point x="233" y="716" type="curve" smooth="yes"/>
      <point x="233" y="739"/>
      <point x="223" y="760"/>
      <point x="190" y="760" type="curve" smooth="yes"/>
      <point x="141" y="760"/>
      <point x="131" y="713"/>
      <point x="128" y="639" type="curve" smooth="yes"/>
      <point x="124" y="568"/>
      <point x="87" y="536"/>
      <point x="13" y="536" type="curve"/>
      <point x="13" y="526" type="line"/>
      <point x="62" y="526" type="line"/>
      <point x="62" y="144" type="line" smooth="yes"/>
      <point x="62" y="26"/>
      <point x="98" y="-10"/>
    </contour>
  </outline>
</glyph>
<glyph name="uni01B9" format="2">
  <advance width="364"/>
  <unicode hex="01B9"/>
  <anchor x="182" y="-240" name="bottom"/>
  <anchor x="182" y="536" name="top"/>
  <outline>
    <contour>
      <point x="204" y="-240" type="curve" smooth="yes"/>
      <point x="295" y="-240"/>
      <point x="336" y="-181"/>
      <point x="336" y="-138" type="curve" smooth="yes"/>
      <point x="336" y="-115"/>
      <point x="322" y="-98"/>
      <point x="293" y="-97" type="curve"/>
      <point x="285" y="-177"/>
      <point x="270" y="-230"/>
      <point x="203" y="-230" type="curve" smooth="yes"/>
      <point x="138" y="-230"/>
      <point x="99" y="-172"/>
      <point x="99" y="-22" type="curve" smooth="yes"/>
      <point x="99" y="132"/>
      <point x="140" y="198"/>
      <point x="227" y="198" type="curve" smooth="yes"/>
      <point x="238" y="198" type="line"/>
      <point x="238" y="210" type="line"/>
      <point x="75" y="480" type="line"/>
      <point x="224" y="480" type="line" smooth="yes"/>
      <point x="285" y="480"/>
      <point x="299" y="461"/>
      <point x="303" y="398" type="curve" smooth="yes"/>
      <point x="303" y="394" type="line"/>
      <point x="312" y="394" type="line"/>
      <point x="302" y="535" type="line"/>
      <point x="45" y="535" type="line"/>
      <point x="45" y="507" type="line"/>
      <point x="226" y="208" type="line"/>
      <point x="102" y="209"/>
      <point x="26" y="146"/>
      <point x="26" y="-17" type="curve" smooth="yes"/>
      <point x="26" y="-165"/>
      <point x="94" y="-240"/>
    </contour>
  </outline>
</glyph>
<glyph name="uni01BD" format="2">
  <advance width="317"/>
  <unicode hex="01BD"/>
  <anchor x="158" y="0" name="bottom"/>
  <anchor x="158" y="536" name="top"/>
  <outline>
    <contour>
      <point x="152" y="-10" type="curve" smooth="yes"/>
      <point x="222" y="-10"/>
      <point x="283" y="57"/>
      <point x="283" y="153" type="curve" smooth="yes"/>
      <point x="283" y="254"/>
      <point x="230" y="310"/>
      <point x="137" y="310" type="curve" smooth="yes"/>
      <point x="136" y="310" type="line"/>
      <point x="136" y="526" type="line"/>
      <point x="177" y="526" type="line" smooth="yes"/>
      <point x="240" y="526"/>
      <point x="258" y="511"/>
      <point x="264" y="414" type="curve" smooth="yes"/>
      <point x="264" y="403" type="line"/>
      <point x="274" y="403" type="line"/>
      <point x="267" y="536" type="line"/>
      <point x="23" y="536" type="line"/>
      <point x="23" y="526" type="line"/>
      <point x="58" y="526"/>
      <point x="63" y="514"/>
      <point x="63" y="446" type="curve" smooth="yes"/>
      <point x="63" y="300" type="line"/>
      <point x="91" y="300" type="line" smooth="yes"/>
      <point x="183" y="300"/>
      <point x="211" y="260"/>
      <point x="211" y="150" type="curve" smooth="yes"/>
      <point x="211" y="47"/>
      <point x="192" y="0"/>
      <point x="143" y="0" type="curve" smooth="yes"/>
      <point x="85" y="0"/>
      <point x="64" y="46"/>
      <point x="64" y="157" type="curve"/>
      <point x="31" y="157"/>
      <point x="21" y="134"/>
      <point x="21" y="104" type="curve" smooth="yes"/>
      <point x="21" y="51"/>
      <point x="56" y="-10"/>
    </contour>
  </outline>
</glyph>
<glyph name="uni01BF" format="2">
  <advance width="405"/>
  <unicode hex="01BF"/>
  <anchor x="203" y="-240" name="bottom"/>
  <anchor x="203" y="536" name="top"/>
  <outline>
    <contour>
      <point x="11" y="-235" type="line"/>
      <point x="201" y="-235" type="line"/>
      <point x="201" y="-225" type="line"/>
      <point x="198" y="-225" type="line" smooth="yes"/>
      <point x="146" y="-225"/>
      <point x="140" y="-212"/>
      <point x="140" y="-146" type="curve" smooth="yes"/>
      <point x="140" y="-17" type="line"/>
      <point x="324" y="11"/>
      <point x="372" y="187"/>
      <point x="372" y="324" type="curve" smooth="yes"/>
      <point x="372" y="456"/>
      <point x="320" y="546"/>
      <point x="237" y="546" type="curve" smooth="yes"/>
      <point x="180" y="546"/>
      <point x="154" y="507"/>
      <point x="141" y="437" type="curve"/>
      <point x="139" y="437" type="line"/>
      <point x="139" y="536" type="line"/>
      <point x="11" y="536" type="line"/>
      <point x="11" y="526" type="line"/>
      <point x="6" y="526" type="line" smooth="yes"/>
      <point x="49" y="526"/>
      <point x="66" y="521"/>
      <point x="66" y="457" type="curve" smooth="yes"/>
      <point x="66" y="-146" type="line" smooth="yes"/>
      <point x="66" y="-212"/>
      <point x="60" y="-225"/>
      <point x="7" y="-225" type="curve" smooth="yes"/>
      <point x="11" y="-225" type="line"/>
    </contour>
    <contour>
      <point x="140" y="-7" type="curve"/>
      <point x="140" y="265" type="line" smooth="yes"/>
      <point x="140" y="447"/>
      <point x="168" y="536"/>
      <point x="218" y="536" type="curve" smooth="yes"/>
      <point x="266" y="536"/>
      <point x="295" y="462"/>
      <point x="295" y="322" type="curve" smooth="yes"/>
      <point x="295" y="141"/>
      <point x="291" y="10"/>
    </contour>
  </outline>
</glyph>
<glyph name="uni01C1" format="2">
  <advance width="361"/>
  <unicode hex="01C1"/>
  <anchor x="181" y="0" name="bottom"/>
  <anchor x="181" y="760" name="top"/>
  <outline>
    <contour>
      <point x="213" y="0" type="line"/>
      <point x="233" y="0" type="line"/>
      <point x="233" y="760" type="line"/>
      <point x="213" y="760" type="line"/>
    </contour>
    <contour>
      <point x="128" y="0" type="line"/>
      <point x="148" y="0" type="line"/>
      <point x="148" y="760" type="line"/>
      <point x="128" y="760" type="line"/>
    </contour>
  </outline>
</glyph>
<glyph name="uni01C2" format="2">
  <advance width="357"/>
  <unicode hex="01C2"/>
  <anchor x="180" y="0" name="bottom"/>
  <anchor x="180" y="760" name="top"/>
  <outline>
    <contour>
      <point x="170" y="0" type="line"/>
      <point x="190" y="0" type="line"/>
      <point x="190" y="306" type="line"/>
      <point x="312" y="306" type="line"/>
      <point x="312" y="326" type="line"/>
      <point x="190" y="326" type="line"/>
      <point x="190" y="438" type="line"/>
      <point x="312" y="438" type="line"/>
      <point x="312" y="458" type="line"/>
      <point x="190" y="458" type="line"/>
      <point x="190" y="760" type="line"/>
      <point x="170" y="760" type="line"/>
      <point x="170" y="458" type="line"/>
      <point x="45" y="458" type="line"/>
      <point x="45" y="438" type="line"/>
      <point x="170" y="438" type="line"/>
      <point x="170" y="326" type="line"/>
      <point x="45" y="326" type="line"/>
      <point x="45" y="306" type="line"/>
      <point x="170" y="306" type="line"/>
    </contour>
  </outline>
</glyph>
<glyph name="uni01E5" format="2">
  <advance width="354"/>
  <unicode hex="01E5"/>
  <anchor x="177" y="-242" name="bottom"/>
  <anchor x="177" y="536" name="top"/>
  <outline>
    <contour>
      <point x="158" y="-240" type="curve" smooth="yes"/>
      <point x="257" y="-240"/>
      <point x="316" y="-183"/>
      <point x="325" y="-90" type="curve"/>
      <point x="362" y="-90" type="line"/>
      <point x="362" y="-80" type="line"/>
      <point x="326" y="-80" type="line"/>
      <point x="328" y="-74"/>
      <point x="328" y="-67"/>
      <point x="328" y="-58" type="curve" smooth="yes"/>
      <point x="328" y="21"/>
      <point x="297" y="85"/>
      <point x="206" y="85" type="curve" smooth="yes"/>
      <point x="143" y="85" type="line" smooth="yes"/>
      <point x="117" y="85"/>
      <point x="94" y="103"/>
      <point x="94" y="140" type="curve" smooth="yes"/>
      <point x="94" y="161"/>
      <point x="102" y="179"/>
      <point x="120" y="201" type="curve"/>
      <point x="135" y="195"/>
      <point x="153" y="193"/>
      <point x="164" y="193" type="curve" smooth="yes"/>
      <point x="251" y="193"/>
      <point x="289" y="256"/>
      <point x="289" y="367" type="curve" smooth="yes"/>
      <point x="289" y="433"/>
      <point x="279" y="467"/>
      <point x="255" y="499" type="curve"/>
      <point x="259" y="520"/>
      <point x="266" y="530"/>
      <point x="281" y="530" type="curve" smooth="yes"/>
      <point x="301" y="530"/>
      <point x="308" y="513"/>
      <point x="308" y="470" type="curve"/>
      <point x="334" y="470"/>
      <point x="346" y="490"/>
      <point x="346" y="517" type="curve" smooth="yes"/>
      <point x="346" y="539"/>
      <point x="332" y="566"/>
      <point x="304" y="566" type="curve" smooth="yes"/>
      <point x="266" y="566"/>
      <point x="252" y="525"/>
      <point x="250" y="506" type="curve"/>
      <point x="228" y="532"/>
      <point x="199" y="545"/>
      <point x="167" y="545" type="curve" smooth="yes"/>
      <point x="82" y="545"/>
      <point x="38" y="494"/>
      <point x="38" y="352" type="curve" smooth="yes"/>
      <point x="38" y="274"/>
      <point x="74" y="222"/>
      <point x="112" y="204" type="curve"/>
      <point x="67" y="174"/>
      <point x="53" y="141"/>
      <point x="53" y="104" type="curve" smooth="yes"/>
      <point x="53" y="69"/>
      <point x="67" y="33"/>
      <point x="108" y="23" type="curve"/>
      <point x="32" y="-2"/>
      <point x="9" y="-46"/>
      <point x="9" y="-110" type="curve" smooth="yes"/>
      <point x="9" y="-195"/>
      <point x="62" y="-240"/>
    </contour>
    <contour>
      <point x="165" y="-230" type="curve" smooth="yes"/>
      <point x="113" y="-230"/>
      <point x="62" y="-198"/>
      <point x="62" y="-106" type="curve" smooth="yes"/>
      <point x="62" y="-30"/>
      <point x="100" y="22"/>
      <point x="146" y="22" type="curve" smooth="yes"/>
      <point x="185" y="22" type="line" smooth="yes"/>
      <point x="250" y="22"/>
      <point x="278" y="-9"/>
      <point x="280" y="-80" type="curve"/>
      <point x="159" y="-80" type="line"/>
      <point x="159" y="-90" type="line"/>
      <point x="279" y="-90" type="line"/>
      <point x="279" y="-177"/>
      <point x="251" y="-230"/>
    </contour>
    <contour>
      <point x="164" y="203" type="curve" smooth="yes"/>
      <point x="116" y="203"/>
      <point x="103" y="244"/>
      <point x="103" y="364" type="curve" smooth="yes"/>
      <point x="103" y="499"/>
      <point x="122" y="535"/>
      <point x="162" y="535" type="curve" smooth="yes"/>
      <point x="206" y="535"/>
      <point x="224" y="506"/>
      <point x="224" y="365" type="curve" smooth="yes"/>
      <point x="224" y="246"/>
      <point x="210" y="203"/>
    </contour>
  </outline>
</glyph>
<glyph name="uni021C" format="2">
  <advance width="377"/>
  <unicode hex="021C"/>
  <anchor x="167" y="-104" name="bottom"/>
  <anchor x="170" y="714" name="top"/>
  <outline>
    <contour>
      <point x="41" y="-160" type="line"/>
      <point x="201" y="-107"/>
      <point x="336" y="-7"/>
      <point x="336" y="178" type="curve" smooth="yes"/>
      <point x="336" y="264"/>
      <point x="306" y="343"/>
      <point x="191" y="369" type="curve"/>
      <point x="293" y="414"/>
      <point x="337" y="463"/>
      <point x="337" y="557" type="curve" smooth="yes"/>
      <point x="337" y="662"/>
      <point x="276" y="725"/>
      <point x="188" y="725" type="curve" smooth="yes"/>
      <point x="90" y="725"/>
      <point x="41" y="657"/>
      <point x="41" y="592" type="curve" smooth="yes"/>
      <point x="41" y="557"/>
      <point x="55" y="533"/>
      <point x="94" y="533" type="curve"/>
      <point x="94" y="671"/>
      <point x="121" y="714"/>
      <point x="182" y="714" type="curve" smooth="yes"/>
      <point x="229" y="714"/>
      <point x="255" y="670"/>
      <point x="255" y="551" type="curve" smooth="yes"/>
      <point x="255" y="418"/>
      <point x="222" y="393"/>
      <point x="122" y="344" type="curve"/>
      <point x="124" y="334" type="line"/>
      <point x="148" y="344"/>
      <point x="159" y="350"/>
      <point x="181" y="363" type="curve"/>
      <point x="240" y="316"/>
      <point x="249" y="256"/>
      <point x="249" y="176" type="curve" smooth="yes"/>
      <point x="249" y="-7"/>
      <point x="145" y="-101"/>
      <point x="41" y="-148" type="curve"/>
    </contour>
  </outline>
</glyph>
<glyph name="uni0222" format="2">
  <advance width="444"/>
  <unicode hex="0222"/>
  <anchor x="223" y="0" name="bottom"/>
  <anchor x="223" y="714" name="top"/>
  <outline>
    <contour>
      <point x="222" y="-10" type="curve" smooth="yes"/>
      <point x="337" y="-10"/>
      <point x="410" y="72"/>
      <point x="410" y="222" type="curve" smooth="yes"/>
      <point x="410" y="344"/>
      <point x="369" y="403"/>
      <point x="273" y="428" type="curve"/>
      <point x="357" y="454"/>
      <point x="380" y="529"/>
      <point x="380" y="591" type="curve" smooth="yes"/>
      <point x="380" y="661"/>
      <point x="348" y="724"/>
      <point x="289" y="724" type="curve"/>
      <point x="302" y="695"/>
      <point x="305" y="647"/>
      <point x="305" y="595" type="curve" smooth="yes"/>
      <point x="305" y="501"/>
      <point x="282" y="431"/>
      <point x="222" y="431" type="curve" smooth="yes"/>
      <point x="158" y="431"/>
      <point x="138" y="503"/>
      <point x="138" y="597" type="curve" smooth="yes"/>
      <point x="138" y="635"/>
      <point x="141" y="695"/>
      <point x="154" y="724" type="curve"/>
      <point x="113" y="724"/>
      <point x="64" y="683"/>
      <point x="64" y="591" type="curve" smooth="yes"/>
      <point x="64" y="530"/>
      <point x="87" y="454"/>
      <point x="174" y="427" type="curve"/>
      <point x="69" y="405"/>
      <point x="34" y="332"/>
      <point x="34" y="223" type="curve" smooth="yes"/>
      <point x="34" y="79"/>
      <point x="95" y="-10"/>
    </contour>
    <contour>
      <point x="227" y="0" type="curve" smooth="yes"/>
      <point x="147" y="0"/>
      <point x="112" y="72"/>
      <point x="112" y="223" type="curve" smooth="yes"/>
      <point x="112" y="356"/>
      <point x="141" y="421"/>
      <point x="223" y="421" type="curve" smooth="yes"/>
      <point x="302" y="421"/>
      <point x="331" y="355"/>
      <point x="331" y="222" type="curve" smooth="yes"/>
      <point x="331" y="66"/>
      <point x="291" y="0"/>
    </contour>
  </outline>
</glyph>
<glyph name="uni0236" format="2">
  <advance width="254"/>
  <unicode hex="0236"/>
  <anchor x="127" y="0" name="bottom"/>
  <anchor x="127" y="658" name="top"/>
  <outline>
    <contour>
      <point x="18" y="-25" type="line"/>
      <point x="28" y="36"/>
      <point x="37" y="94"/>
      <point x="67" y="138" type="curve"/>
      <point x="75" y="30"/>
      <point x="107" y="-10"/>
      <point x="152" y="-10" type="curve" smooth="yes"/>
      <point x="217" y="-10"/>
      <point x="244" y="35"/>
      <point x="244" y="110" type="curve" smooth="yes"/>
      <point x="244" y="176"/>
      <point x="213" y="219"/>
      <point x="163" y="219" type="curve" smooth="yes"/>
      <point x="152" y="219"/>
      <point x="143" y="216"/>
      <point x="136" y="215" type="curve"/>
      <point x="136" y="526" type="line"/>
      <point x="221" y="526" type="line"/>
      <point x="221" y="536" type="line"/>
      <point x="136" y="536" type="line"/>
      <point x="136" y="674" type="line"/>
      <point x="126" y="674" type="line"/>
      <point x="116" y="583"/>
      <point x="90" y="535"/>
      <point x="13" y="536" type="curve"/>
      <point x="13" y="526" type="line"/>
      <point x="62" y="526" type="line"/>
      <point x="62" y="196" type="line" smooth="yes"/>
      <point x="62" y="187"/>
      <point x="64" y="162"/>
      <point x="65" y="151" type="curve"/>
      <point x="40" y="115"/>
      <point x="20" y="55"/>
      <point x="8" y="-21" type="curve"/>
    </contour>
    <contour>
      <point x="185" y="14" type="curve" smooth="yes"/>
      <point x="147" y="14"/>
      <point x="136" y="47"/>
      <point x="136" y="202" type="curve"/>
      <point x="147" y="207"/>
      <point x="152" y="209"/>
      <point x="162" y="209" type="curve" smooth="yes"/>
      <point x="207" y="209"/>
      <point x="233" y="170"/>
      <point x="233" y="111" type="curve" smooth="yes"/>
      <point x="233" y="53"/>
      <point x="221" y="14"/>
    </contour>
  </outline>
</glyph>
<glyph name="uni0239" format="2">
  <advance width="603"/>
  <unicode hex="0239"/>
  <anchor x="302" y="-232" name="bottom"/>
  <anchor x="302" y="536" name="top"/>
  <outline>
    <contour>
      <point x="204" y="-232" type="line"/>
      <point x="395" y="-232" type="line"/>
      <point x="395" y="-226" type="line"/>
      <point x="403" y="-226" type="line" smooth="yes"/>
      <point x="346" y="-226"/>
      <point x="339" y="-215"/>
      <point x="339" y="-158" type="curve" smooth="yes"/>
      <point x="339" y="-35" type="line" smooth="yes"/>
      <point x="339" y="4"/>
      <point x="339" y="25"/>
      <point x="337" y="64" type="curve"/>
      <point x="339" y="64" type="line"/>
      <point x="356" y="18"/>
      <point x="374" y="-8"/>
      <point x="431" y="-8" type="curve" smooth="yes"/>
      <point x="508" y="-8"/>
      <point x="571" y="53"/>
      <point x="571" y="267" type="curve" smooth="yes"/>
      <point x="571" y="485"/>
      <point x="510" y="546"/>
      <point x="429" y="546" type="curve" smooth="yes"/>
      <point x="333" y="546"/>
      <point x="323" y="468"/>
      <point x="303" y="431" type="curve"/>
      <point x="288" y="460"/>
      <point x="288" y="546"/>
      <point x="179" y="546" type="curve" smooth="yes"/>
      <point x="95" y="546"/>
      <point x="33" y="477"/>
      <point x="33" y="266" type="curve" smooth="yes"/>
      <point x="33" y="72"/>
      <point x="82" y="-8"/>
      <point x="175" y="-8" type="curve" smooth="yes"/>
      <point x="223" y="-8"/>
      <point x="250" y="17"/>
      <point x="264" y="66" type="curve"/>
      <point x="266" y="66" type="line"/>
      <point x="265" y="25"/>
      <point x="265" y="-1"/>
      <point x="265" y="-36" type="curve" smooth="yes"/>
      <point x="265" y="-156" type="line" smooth="yes"/>
      <point x="265" y="-216"/>
      <point x="257" y="-226"/>
      <point x="200" y="-226" type="curve" smooth="yes"/>
      <point x="204" y="-226" type="line"/>
    </contour>
    <contour>
      <point x="185" y="8" type="curve" smooth="yes"/>
      <point x="124" y="8"/>
      <point x="106" y="73"/>
      <point x="106" y="259" type="curve" smooth="yes"/>
      <point x="106" y="481"/>
      <point x="135" y="535"/>
      <point x="188" y="535" type="curve" smooth="yes"/>
      <point x="236" y="535"/>
      <point x="265" y="489"/>
      <point x="265" y="255" type="curve" smooth="yes"/>
      <point x="265" y="79"/>
      <point x="243" y="8"/>
    </contour>
    <contour>
      <point x="422" y="2" type="curve" smooth="yes"/>
      <point x="362" y="2"/>
      <point x="339" y="68"/>
      <point x="339" y="255" type="curve" smooth="yes"/>
      <point x="339" y="480"/>
      <point x="374" y="535"/>
      <point x="419" y="535" type="curve" smooth="yes"/>
      <point x="468" y="535"/>
      <point x="497" y="488"/>
      <point x="497" y="259" type="curve" smooth="yes"/>
      <point x="497" y="41"/>
      <point x="475" y="2"/>
    </contour>
  </outline>
</glyph>
<glyph name="uni023A" format="2">
  <advance width="469"/>
  <unicode hex="023A"/>
  <anchor x="237" y="-80" name="bottom"/>
  <anchor x="237" y="714" name="top"/>
  <anchor x="382" y="714" name="topright"/>
  <outline>
    <contour>
      <point x="155" y="-80" type="line"/>
      <point x="164" y="-80" type="line"/>
      <point x="330" y="760" type="line"/>
      <point x="321" y="760" type="line"/>
    </contour>
    <component base="A"/>
  </outline>
</glyph>
<glyph name="uni023B" format="2">
  <advance width="412"/>
  <unicode hex="023B"/>
  <anchor x="244" y="-50" name="bottom"/>
  <anchor x="244" y="714" name="top"/>
  <anchor x="392" y="714" name="topright"/>
  <outline>
    <contour>
      <point x="145" y="-50" type="line"/>
      <point x="155" y="-50" type="line"/>
      <point x="325" y="760" type="line"/>
      <point x="315" y="760" type="line"/>
    </contour>
    <component base="C"/>
  </outline>
</glyph>
<glyph name="uni023D" format="2">
  <advance width="410"/>
  <unicode hex="023D"/>
  <anchor x="205" y="0" name="bottom"/>
  <anchor x="205" y="714" name="top"/>
  <anchor x="390" y="714" name="topright"/>
  <anchor x="205" y="357" name="center"/>
  <outline>
    <contour>
      <point x="23" y="367" type="line"/>
      <point x="256" y="367" type="line"/>
      <point x="256" y="377" type="line"/>
      <point x="23" y="377" type="line"/>
    </contour>
    <component base="L"/>
  </outline>
</glyph>
<glyph name="uni024A" format="2">
  <advance width="532"/>
  <unicode hex="024A"/>
  <anchor x="266" y="-240" name="bottom"/>
  <anchor x="266" y="714" name="top"/>
  <outline>
    <contour>
      <point x="478" y="-240" type="curve" smooth="yes"/>
      <point x="491" y="-240"/>
      <point x="516" y="-235"/>
      <point x="529" y="-225" type="curve"/>
      <point x="529" y="-215" type="line"/>
      <point x="515" y="-223"/>
      <point x="499" y="-228"/>
      <point x="491" y="-228" type="curve" smooth="yes"/>
      <point x="457" y="-228"/>
      <point x="441" y="-211"/>
      <point x="441" y="-140" type="curve" smooth="yes"/>
      <point x="441" y="627" type="line" smooth="yes"/>
      <point x="441" y="691"/>
      <point x="444" y="704"/>
      <point x="498" y="704" type="curve" smooth="yes"/>
      <point x="510" y="704" type="line"/>
      <point x="510" y="714" type="line"/>
      <point x="373" y="714" type="line"/>
      <point x="373" y="528" type="line"/>
      <point x="371" y="528" type="line"/>
      <point x="352" y="686"/>
      <point x="302" y="727"/>
      <point x="227" y="727" type="curve" smooth="yes"/>
      <point x="135" y="727"/>
      <point x="37" y="639"/>
      <point x="37" y="356" type="curve" smooth="yes"/>
      <point x="37" y="97"/>
      <point x="126" y="-9"/>
      <point x="230" y="-9" type="curve" smooth="yes"/>
      <point x="309" y="-9"/>
      <point x="364" y="43"/>
      <point x="374" y="213" type="curve"/>
      <point x="376" y="213" type="line"/>
      <point x="373" y="68"/>
      <point x="374" y="24"/>
      <point x="374" y="-30" type="curve" smooth="yes"/>
      <point x="374" y="-99" type="line" smooth="yes"/>
      <point x="374" y="-198"/>
      <point x="402" y="-240"/>
    </contour>
    <contour>
      <point x="241" y="6" type="curve" smooth="yes"/>
      <point x="180" y="6"/>
      <point x="114" y="111"/>
      <point x="114" y="355" type="curve" smooth="yes"/>
      <point x="114" y="632"/>
      <point x="186" y="714"/>
      <point x="249" y="714" type="curve" smooth="yes"/>
      <point x="325" y="714"/>
      <point x="370" y="606"/>
      <point x="370" y="358" type="curve" smooth="yes"/>
      <point x="370" y="153"/>
      <point x="355" y="6"/>
    </contour>
  </outline>
</glyph>
<glyph name="uni0263" format="2">
  <advance width="388"/>
  <unicode hex="0263"/>
  <anchor x="192" y="-240" name="bottom"/>
  <anchor x="184" y="536" name="top"/>
  <outline>
    <contour>
      <point x="188" y="-240" type="curve" smooth="yes"/>
      <point x="239" y="-240"/>
      <point x="267" y="-202"/>
      <point x="267" y="-130" type="curve" smooth="yes"/>
      <point x="267" y="-76"/>
      <point x="255" y="-11"/>
      <point x="219" y="95" type="curve"/>
      <point x="332" y="468" type="line" smooth="yes"/>
      <point x="349" y="522"/>
      <point x="358" y="526"/>
      <point x="376" y="526" type="curve" smooth="yes"/>
      <point x="388" y="526" type="line"/>
      <point x="388" y="536" type="line"/>
      <point x="245" y="536" type="line"/>
      <point x="245" y="526" type="line"/>
      <point x="282" y="526" type="line" smooth="yes"/>
      <point x="315" y="526"/>
      <point x="326" y="518"/>
      <point x="326" y="499" type="curve" smooth="yes"/>
      <point x="326" y="490"/>
      <point x="320" y="461"/>
      <point x="305" y="406" type="curve" smooth="yes"/>
      <point x="250" y="238" type="line" smooth="yes"/>
      <point x="236" y="184"/>
      <point x="223" y="139"/>
      <point x="214" y="111" type="curve"/>
      <point x="203" y="150"/>
      <point x="191" y="198"/>
      <point x="181" y="241" type="curve" smooth="yes"/>
      <point x="132" y="433" type="line" smooth="yes"/>
      <point x="126" y="457"/>
      <point x="119" y="491"/>
      <point x="119" y="504" type="curve" smooth="yes"/>
      <point x="119" y="524"/>
      <point x="135" y="526"/>
      <point x="155" y="526" type="curve" smooth="yes"/>
      <point x="176" y="526" type="line"/>
      <point x="176" y="536" type="line"/>
      <point x="2" y="536" type="line"/>
      <point x="2" y="526" type="line"/>
      <point x="27" y="526"/>
      <point x="34" y="516"/>
      <point x="45" y="477" type="curve" smooth="yes"/>
      <point x="163" y="36" type="line"/>
      <point x="127" y="-50"/>
      <point x="111" y="-110"/>
      <point x="111" y="-155" type="curve" smooth="yes"/>
      <point x="111" y="-206"/>
      <point x="131" y="-240"/>
    </contour>
    <contour>
      <point x="160" y="-226" type="curve" smooth="yes"/>
      <point x="139" y="-226"/>
      <point x="121" y="-200"/>
      <point x="121" y="-155" type="curve" smooth="yes"/>
      <point x="121" y="-114"/>
      <point x="133" y="-63"/>
      <point x="167" y="21" type="curve"/>
      <point x="188" y="-42"/>
      <point x="202" y="-96"/>
      <point x="202" y="-149" type="curve" smooth="yes"/>
      <point x="202" y="-202"/>
      <point x="184" y="-226"/>
    </contour>
  </outline>
</glyph>
<glyph name="uni0264" format="2">
  <advance width="397"/>
  <unicode hex="0264"/>
  <anchor x="198" y="0" name="bottom"/>
  <anchor x="198" y="536" name="top"/>
  <outline>
    <contour>
      <point x="185" y="-12" type="curve" smooth="yes"/>
      <point x="243" y="-12"/>
      <point x="272" y="27"/>
      <point x="272" y="109" type="curve" smooth="yes"/>
      <point x="272" y="163"/>
      <point x="258" y="244"/>
      <point x="217" y="345" type="curve"/>
      <point x="264" y="439"/>
      <point x="326" y="505"/>
      <point x="359" y="505" type="curve" smooth="yes"/>
      <point x="377" y="505"/>
      <point x="383" y="491"/>
      <point x="386" y="474" type="curve"/>
      <point x="391" y="475"/>
      <point x="397" y="486"/>
      <point x="397" y="502" type="curve" smooth="yes"/>
      <point x="397" y="530"/>
      <point x="383" y="545"/>
      <point x="363" y="545" type="curve" smooth="yes"/>
      <point x="316" y="545"/>
      <point x="274" y="482"/>
      <point x="212" y="358" type="curve"/>
      <point x="150" y="533"/>
      <point x="98" y="545"/>
      <point x="54" y="545" type="curve" smooth="yes"/>
      <point x="24" y="545"/>
      <point x="-5" y="531"/>
      <point x="-5" y="502" type="curve" smooth="yes"/>
      <point x="-5" y="489"/>
      <point x="-1" y="479"/>
      <point x="4" y="474" type="curve"/>
      <point x="7" y="488"/>
      <point x="10" y="500"/>
      <point x="32" y="500" type="curve" smooth="yes"/>
      <point x="71" y="500"/>
      <point x="129" y="429"/>
      <point x="170" y="289" type="curve"/>
      <point x="130" y="198"/>
      <point x="114" y="136"/>
      <point x="114" y="85" type="curve" smooth="yes"/>
      <point x="114" y="26"/>
      <point x="137" y="-12"/>
    </contour>
    <contour>
      <point x="169" y="4" type="curve" smooth="yes"/>
      <point x="143" y="4"/>
      <point x="123" y="36"/>
      <point x="123" y="91" type="curve" smooth="yes"/>
      <point x="123" y="141"/>
      <point x="140" y="195"/>
      <point x="175" y="274" type="curve"/>
      <point x="199" y="199"/>
      <point x="215" y="142"/>
      <point x="215" y="88" type="curve" smooth="yes"/>
      <point x="215" y="40"/>
      <point x="202" y="4"/>
    </contour>
  </outline>
</glyph>
<glyph name="uni0270" format="2">
  <advance width="620"/>
  <unicode hex="0270"/>
  <anchor x="317" y="-235" name="bottom"/>
  <anchor x="317" y="536" name="top"/>
  <outline>
    <contour>
      <point x="473" y="-242" type="line"/>
      <point x="590" y="-242" type="line"/>
      <point x="590" y="-232" type="line"/>
      <point x="602" y="-232" type="line" smooth="yes"/>
      <point x="556" y="-232"/>
      <point x="547" y="-227"/>
      <point x="547" y="-151" type="curve" smooth="yes"/>
      <point x="547" y="450" type="line" smooth="yes"/>
      <point x="547" y="518"/>
      <point x="557" y="526"/>
      <point x="602" y="526" type="curve" smooth="yes"/>
      <point x="604" y="526" type="line"/>
      <point x="604" y="536" type="line"/>
      <point x="421" y="536" type="line"/>
      <point x="421" y="526" type="line"/>
      <point x="417" y="526" type="line" smooth="yes"/>
      <point x="467" y="526"/>
      <point x="474" y="519"/>
      <point x="474" y="451" type="curve" smooth="yes"/>
      <point x="474" y="188" type="line" smooth="yes"/>
      <point x="474" y="86"/>
      <point x="451" y="12"/>
      <point x="399" y="12" type="curve" smooth="yes"/>
      <point x="360" y="12"/>
      <point x="344" y="50"/>
      <point x="344" y="163" type="curve" smooth="yes"/>
      <point x="344" y="536" type="line"/>
      <point x="223" y="536" type="line"/>
      <point x="223" y="526" type="line"/>
      <point x="221" y="526" type="line" smooth="yes"/>
      <point x="263" y="526"/>
      <point x="271" y="518"/>
      <point x="271" y="452" type="curve" smooth="yes"/>
      <point x="271" y="174" type="line" smooth="yes"/>
      <point x="271" y="78"/>
      <point x="254" y="13"/>
      <point x="200" y="13" type="curve" smooth="yes"/>
      <point x="155" y="13"/>
      <point x="140" y="60"/>
      <point x="140" y="163" type="curve" smooth="yes"/>
      <point x="140" y="536" type="line"/>
      <point x="16" y="536" type="line"/>
      <point x="16" y="526" type="line"/>
      <point x="15" y="526" type="line" smooth="yes"/>
      <point x="56" y="526"/>
      <point x="67" y="519"/>
      <point x="67" y="457" type="curve" smooth="yes"/>
      <point x="67" y="174" type="line" smooth="yes"/>
      <point x="67" y="47"/>
      <point x="107" y="-8"/>
      <point x="173" y="-9" type="curve" smooth="yes"/>
      <point x="221" y="-9"/>
      <point x="261" y="26"/>
      <point x="272" y="80" type="curve"/>
      <point x="274" y="80" type="line"/>
      <point x="294" y="16"/>
      <point x="325" y="-9"/>
      <point x="368" y="-9" type="curve" smooth="yes"/>
      <point x="427" y="-9"/>
      <point x="459" y="28"/>
      <point x="473" y="85" type="curve"/>
      <point x="475" y="85" type="line"/>
      <point x="473" y="43"/>
      <point x="473" y="16"/>
      <point x="473" y="-19" type="curve" smooth="yes"/>
    </contour>
  </outline>
</glyph>
<glyph name="uni0276" format="2">
  <advance width="524"/>
  <unicode hex="0276"/>
  <anchor x="262" y="0" name="bottom"/>
  <anchor x="262" y="536" name="top"/>
  <outline>
    <contour>
      <point x="181" y="-10" type="curve" smooth="yes"/>
      <point x="207" y="-10"/>
      <point x="224" y="-6"/>
      <point x="250" y="0" type="curve"/>
      <point x="497" y="0" type="line"/>
      <point x="501" y="160" type="line"/>
      <point x="491" y="160" type="line"/>
      <point x="490" y="129" type="line" smooth="yes"/>
      <point x="485" y="28"/>
      <point x="475" y="10"/>
      <point x="389" y="10" type="curve" smooth="yes"/>
      <point x="323" y="10" type="line"/>
      <point x="323" y="275" type="line"/>
      <point x="446" y="275" type="line"/>
      <point x="446" y="285" type="line"/>
      <point x="323" y="285" type="line"/>
      <point x="323" y="526" type="line"/>
      <point x="384" y="526" type="line" smooth="yes"/>
      <point x="457" y="526"/>
      <point x="471" y="516"/>
      <point x="473" y="419" type="curve" smooth="yes"/>
      <point x="472" y="377" type="line"/>
      <point x="482" y="377" type="line"/>
      <point x="482" y="536" type="line"/>
      <point x="252" y="536" type="line"/>
      <point x="233" y="539"/>
      <point x="216" y="542"/>
      <point x="193" y="542" type="curve" smooth="yes"/>
      <point x="70" y="542"/>
      <point x="33" y="447"/>
      <point x="33" y="269" type="curve" smooth="yes"/>
      <point x="33" y="102"/>
      <point x="59" y="-10"/>
    </contour>
    <contour>
      <point x="185" y="1" type="curve" smooth="yes"/>
      <point x="123" y="1"/>
      <point x="106" y="84"/>
      <point x="106" y="269" type="curve" smooth="yes"/>
      <point x="106" y="450"/>
      <point x="131" y="532"/>
      <point x="198" y="532" type="curve" smooth="yes"/>
      <point x="227" y="532"/>
      <point x="238" y="528"/>
      <point x="253" y="523" type="curve"/>
      <point x="253" y="15" type="line"/>
      <point x="235" y="8"/>
      <point x="214" y="1"/>
    </contour>
  </outline>
</glyph>
<glyph name="rlongleg" format="2">
  <advance width="318"/>
  <unicode hex="027C"/>
  <anchor x="159" y="-235" name="bottom"/>
  <anchor x="159" y="536" name="top"/>
  <outline>
    <contour>
      <point x="19" y="-235" type="line"/>
      <point x="214" y="-235" type="line"/>
      <point x="214" y="-225" type="line"/>
      <point x="221" y="-225" type="line" smooth="yes"/>
      <point x="156" y="-225"/>
      <point x="147" y="-213"/>
      <point x="147" y="-155" type="curve" smooth="yes"/>
      <point x="147" y="293" type="line" smooth="yes"/>
      <point x="147" y="450"/>
      <point x="177" y="521"/>
      <point x="219" y="521" type="curve" smooth="yes"/>
      <point x="245" y="521"/>
      <point x="250" y="497"/>
      <point x="250" y="414" type="curve"/>
      <point x="290" y="414"/>
      <point x="308" y="437"/>
      <point x="308" y="477" type="curve" smooth="yes"/>
      <point x="308" y="519"/>
      <point x="288" y="545"/>
      <point x="243" y="545" type="curve" smooth="yes"/>
      <point x="185" y="545"/>
      <point x="166" y="504"/>
      <point x="149" y="430" type="curve"/>
      <point x="147" y="430" type="line"/>
      <point x="148" y="536" type="line"/>
      <point x="19" y="536" type="line"/>
      <point x="19" y="526" type="line"/>
      <point x="15" y="526" type="line" smooth="yes"/>
      <point x="65" y="526"/>
      <point x="73" y="515"/>
      <point x="73" y="457" type="curve" smooth="yes"/>
      <point x="73" y="-156" type="line" smooth="yes"/>
      <point x="73" y="-213"/>
      <point x="67" y="-225"/>
      <point x="11" y="-225" type="curve" smooth="yes"/>
      <point x="19" y="-225" type="line"/>
    </contour>
  </outline>
</glyph>
<glyph name="uni027D" format="2">
  <advance width="319"/>
  <unicode hex="027D"/>
  <anchor x="159" y="-239" name="bottom"/>
  <anchor x="159" y="536" name="top"/>
  <outline>
    <contour>
      <point x="180" y="-239" type="curve" smooth="yes"/>
      <point x="207" y="-239"/>
      <point x="226" y="-233"/>
      <point x="241" y="-225" type="curve"/>
      <point x="241" y="-215" type="line"/>
      <point x="232" y="-221"/>
      <point x="215" y="-225"/>
      <point x="203" y="-225" type="curve" smooth="yes"/>
      <point x="166" y="-225"/>
      <point x="147" y="-194"/>
      <point x="147" y="-94" type="curve" smooth="yes"/>
      <point x="147" y="293" type="line" smooth="yes"/>
      <point x="147" y="450"/>
      <point x="177" y="521"/>
      <point x="219" y="521" type="curve" smooth="yes"/>
      <point x="245" y="521"/>
      <point x="250" y="497"/>
      <point x="250" y="414" type="curve"/>
      <point x="290" y="414"/>
      <point x="308" y="437"/>
      <point x="308" y="477" type="curve" smooth="yes"/>
      <point x="308" y="519"/>
      <point x="288" y="545"/>
      <point x="243" y="545" type="curve" smooth="yes"/>
      <point x="185" y="545"/>
      <point x="166" y="504"/>
      <point x="149" y="430" type="curve"/>
      <point x="147" y="430" type="line"/>
      <point x="148" y="536" type="line"/>
      <point x="19" y="536" type="line"/>
      <point x="19" y="526" type="line"/>
      <point x="15" y="526" type="line" smooth="yes"/>
      <point x="65" y="526"/>
      <point x="73" y="515"/>
      <point x="73" y="457" type="curve" smooth="yes"/>
      <point x="73" y="-86" type="line" smooth="yes"/>
      <point x="73" y="-198"/>
      <point x="107" y="-239"/>
    </contour>
  </outline>
</glyph>
<glyph name="uni0282" format="2">
  <advance width="300"/>
  <unicode hex="0282"/>
  <anchor x="152" y="-197" name="bottom"/>
  <anchor x="152" y="536" name="top"/>
  <outline>
    <contour>
      <point x="83" y="-198" type="curve" smooth="yes"/>
      <point x="121" y="-198"/>
      <point x="140" y="-175"/>
      <point x="140" y="-139" type="curve" smooth="yes"/>
      <point x="140" y="-122"/>
      <point x="134" y="-109"/>
      <point x="127" y="-105" type="curve"/>
      <point x="127" y="-132"/>
      <point x="108" y="-147"/>
      <point x="81" y="-147" type="curve" smooth="yes"/>
      <point x="42" y="-147"/>
      <point x="31" y="-127"/>
      <point x="31" y="-80" type="curve" smooth="yes"/>
      <point x="31" y="49" type="line"/>
      <point x="46" y="16"/>
      <point x="81" y="-10"/>
      <point x="144" y="-10" type="curve" smooth="yes"/>
      <point x="227" y="-10"/>
      <point x="274" y="45"/>
      <point x="274" y="140" type="curve" smooth="yes"/>
      <point x="274" y="241"/>
      <point x="211" y="276"/>
      <point x="173" y="303" type="curve" smooth="yes"/>
      <point x="111" y="345"/>
      <point x="88" y="371"/>
      <point x="88" y="437" type="curve" smooth="yes"/>
      <point x="88" y="500"/>
      <point x="118" y="533"/>
      <point x="157" y="533" type="curve" smooth="yes"/>
      <point x="203" y="533"/>
      <point x="219" y="487"/>
      <point x="219" y="398" type="curve"/>
      <point x="248" y="398"/>
      <point x="266" y="417"/>
      <point x="266" y="451" type="curve" smooth="yes"/>
      <point x="266" y="508"/>
      <point x="222" y="543"/>
      <point x="158" y="543" type="curve" smooth="yes"/>
      <point x="82" y="543"/>
      <point x="36" y="494"/>
      <point x="36" y="402" type="curve" smooth="yes"/>
      <point x="36" y="317"/>
      <point x="84" y="282"/>
      <point x="135" y="245" type="curve" smooth="yes"/>
      <point x="196" y="200"/>
      <point x="224" y="175"/>
      <point x="224" y="108" type="curve" smooth="yes"/>
      <point x="224" y="28"/>
      <point x="190" y="0"/>
      <point x="142" y="0" type="curve" smooth="yes"/>
      <point x="92" y="0"/>
      <point x="66" y="46"/>
      <point x="66" y="154" type="curve"/>
      <point x="45" y="154"/>
      <point x="21" y="139"/>
      <point x="21" y="96" type="curve" smooth="yes"/>
      <point x="21" y="-76" type="line" smooth="yes"/>
      <point x="21" y="-170"/>
      <point x="41" y="-198"/>
    </contour>
  </outline>
</glyph>
<glyph name="eshsquatreversed" format="2">
  <advance width="257"/>
  <unicode hex="0285"/>
  <anchor x="128" y="-240" name="bottom"/>
  <anchor x="128" y="536" name="top"/>
  <outline>
    <contour>
      <point x="211" y="-240" type="curve" smooth="yes"/>
      <point x="278" y="-240"/>
      <point x="304" y="-201"/>
      <point x="304" y="-163" type="curve" smooth="yes"/>
      <point x="304" y="-138"/>
      <point x="283" y="-122"/>
      <point x="250" y="-122" type="curve"/>
      <point x="250" y="-207"/>
      <point x="236" y="-230"/>
      <point x="210" y="-230" type="curve" smooth="yes"/>
      <point x="190" y="-230"/>
      <point x="166" y="-210"/>
      <point x="166" y="-128" type="curve" smooth="yes"/>
      <point x="166" y="397" type="line" smooth="yes"/>
      <point x="166" y="502"/>
      <point x="131" y="546"/>
      <point x="55" y="546" type="curve" smooth="yes"/>
      <point x="-11" y="546"/>
      <point x="-45" y="515"/>
      <point x="-45" y="473" type="curve" smooth="yes"/>
      <point x="-45" y="447"/>
      <point x="-24" y="430"/>
      <point x="9" y="430" type="curve"/>
      <point x="9" y="503"/>
      <point x="18" y="536"/>
      <point x="56" y="536" type="curve" smooth="yes"/>
      <point x="77" y="536"/>
      <point x="93" y="521"/>
      <point x="93" y="444" type="curve" smooth="yes"/>
      <point x="93" y="-76" type="line" smooth="yes"/>
      <point x="93" y="-188"/>
      <point x="128" y="-240"/>
    </contour>
  </outline>
</glyph>
<glyph name="eshcurl" format="2">
  <advance width="246"/>
  <unicode hex="0286"/>
  <anchor x="123" y="-240" name="bottom"/>
  <anchor x="123" y="763" name="top"/>
  <outline>
    <contour>
      <point x="50" y="-240" type="curve" smooth="yes"/>
      <point x="123" y="-240"/>
      <point x="146" y="-187"/>
      <point x="152" y="-53" type="curve"/>
      <point x="177" y="-81"/>
      <point x="202" y="-128"/>
      <point x="216" y="-175" type="curve"/>
      <point x="226" y="-172" type="line"/>
      <point x="210" y="-119"/>
      <point x="182" y="-67"/>
      <point x="153" y="-41" type="curve"/>
      <point x="153" y="-28"/>
      <point x="154" y="-10"/>
      <point x="154" y="7" type="curve" smooth="yes"/>
      <point x="154" y="601" type="line" smooth="yes"/>
      <point x="154" y="717"/>
      <point x="166" y="753"/>
      <point x="200" y="753" type="curve" smooth="yes"/>
      <point x="230" y="753"/>
      <point x="237" y="711"/>
      <point x="237" y="648" type="curve"/>
      <point x="287" y="648"/>
      <point x="291" y="674"/>
      <point x="291" y="692" type="curve" smooth="yes"/>
      <point x="291" y="741"/>
      <point x="245" y="763"/>
      <point x="204" y="763" type="curve" smooth="yes"/>
      <point x="101" y="763"/>
      <point x="81" y="690"/>
      <point x="81" y="553" type="curve" smooth="yes"/>
      <point x="81" y="-8" type="line"/>
      <point x="71" y="-5"/>
      <point x="59" y="-2"/>
      <point x="49" y="-2" type="curve" smooth="yes"/>
      <point x="-3" y="-2"/>
      <point x="-35" y="-44"/>
      <point x="-35" y="-117" type="curve" smooth="yes"/>
      <point x="-35" y="-192"/>
      <point x="-4" y="-240"/>
    </contour>
    <contour>
      <point x="35" y="-220" type="curve" smooth="yes"/>
      <point x="-3" y="-220"/>
      <point x="-24" y="-176"/>
      <point x="-24" y="-117" type="curve" smooth="yes"/>
      <point x="-24" y="-49"/>
      <point x="4" y="-12"/>
      <point x="52" y="-12" type="curve" smooth="yes"/>
      <point x="61" y="-12"/>
      <point x="70" y="-14"/>
      <point x="81" y="-19" type="curve"/>
      <point x="81" y="-73" type="line" smooth="yes"/>
      <point x="81" y="-176"/>
      <point x="75" y="-220"/>
    </contour>
  </outline>
</glyph>
<glyph name="uni0289" format="2">
  <advance width="419"/>
  <unicode hex="0289"/>
  <anchor x="209" y="0" name="bottom"/>
  <anchor x="209" y="536" name="top"/>
  <anchor x="399" y="536" name="topright"/>
  <outline>
    <contour>
      <point x="8" y="279" type="line"/>
      <point x="411" y="279" type="line"/>
      <point x="411" y="289" type="line"/>
      <point x="8" y="289" type="line"/>
    </contour>
    <component base="u"/>
  </outline>
</glyph>
<glyph name="uni0290" format="2">
  <advance width="335"/>
  <unicode hex="0290"/>
  <anchor x="166" y="-197" name="bottom"/>
  <anchor x="166" y="536" name="top"/>
  <outline>
    <contour>
      <point x="355" y="-200" type="curve" smooth="yes"/>
      <point x="393" y="-200"/>
      <point x="414" y="-178"/>
      <point x="414" y="-142" type="curve" smooth="yes"/>
      <point x="414" y="-124"/>
      <point x="409" y="-111"/>
      <point x="400" y="-108" type="curve"/>
      <point x="400" y="-132"/>
      <point x="382" y="-149"/>
      <point x="350" y="-149" type="curve" smooth="yes"/>
      <point x="310" y="-149"/>
      <point x="298" y="-130"/>
      <point x="298" y="-78" type="curve" smooth="yes"/>
      <point x="298" y="15" type="line"/>
      <point x="303" y="152" type="line"/>
      <point x="293" y="152" type="line"/>
      <point x="291" y="92" type="line" smooth="yes"/>
      <point x="288" y="27"/>
      <point x="267" y="13"/>
      <point x="197" y="13" type="curve" smooth="yes"/>
      <point x="93" y="13" type="line"/>
      <point x="291" y="515" type="line"/>
      <point x="291" y="536" type="line"/>
      <point x="40" y="536" type="line"/>
      <point x="30" y="406" type="line"/>
      <point x="40" y="406" type="line"/>
      <point x="43" y="433" type="line" smooth="yes"/>
      <point x="50" y="500"/>
      <point x="73" y="523"/>
      <point x="140" y="523" type="curve" smooth="yes"/>
      <point x="221" y="523" type="line"/>
      <point x="22" y="21" type="line"/>
      <point x="22" y="0" type="line"/>
      <point x="288" y="0" type="line"/>
      <point x="288" y="-76" type="line" smooth="yes"/>
      <point x="288" y="-162"/>
      <point x="305" y="-200"/>
    </contour>
  </outline>
</glyph>
<glyph name="uni029D" format="2">
  <advance width="208"/>
  <unicode hex="029D"/>
  <anchor x="104" y="-240" name="bottom"/>
  <anchor x="104" y="750" name="top"/>
  <outline>
    <contour>
      <point x="33" y="-240" type="curve" smooth="yes"/>
      <point x="116" y="-240"/>
      <point x="145" y="-181"/>
      <point x="145" y="-51" type="curve"/>
      <point x="212" y="-51" type="line"/>
      <point x="212" y="-41" type="line"/>
      <point x="145" y="-41" type="line"/>
      <point x="145" y="536" type="line"/>
      <point x="15" y="536" type="line"/>
      <point x="15" y="526" type="line"/>
      <point x="20" y="526" type="line" smooth="yes"/>
      <point x="58" y="526"/>
      <point x="71" y="514"/>
      <point x="71" y="454" type="curve" smooth="yes"/>
      <point x="71" y="-41" type="line"/>
      <point x="56" y="-41" type="line" smooth="yes"/>
      <point x="-6" y="-41"/>
      <point x="-42" y="-79"/>
      <point x="-42" y="-145" type="curve" smooth="yes"/>
      <point x="-42" y="-204"/>
      <point x="-12" y="-240"/>
    </contour>
    <contour>
      <point x="26" y="-226" type="curve" smooth="yes"/>
      <point x="-8" y="-226"/>
      <point x="-31" y="-194"/>
      <point x="-31" y="-146" type="curve" smooth="yes"/>
      <point x="-31" y="-86"/>
      <point x="-1" y="-51"/>
      <point x="54" y="-51" type="curve" smooth="yes"/>
      <point x="71" y="-51" type="line"/>
      <point x="71" y="-98" type="line" smooth="yes"/>
      <point x="71" y="-173"/>
      <point x="66" y="-226"/>
    </contour>
    <contour>
      <point x="104" y="646" type="curve" smooth="yes"/>
      <point x="129" y="646"/>
      <point x="145" y="664"/>
      <point x="145" y="698" type="curve" smooth="yes"/>
      <point x="145" y="733"/>
      <point x="129" y="750"/>
      <point x="104" y="750" type="curve" smooth="yes"/>
      <point x="79" y="750"/>
      <point x="65" y="733"/>
      <point x="65" y="698" type="curve" smooth="yes"/>
      <point x="65" y="664"/>
      <point x="79" y="646"/>
    </contour>
  </outline>
</glyph>
<glyph name="uni029F" format="2">
  <advance width="330"/>
  <unicode hex="029F"/>
  <anchor x="165" y="0" name="bottom"/>
  <anchor x="165" y="536" name="top"/>
  <outline>
    <contour>
      <point x="15" y="0" type="line"/>
      <point x="311" y="0" type="line"/>
      <point x="317" y="145" type="line"/>
      <point x="307" y="145" type="line"/>
      <point x="305" y="108" type="line" smooth="yes"/>
      <point x="300" y="26"/>
      <point x="284" y="10"/>
      <point x="209" y="10" type="curve" smooth="yes"/>
      <point x="146" y="10" type="line"/>
      <point x="146" y="442" type="line" smooth="yes"/>
      <point x="146" y="516"/>
      <point x="154" y="526"/>
      <point x="217" y="526" type="curve" smooth="yes"/>
      <point x="206" y="526" type="line"/>
      <point x="206" y="536" type="line"/>
      <point x="17" y="536" type="line"/>
      <point x="17" y="526" type="line"/>
      <point x="4" y="526" type="line" smooth="yes"/>
      <point x="64" y="526"/>
      <point x="73" y="513"/>
      <point x="73" y="442" type="curve" smooth="yes"/>
      <point x="73" y="94" type="line" smooth="yes"/>
      <point x="73" y="23"/>
      <point x="63" y="10"/>
      <point x="12" y="10" type="curve" smooth="yes"/>
      <point x="15" y="10" type="line"/>
    </contour>
  </outline>
</glyph>
<glyph name="qhook" format="2">
  <advance width="404"/>
  <unicode hex="02A0"/>
  <anchor x="203" y="-240" name="bottom"/>
  <anchor x="203" y="764" name="top"/>
  <outline>
    <contour>
      <point x="190" y="-235" type="line"/>
      <point x="393" y="-235" type="line"/>
      <point x="393" y="-225" type="line"/>
      <point x="393" y="-225" type="line" smooth="yes"/>
      <point x="342" y="-225"/>
      <point x="336" y="-212"/>
      <point x="336" y="-146" type="curve"/>
      <point x="336" y="625" type="line" smooth="yes"/>
      <point x="336" y="720"/>
      <point x="349" y="754"/>
      <point x="385" y="754" type="curve" smooth="yes"/>
      <point x="422" y="754"/>
      <point x="425" y="710"/>
      <point x="421" y="639" type="curve"/>
      <point x="463" y="639"/>
      <point x="474" y="663"/>
      <point x="474" y="690" type="curve" smooth="yes"/>
      <point x="474" y="721"/>
      <point x="460" y="764"/>
      <point x="384" y="764" type="curve" smooth="yes"/>
      <point x="295" y="764"/>
      <point x="262" y="707"/>
      <point x="262" y="584" type="curve" smooth="yes"/>
      <point x="262" y="549" type="line" smooth="yes"/>
      <point x="262" y="522"/>
      <point x="261" y="497"/>
      <point x="264" y="443" type="curve"/>
      <point x="262" y="443" type="line"/>
      <point x="249" y="518"/>
      <point x="223" y="545"/>
      <point x="166" y="545" type="curve" smooth="yes"/>
      <point x="93" y="545"/>
      <point x="34" y="478"/>
      <point x="34" y="266" type="curve" smooth="yes"/>
      <point x="34" y="58"/>
      <point x="86" y="-10"/>
      <point x="167" y="-10" type="curve" smooth="yes"/>
      <point x="217" y="-10"/>
      <point x="240" y="13"/>
      <point x="260" y="90" type="curve"/>
      <point x="262" y="90" type="line"/>
      <point x="263" y="38"/>
      <point x="263" y="22"/>
      <point x="263" y="-25" type="curve" smooth="yes"/>
      <point x="263" y="-146" type="line" smooth="yes"/>
      <point x="263" y="-212"/>
      <point x="257" y="-225"/>
      <point x="202" y="-225" type="curve" smooth="yes"/>
      <point x="190" y="-225" type="line"/>
    </contour>
    <contour>
      <point x="181" y="2" type="curve" smooth="yes"/>
      <point x="134" y="2"/>
      <point x="107" y="57"/>
      <point x="107" y="263" type="curve" smooth="yes"/>
      <point x="107" y="482"/>
      <point x="138" y="534"/>
      <point x="183" y="534" type="curve" smooth="yes"/>
      <point x="245" y="534"/>
      <point x="263" y="446"/>
      <point x="263" y="263" type="curve" smooth="yes"/>
      <point x="263" y="98"/>
      <point x="246" y="2"/>
    </contour>
  </outline>
</glyph>
<glyph name="uni02BE" format="2">
  <advance width="144"/>
  <unicode hex="02BE"/>
  <outline>
    <contour>
      <point x="30" y="556" type="line"/>
      <point x="73" y="556"/>
      <point x="114" y="595"/>
      <point x="114" y="665" type="curve" smooth="yes"/>
      <point x="114" y="733"/>
      <point x="73" y="772"/>
      <point x="30" y="772" type="curve"/>
      <point x="30" y="762" type="line"/>
      <point x="67" y="762"/>
      <point x="102" y="731"/>
      <point x="102" y="665" type="curve" smooth="yes"/>
      <point x="102" y="596"/>
      <point x="67" y="566"/>
      <point x="30" y="566" type="curve"/>
    </contour>
  </outline>
</glyph>
<glyph name="uni02C3" format="2">
  <advance width="186"/>
  <unicode hex="02C3"/>
  <outline>
    <contour>
      <point x="20" y="522" type="line"/>
      <point x="24" y="522" type="line"/>
      <point x="68" y="572"/>
      <point x="117" y="609"/>
      <point x="167" y="638" type="curve"/>
      <point x="167" y="671" type="line"/>
      <point x="127" y="695"/>
      <point x="64" y="738"/>
      <point x="24" y="789" type="curve"/>
      <point x="20" y="789" type="line"/>
      <point x="20" y="775" type="line"/>
      <point x="58" y="725"/>
      <point x="74" y="695"/>
      <point x="123" y="656" type="curve"/>
      <point x="74" y="617"/>
      <point x="58" y="588"/>
      <point x="20" y="536" type="curve"/>
    </contour>
  </outline>
</glyph>
<glyph name="uni02C4" format="2">
  <advance width="187"/>
  <unicode hex="02C4"/>
  <outline>
    <contour>
      <point x="0" y="573" type="line"/>
      <point x="13" y="573" type="line"/>
      <point x="52" y="635"/>
      <point x="67" y="665"/>
      <point x="94" y="727" type="curve"/>
      <point x="119" y="665"/>
      <point x="135" y="635"/>
      <point x="174" y="573" type="curve"/>
      <point x="188" y="573" type="line"/>
      <point x="188" y="577" type="line"/>
      <point x="159" y="632"/>
      <point x="133" y="702"/>
      <point x="109" y="785" type="curve"/>
      <point x="77" y="785" type="line"/>
      <point x="62" y="723"/>
      <point x="37" y="651"/>
      <point x="0" y="577" type="curve"/>
    </contour>
  </outline>
</glyph>
<glyph name="caron" format="2">
  <advance width="289"/>
  <unicode hex="02C7"/>
  <outline>
    <contour>
      <point x="121" y="606" type="curve"/>
      <point x="170" y="606" type="line"/>
      <point x="193" y="651"/>
      <point x="228" y="719"/>
      <point x="249" y="757" type="curve"/>
      <point x="249" y="766" type="line"/>
      <point x="244" y="766" type="line"/>
      <point x="216" y="728"/>
      <point x="178" y="686"/>
      <point x="145" y="644" type="curve"/>
      <point x="111" y="686"/>
      <point x="73" y="728"/>
      <point x="45" y="766" type="curve"/>
      <point x="40" y="766" type="line"/>
      <point x="40" y="757" type="line"/>
      <point x="61" y="719"/>
      <point x="96" y="651"/>
    </contour>
  </outline>
</glyph>
<glyph name="breve" format="2">
  <advance width="271"/>
  <unicode hex="02D8"/>
  <outline>
    <contour>
      <point x="137" y="606" type="curve" smooth="yes"/>
      <point x="208" y="606"/>
      <point x="233" y="668"/>
      <point x="231" y="736" type="curve"/>
      <point x="221" y="736" type="line"/>
      <point x="215" y="674"/>
      <point x="197" y="657"/>
      <point x="137" y="657" type="curve" smooth="yes"/>
      <point x="75" y="657"/>
      <point x="55" y="676"/>
      <point x="52" y="736" type="curve"/>
      <point x="40" y="736" type="line"/>
      <point x="38" y="667"/>
      <point x="64" y="606"/>
    </contour>
  </outline>
</glyph>
<glyph name="dotaccent" format="2">
  <advance width="160"/>
  <unicode hex="02D9"/>
  <outline>
    <contour>
      <point x="79" y="646" type="curve" smooth="yes"/>
      <point x="105" y="646"/>
      <point x="120" y="663"/>
      <point x="120" y="698" type="curve" smooth="yes"/>
      <point x="120" y="734"/>
      <point x="105" y="750"/>
      <point x="79" y="750" type="curve" smooth="yes"/>
      <point x="55" y="750"/>
      <point x="40" y="734"/>
      <point x="40" y="698" type="curve" smooth="yes"/>
      <point x="40" y="663"/>
      <point x="55" y="646"/>
    </contour>
  </outline>
</glyph>
<glyph name="rhotichookmod" format="2">
  <advance width="159"/>
  <unicode hex="02DE"/>
  <outline>
    <contour>
      <point x="99" y="190" type="curve" smooth="yes"/>
      <point x="135" y="190"/>
      <point x="159" y="214"/>
      <point x="159" y="244" type="curve" smooth="yes"/>
      <point x="159" y="254"/>
      <point x="153" y="273"/>
      <point x="142" y="277" type="curve"/>
      <point x="138" y="254"/>
      <point x="113" y="236"/>
      <point x="87" y="236" type="curve" smooth="yes"/>
      <point x="71" y="236"/>
      <point x="49" y="245"/>
      <point x="33" y="307" type="curve" smooth="yes"/>
      <point x="12" y="378" type="line"/>
      <point x="-89" y="344" type="line"/>
      <point x="-87" y="333" type="line"/>
      <point x="6" y="366" type="line"/>
      <point x="26" y="302" type="line" smooth="yes"/>
      <point x="49" y="218"/>
      <point x="64" y="190"/>
    </contour>
  </outline>
</glyph>
<glyph name="uni02F1" format="2">
  <advance width="227"/>
  <unicode hex="02F1"/>
  <outline>
    <contour>
      <point x="183" y="-245" type="curve"/>
      <point x="187" y="-245" type="line"/>
      <point x="187" y="-231" type="line"/>
      <point x="149" y="-180"/>
      <point x="133" y="-150"/>
      <point x="84" y="-111" type="curve"/>
      <point x="133" y="-73"/>
      <point x="149" y="-42"/>
      <point x="187" y="7" type="curve"/>
      <point x="187" y="21" type="line"/>
      <point x="183" y="21" type="line"/>
      <point x="142" y="-30"/>
      <point x="80" y="-73"/>
      <point x="40" y="-96" type="curve"/>
      <point x="40" y="-130" type="line"/>
      <point x="90" y="-159"/>
      <point x="140" y="-196"/>
    </contour>
  </outline>
</glyph>
<glyph name="uni02F7" format="2">
  <advance width="322"/>
  <unicode hex="02F7"/>
  <outline>
    <contour>
      <point x="208" y="-194" type="curve" smooth="yes"/>
      <point x="254" y="-194"/>
      <point x="272" y="-136"/>
      <point x="282" y="-81" type="curve"/>
      <point x="272" y="-81" type="line"/>
      <point x="261" y="-111"/>
      <point x="264" y="-145"/>
      <point x="233" y="-145" type="curve" smooth="yes"/>
      <point x="173" y="-145"/>
      <point x="161" y="-70"/>
      <point x="111" y="-70" type="curve" smooth="yes"/>
      <point x="64" y="-70"/>
      <point x="49" y="-133"/>
      <point x="40" y="-181" type="curve"/>
      <point x="50" y="-181" type="line"/>
      <point x="59" y="-143"/>
      <point x="63" y="-120"/>
      <point x="85" y="-120" type="curve" smooth="yes"/>
      <point x="140" y="-120"/>
      <point x="153" y="-194"/>
    </contour>
  </outline>
</glyph>
<glyph name="dblgravecomb" format="2">
  <unicode hex="030F"/>
  <anchor x="-195" y="536" name="_top"/>
  <anchor x="-202" y="766" name="top"/>
  <outline>
    <contour>
      <point x="-240" y="606" type="curve"/>
      <point x="-235" y="606" type="line"/>
      <point x="-233" y="617" type="line"/>
      <point x="-252" y="662"/>
      <point x="-274" y="721"/>
      <point x="-288" y="766" type="curve"/>
      <point x="-342" y="766" type="line"/>
      <point x="-344" y="756" type="line"/>
      <point x="-320" y="716"/>
      <point x="-276" y="655"/>
    </contour>
    <contour>
      <point x="-106" y="606" type="curve"/>
      <point x="-101" y="606" type="line"/>
      <point x="-99" y="617" type="line"/>
      <point x="-118" y="662"/>
      <point x="-141" y="721"/>
      <point x="-155" y="766" type="curve"/>
      <point x="-209" y="766" type="line"/>
      <point x="-211" y="756" type="line"/>
      <point x="-187" y="716"/>
      <point x="-142" y="655"/>
    </contour>
  </outline>
</glyph>
<glyph name="cedillacomb" format="2">
  <unicode hex="0327"/>
  <anchor x="0" y="0" name="_bottom"/>
  <anchor x="0" y="-230" name="bottom"/>
  <outline>
    <contour>
      <point x="-20" y="-227" type="curve" smooth="yes"/>
      <point x="40" y="-227"/>
      <point x="70" y="-188"/>
      <point x="70" y="-140" type="curve" smooth="yes"/>
      <point x="70" y="-96"/>
      <point x="50" y="-62"/>
      <point x="-6" y="-55" type="curve"/>
      <point x="4" y="6" type="line"/>
      <point x="-5" y="6" type="line"/>
      <point x="-16" y="-59" type="line"/>
      <point x="10" y="-63"/>
      <point x="21" y="-84"/>
      <point x="21" y="-133" type="curve" smooth="yes"/>
      <point x="21" y="-186"/>
      <point x="0" y="-216"/>
      <point x="-35" y="-216" type="curve" smooth="yes"/>
      <point x="-44" y="-216"/>
      <point x="-56" y="-213"/>
      <point x="-70" y="-207" type="curve"/>
      <point x="-70" y="-217" type="line"/>
      <point x="-53" y="-224"/>
      <point x="-40" y="-227"/>
    </contour>
  </outline>
</glyph>
<glyph name="dblarchinvertedbelowcomb" format="2">
  <unicode hex="032B"/>
  <anchor x="-1" y="0" name="_bottom"/>
  <anchor x="-1" y="-183" name="bottom"/>
  <outline>
    <contour>
      <point x="-52" y="-183" type="curve" smooth="yes"/>
      <point x="-22" y="-183"/>
      <point x="-6" y="-162"/>
      <point x="0" y="-119" type="curve"/>
      <point x="6" y="-162"/>
      <point x="22" y="-183"/>
      <point x="53" y="-183" type="curve" smooth="yes"/>
      <point x="87" y="-183"/>
      <point x="103" y="-147"/>
      <point x="103" y="-65" type="curve"/>
      <point x="93" y="-65" type="line"/>
      <point x="93" y="-126"/>
      <point x="81" y="-155"/>
      <point x="52" y="-155" type="curve" smooth="yes"/>
      <point x="20" y="-155"/>
      <point x="5" y="-124"/>
      <point x="4" y="-65" type="curve"/>
      <point x="-5" y="-65" type="line"/>
      <point x="-5" y="-124"/>
      <point x="-20" y="-155"/>
      <point x="-53" y="-155" type="curve" smooth="yes"/>
      <point x="-81" y="-155"/>
      <point x="-94" y="-126"/>
      <point x="-94" y="-65" type="curve"/>
      <point x="-104" y="-65" type="line"/>
      <point x="-105" y="-147"/>
      <point x="-88" y="-183"/>
    </contour>
  </outline>
</glyph>
<glyph name="lowlinecomb" format="2">
  <unicode hex="0332"/>
  <anchor x="1" y="0" name="_bottom"/>
  <anchor x="1" y="-127" name="bottom"/>
  <outline>
    <contour>
      <point x="-136" y="-113" type="line"/>
      <point x="137" y="-113" type="line"/>
      <point x="137" y="-93" type="line"/>
      <point x="-136" y="-93" type="line"/>
    </contour>
  </outline>
</glyph>
<glyph name="nottildeabovecomb" format="2">
  <unicode hex="034A"/>
  <anchor x="0" y="536" name="_top"/>
  <anchor x="0" y="759" name="top"/>
  <outline>
    <contour>
      <point x="-32" y="577" type="line"/>
      <point x="-9" y="636" type="line"/>
      <point x="10" y="617"/>
      <point x="27" y="603"/>
      <point x="51" y="603" type="curve" smooth="yes"/>
      <point x="94" y="603"/>
      <point x="120" y="658"/>
      <point x="122" y="711" type="curve"/>
      <point x="113" y="711" type="line"/>
      <point x="112" y="691"/>
      <point x="107" y="651"/>
      <point x="66" y="651" type="curve" smooth="yes"/>
      <point x="41" y="651"/>
      <point x="31" y="663"/>
      <point x="11" y="680" type="curve"/>
      <point x="38" y="745" type="line"/>
      <point x="29" y="749" type="line"/>
      <point x="4" y="688" type="line"/>
      <point x="-17" y="709"/>
      <point x="-33" y="721"/>
      <point x="-55" y="721" type="curve" smooth="yes"/>
      <point x="-101" y="721"/>
      <point x="-122" y="660"/>
      <point x="-123" y="616" type="curve"/>
      <point x="-113" y="616" type="line"/>
      <point x="-113" y="640"/>
      <point x="-106" y="674"/>
      <point x="-71" y="674" type="curve" smooth="yes"/>
      <point x="-48" y="674"/>
      <point x="-38" y="663"/>
      <point x="-17" y="643" type="curve"/>
      <point x="-41" y="581" type="line"/>
    </contour>
  </outline>
</glyph>
<glyph name="homotheticabovecomb" format="2">
  <unicode hex="034B"/>
  <anchor x="-3" y="536" name="_top"/>
  <anchor x="-3" y="860" name="top"/>
  <outline>
    <contour>
      <point x="-125" y="702" type="curve"/>
      <point x="-115" y="702" type="line"/>
      <point x="-115" y="742"/>
      <point x="-98" y="757"/>
      <point x="-74" y="757" type="curve" smooth="yes"/>
      <point x="-18" y="757"/>
      <point x="-10" y="701"/>
      <point x="46" y="701" type="curve" smooth="yes"/>
      <point x="100" y="701"/>
      <point x="118" y="755"/>
      <point x="120" y="805" type="curve"/>
      <point x="111" y="805" type="line"/>
      <point x="110" y="767"/>
      <point x="93" y="748"/>
      <point x="66" y="748" type="curve" smooth="yes"/>
      <point x="6" y="748"/>
      <point x="-4" y="805"/>
      <point x="-55" y="805" type="curve" smooth="yes"/>
      <point x="-102" y="805"/>
      <point x="-122" y="757"/>
    </contour>
    <contour>
      <point x="-1" y="568" type="curve" smooth="yes"/>
      <point x="21" y="568"/>
      <point x="32" y="582"/>
      <point x="32" y="612" type="curve" smooth="yes"/>
      <point x="32" y="644"/>
      <point x="21" y="658"/>
      <point x="-1" y="658" type="curve" smooth="yes"/>
      <point x="-22" y="658"/>
      <point x="-34" y="644"/>
      <point x="-34" y="612" type="curve" smooth="yes"/>
      <point x="-34" y="582"/>
      <point x="-22" y="568"/>
    </contour>
    <contour>
      <point x="-1" y="833" type="curve" smooth="yes"/>
      <point x="21" y="833"/>
      <point x="32" y="847"/>
      <point x="32" y="877" type="curve" smooth="yes"/>
      <point x="32" y="909"/>
      <point x="21" y="923"/>
      <point x="-1" y="923" type="curve" smooth="yes"/>
      <point x="-22" y="923"/>
      <point x="-34" y="909"/>
      <point x="-34" y="877" type="curve" smooth="yes"/>
      <point x="-34" y="847"/>
      <point x="-22" y="833"/>
    </contour>
  </outline>
</glyph>
<glyph name="fermatacomb" format="2">
  <unicode hex="0352"/>
  <anchor x="-2" y="536" name="_top"/>
  <anchor x="-2" y="829" name="top"/>
  <outline>
    <contour>
      <point x="-104" y="706" type="curve"/>
      <point x="-94" y="706" type="line"/>
      <point x="-85" y="762"/>
      <point x="-65" y="785"/>
      <point x="0" y="785" type="curve" smooth="yes"/>
      <point x="62" y="785"/>
      <point x="82" y="764"/>
      <point x="90" y="706" type="curve"/>
      <point x="100" y="706" type="line"/>
      <point x="103" y="778"/>
      <point x="64" y="829"/>
      <point x="0" y="829" type="curve" smooth="yes"/>
      <point x="-67" y="829"/>
      <point x="-105" y="779"/>
    </contour>
    <contour>
      <point x="1" y="612" type="curve" smooth="yes"/>
      <point x="26" y="612"/>
      <point x="40" y="626"/>
      <point x="40" y="658" type="curve" smooth="yes"/>
      <point x="40" y="690"/>
      <point x="26" y="706"/>
      <point x="1" y="706" type="curve" smooth="yes"/>
      <point x="-25" y="706"/>
      <point x="-38" y="690"/>
      <point x="-38" y="658" type="curve" smooth="yes"/>
      <point x="-38" y="626"/>
      <point x="-25" y="612"/>
    </contour>
  </outline>
</glyph>
<glyph name="arrowheadrightheadupbelowcomb" format="2">
  <unicode hex="0356"/>
  <anchor x="0" y="0" name="_bottom"/>
  <anchor x="0" y="-240" name="bottom"/>
  <outline>
    <contour>
      <point x="-28" y="-240" type="line"/>
      <point x="-13" y="-240" type="line"/>
      <point x="4" y="-213"/>
      <point x="34" y="-168"/>
      <point x="58" y="-89" type="curve"/>
      <point x="83" y="-168"/>
      <point x="113" y="-213"/>
      <point x="130" y="-240" type="curve"/>
      <point x="146" y="-240" type="line"/>
      <point x="146" y="-235" type="line"/>
      <point x="112" y="-179"/>
      <point x="88" y="-132"/>
      <point x="67" y="-57" type="curve"/>
      <point x="51" y="-57" type="line"/>
      <point x="29" y="-131"/>
      <point x="5" y="-179"/>
      <point x="-28" y="-235" type="curve"/>
    </contour>
    <contour>
      <point x="-154" y="-240" type="line"/>
      <point x="-149" y="-240" type="line"/>
      <point x="-103" y="-200"/>
      <point x="-65" y="-171"/>
      <point x="-2" y="-146" type="curve"/>
      <point x="-2" y="-127" type="line"/>
      <point x="-65" y="-102"/>
      <point x="-103" y="-73"/>
      <point x="-149" y="-33" type="curve"/>
      <point x="-154" y="-33" type="line"/>
      <point x="-154" y="-55" type="line"/>
      <point x="-136" y="-72"/>
      <point x="-94" y="-107"/>
      <point x="-28" y="-136" type="curve"/>
      <point x="-94" y="-166"/>
      <point x="-136" y="-201"/>
      <point x="-154" y="-218" type="curve"/>
    </contour>
  </outline>
</glyph>
<glyph name="righthalfringabovecomb" format="2">
  <unicode hex="0357"/>
  <anchor x="2" y="536" name="_top"/>
  <anchor x="2" y="814" name="top"/>
  <outline>
    <contour>
      <point x="-44" y="589" type="line"/>
      <point x="8" y="589"/>
      <point x="45" y="630"/>
      <point x="45" y="702" type="curve" smooth="yes"/>
      <point x="45" y="774"/>
      <point x="8" y="814"/>
      <point x="-44" y="814" type="curve"/>
      <point x="-44" y="804" type="line"/>
      <point x="-5" y="801"/>
      <point x="23" y="776"/>
      <point x="23" y="702" type="curve" smooth="yes"/>
      <point x="23" y="627"/>
      <point x="-5" y="602"/>
      <point x="-44" y="599" type="curve"/>
    </contour>
  </outline>
</glyph>
<glyph name="asteriskbelowcomb" format="2">
  <unicode hex="0359"/>
  <anchor x="-6" y="0" name="_bottom"/>
  <anchor x="1" y="-240" name="bottom"/>
  <outline>
    <contour>
      <point x="-20" y="-240" type="line"/>
      <point x="12" y="-240" type="line"/>
      <point x="2" y="-146" type="line"/>
      <point x="60" y="-200" type="line"/>
      <point x="72" y="-170" type="line"/>
      <point x="4" y="-135" type="line"/>
      <point x="73" y="-101" type="line"/>
      <point x="61" y="-71" type="line"/>
      <point x="2" y="-123" type="line"/>
      <point x="14" y="-30" type="line"/>
      <point x="-18" y="-30" type="line"/>
      <point x="-7" y="-123" type="line"/>
      <point x="-64" y="-70" type="line"/>
      <point x="-78" y="-100" type="line"/>
      <point x="-11" y="-135" type="line"/>
      <point x="-79" y="-169" type="line"/>
      <point x="-66" y="-199" type="line"/>
      <point x="-7" y="-146" type="line"/>
    </contour>
  </outline>
</glyph>
<glyph name="doubleringbelowcomb" format="2">
  <unicode hex="035A"/>
  <anchor x="0" y="32" name="_bottom"/>
  <anchor x="0" y="-257" name="bottom"/>
  <outline>
    <contour>
      <point x="-80" y="-257" type="curve" smooth="yes"/>
      <point x="-41" y="-257"/>
      <point x="-13" y="-236"/>
      <point x="0" y="-196" type="curve"/>
      <point x="13" y="-236"/>
      <point x="41" y="-257"/>
      <point x="80" y="-257" type="curve" smooth="yes"/>
      <point x="133" y="-257"/>
      <point x="165" y="-214"/>
      <point x="165" y="-142" type="curve" smooth="yes"/>
      <point x="165" y="-70"/>
      <point x="133" y="-27"/>
      <point x="80" y="-27" type="curve" smooth="yes"/>
      <point x="41" y="-27"/>
      <point x="13" y="-48"/>
      <point x="0" y="-87" type="curve"/>
      <point x="-13" y="-48"/>
      <point x="-41" y="-27"/>
      <point x="-80" y="-27" type="curve" smooth="yes"/>
      <point x="-133" y="-27"/>
      <point x="-165" y="-70"/>
      <point x="-165" y="-142" type="curve" smooth="yes"/>
      <point x="-165" y="-214"/>
      <point x="-133" y="-257"/>
    </contour>
    <contour>
      <point x="-80" y="-243" type="curve" smooth="yes"/>
      <point x="-126" y="-243"/>
      <point x="-155" y="-204"/>
      <point x="-155" y="-142" type="curve" smooth="yes"/>
      <point x="-155" y="-80"/>
      <point x="-126" y="-40"/>
      <point x="-80" y="-40" type="curve" smooth="yes"/>
      <point x="-36" y="-40"/>
      <point x="-7" y="-80"/>
      <point x="-7" y="-142" type="curve" smooth="yes"/>
      <point x="-7" y="-204"/>
      <point x="-36" y="-243"/>
    </contour>
    <contour>
      <point x="84" y="-243" type="curve" smooth="yes"/>
      <point x="36" y="-243"/>
      <point x="7" y="-204"/>
      <point x="7" y="-142" type="curve" smooth="yes"/>
      <point x="7" y="-80"/>
      <point x="36" y="-40"/>
      <point x="84" y="-40" type="curve" smooth="yes"/>
      <point x="126" y="-40"/>
      <point x="155" y="-80"/>
      <point x="155" y="-142" type="curve" smooth="yes"/>
      <point x="155" y="-204"/>
      <point x="126" y="-243"/>
    </contour>
  </outline>
</glyph>
<glyph name="arrowdoublerightbelowcomb" format="2">
  <unicode hex="0362"/>
  <anchor x="-1" y="0" name="_bottom"/>
  <anchor x="-1" y="-218" name="bottom"/>
  <outline>
    <contour>
      <point x="85" y="-177" type="line"/>
      <point x="175" y="-127" type="line"/>
      <point x="85" y="-77" type="line"/>
      <point x="85" y="-117" type="line"/>
      <point x="-177" y="-117" type="line"/>
      <point x="-177" y="-137" type="line"/>
      <point x="85" y="-137" type="line"/>
    </contour>
  </outline>
</glyph>
<glyph name="heta" format="2">
  <advance width="325"/>
  <unicode hex="0371"/>
  <anchor x="163" y="0" name="bottom"/>
  <anchor x="163" y="536" name="top"/>
  <outline>
    <contour>
      <point x="75" y="0" type="line"/>
      <point x="148" y="0" type="line"/>
      <point x="148" y="270" type="line"/>
      <point x="287" y="270" type="line"/>
      <point x="287" y="280" type="line"/>
      <point x="148" y="280" type="line"/>
      <point x="148" y="536" type="line"/>
      <point x="8" y="536" type="line"/>
      <point x="8" y="526" type="line"/>
      <point x="11" y="526" type="line" smooth="yes"/>
      <point x="62" y="526"/>
      <point x="75" y="517"/>
      <point x="75" y="451" type="curve" smooth="yes"/>
    </contour>
  </outline>
</glyph>
<glyph name="uni0375" format="2">
  <advance width="117"/>
  <unicode hex="0375"/>
  <outline>
    <contour>
      <point x="18" y="-240" type="line"/>
      <point x="64" y="-240" type="line"/>
      <point x="71" y="-185"/>
      <point x="83" y="-138"/>
      <point x="99" y="-84" type="curve"/>
      <point x="99" y="-71" type="line"/>
      <point x="92" y="-71" type="line"/>
      <point x="62" y="-121"/>
      <point x="30" y="-184"/>
      <point x="18" y="-231" type="curve"/>
    </contour>
  </outline>
</glyph>
<glyph name="dieresistonos" format="2">
  <advance width="373"/>
  <unicode hex="0385"/>
  <anchor x="188" y="536" name="_top"/>
  <outline>
    <contour>
      <point x="179" y="674" type="line"/>
      <point x="186" y="674" type="line"/>
      <point x="201" y="714"/>
      <point x="230" y="780"/>
      <point x="240" y="825" type="curve"/>
      <point x="240" y="834" type="line"/>
      <point x="201" y="834" type="line"/>
      <point x="200" y="794"/>
      <point x="186" y="723"/>
      <point x="179" y="687" type="curve"/>
    </contour>
    <contour>
      <point x="113" y="634" type="curve" smooth="yes"/>
      <point x="131" y="634"/>
      <point x="145" y="652"/>
      <point x="145" y="676" type="curve" smooth="yes"/>
      <point x="145" y="702"/>
      <point x="131" y="718"/>
      <point x="113" y="718" type="curve" smooth="yes"/>
      <point x="95" y="718"/>
      <point x="83" y="702"/>
      <point x="83" y="676" type="curve" smooth="yes"/>
      <point x="83" y="652"/>
      <point x="95" y="634"/>
    </contour>
    <contour>
      <point x="259" y="634" type="curve" smooth="yes"/>
      <point x="279" y="634"/>
      <point x="292" y="652"/>
      <point x="292" y="676" type="curve" smooth="yes"/>
      <point x="292" y="702"/>
      <point x="279" y="718"/>
      <point x="259" y="718" type="curve" smooth="yes"/>
      <point x="242" y="718"/>
      <point x="229" y="702"/>
      <point x="229" y="676" type="curve" smooth="yes"/>
      <point x="229" y="652"/>
      <point x="242" y="634"/>
    </contour>
  </outline>
</glyph>
<glyph name="Delta" format="2">
  <advance width="418"/>
  <unicode hex="0394"/>
  <anchor x="199" y="0" name="bottom"/>
  <anchor x="199" y="714" name="top"/>
  <outline>
    <contour>
      <point x="14" y="0" type="line"/>
      <point x="394" y="0" type="line"/>
      <point x="394" y="30" type="line"/>
      <point x="219" y="714" type="line"/>
      <point x="191" y="714" type="line"/>
      <point x="14" y="17" type="line"/>
    </contour>
    <contour>
      <point x="25" y="17" type="line"/>
      <point x="143" y="494" type="line" smooth="yes"/>
      <point x="162" y="572"/>
      <point x="167" y="592"/>
      <point x="178" y="637" type="curve"/>
      <point x="189" y="590"/>
      <point x="198" y="545"/>
      <point x="214" y="477" type="curve" smooth="yes"/>
      <point x="327" y="17" type="line"/>
    </contour>
  </outline>
</glyph>
<glyph name="Xi" format="2">
  <advance width="405"/>
  <unicode hex="039E"/>
  <anchor x="202" y="0" name="bottom"/>
  <anchor x="202" y="714" name="top"/>
  <outline>
    <contour>
      <point x="29" y="0" type="line"/>
      <point x="375" y="0" type="line"/>
      <point x="377" y="170" type="line"/>
      <point x="367" y="170" type="line"/>
      <point x="364" y="139" type="line" smooth="yes"/>
      <point x="359" y="70"/>
      <point x="337" y="64"/>
      <point x="269" y="64" type="curve" smooth="yes"/>
      <point x="138" y="64" type="line" smooth="yes"/>
      <point x="65" y="64"/>
      <point x="45" y="69"/>
      <point x="39" y="139" type="curve" smooth="yes"/>
      <point x="37" y="170" type="line"/>
      <point x="27" y="170" type="line"/>
    </contour>
    <contour>
      <point x="104" y="280" type="line"/>
      <point x="114" y="280" type="line"/>
      <point x="116" y="306" type="line" smooth="yes"/>
      <point x="120" y="342"/>
      <point x="118" y="352"/>
      <point x="175" y="352" type="curve" smooth="yes"/>
      <point x="228" y="352" type="line" smooth="yes"/>
      <point x="281" y="352"/>
      <point x="285" y="341"/>
      <point x="289" y="306" type="curve" smooth="yes"/>
      <point x="291" y="280" type="line"/>
      <point x="301" y="280" type="line"/>
      <point x="301" y="460" type="line"/>
      <point x="291" y="460" type="line"/>
      <point x="289" y="435" type="line" smooth="yes"/>
      <point x="285" y="400"/>
      <point x="280" y="389"/>
      <point x="228" y="389" type="curve" smooth="yes"/>
      <point x="175" y="389" type="line" smooth="yes"/>
      <point x="118" y="389"/>
      <point x="120" y="399"/>
      <point x="116" y="435" type="curve" smooth="yes"/>
      <point x="114" y="460" type="line"/>
      <point x="104" y="460" type="line"/>
    </contour>
    <contour>
      <point x="45" y="562" type="line"/>
      <point x="55" y="562" type="line"/>
      <point x="56" y="586" type="line" smooth="yes"/>
      <point x="58" y="652"/>
      <point x="77" y="658"/>
      <point x="148" y="658" type="curve" smooth="yes"/>
      <point x="258" y="658" type="line" smooth="yes"/>
      <point x="327" y="658"/>
      <point x="346" y="653"/>
      <point x="349" y="586" type="curve" smooth="yes"/>
      <point x="350" y="562" type="line"/>
      <point x="360" y="562" type="line"/>
      <point x="358" y="714" type="line"/>
      <point x="48" y="714" type="line"/>
    </contour>
  </outline>
</glyph>
<glyph name="alpha" format="2">
  <advance width="404"/>
  <unicode hex="03B1"/>
  <anchor x="203" y="0" name="bottom"/>
  <anchor x="203" y="536" name="top"/>
  <outline>
    <contour>
      <point x="158" y="-10" type="curve" smooth="yes"/>
      <point x="216" y="-10"/>
      <point x="244" y="42"/>
      <point x="266" y="128" type="curve"/>
      <point x="268" y="128" type="line"/>
      <point x="270" y="45"/>
      <point x="311" y="0"/>
      <point x="371" y="0" type="curve" smooth="yes"/>
      <point x="394" y="0" type="line"/>
      <point x="394" y="10" type="line"/>
      <point x="396" y="10" type="line" smooth="yes"/>
      <point x="355" y="10"/>
      <point x="338" y="41"/>
      <point x="338" y="106" type="curve" smooth="yes"/>
      <point x="338" y="342" type="line"/>
      <point x="338" y="393"/>
      <point x="346" y="498"/>
      <point x="354" y="536" type="curve"/>
      <point x="306" y="536" type="line"/>
      <point x="298" y="515"/>
      <point x="285" y="475"/>
      <point x="277" y="405" type="curve"/>
      <point x="275" y="405" type="line"/>
      <point x="260" y="509"/>
      <point x="226" y="548"/>
      <point x="181" y="548" type="curve" smooth="yes"/>
      <point x="96" y="548"/>
      <point x="34" y="461"/>
      <point x="34" y="269" type="curve" smooth="yes"/>
      <point x="34" y="60"/>
      <point x="72" y="-10"/>
    </contour>
    <contour>
      <point x="174" y="8" type="curve" smooth="yes"/>
      <point x="127" y="8"/>
      <point x="108" y="60"/>
      <point x="108" y="270" type="curve" smooth="yes"/>
      <point x="108" y="457"/>
      <point x="132" y="538"/>
      <point x="189" y="538" type="curve" smooth="yes"/>
      <point x="218" y="538"/>
      <point x="260" y="497"/>
      <point x="267" y="363" type="curve"/>
      <point x="267" y="274" type="line" smooth="yes"/>
      <point x="267" y="136"/>
      <point x="239" y="8"/>
    </contour>
  </outline>
</glyph>
<glyph name="sigma1" format="2">
  <advance width="290"/>
  <unicode hex="03C2"/>
  <anchor x="159" y="-203" name="bottom"/>
  <anchor x="159" y="536" name="top"/>
  <outline>
    <contour>
      <point x="185" y="-203" type="line"/>
      <point x="256" y="-170"/>
      <point x="295" y="-108"/>
      <point x="295" y="-48" type="curve" smooth="yes"/>
      <point x="295" y="43"/>
      <point x="221" y="59"/>
      <point x="190" y="69" type="curve" smooth="yes"/>
      <point x="114" y="94"/>
      <point x="108" y="160"/>
      <point x="108" y="282" type="curve" smooth="yes"/>
      <point x="108" y="474"/>
      <point x="128" y="536"/>
      <point x="185" y="536" type="curve" smooth="yes"/>
      <point x="229" y="536"/>
      <point x="237" y="497"/>
      <point x="237" y="387" type="curve"/>
      <point x="277" y="387"/>
      <point x="303" y="403"/>
      <point x="303" y="446" type="curve" smooth="yes"/>
      <point x="303" y="496"/>
      <point x="263" y="546"/>
      <point x="186" y="546" type="curve" smooth="yes"/>
      <point x="86" y="546"/>
      <point x="34" y="478"/>
      <point x="34" y="249" type="curve" smooth="yes"/>
      <point x="34" y="87"/>
      <point x="70" y="39"/>
      <point x="175" y="2" type="curve" smooth="yes"/>
      <point x="199" y="-8"/>
      <point x="244" y="-10"/>
      <point x="244" y="-78" type="curve" smooth="yes"/>
      <point x="244" y="-130"/>
      <point x="210" y="-171"/>
      <point x="185" y="-191" type="curve"/>
    </contour>
  </outline>
</glyph>
<glyph name="tau" format="2">
  <advance width="329"/>
  <unicode hex="03C4"/>
  <anchor x="164" y="0" name="bottom"/>
  <anchor x="164" y="536" name="top"/>
  <outline>
    <contour>
      <point x="208" y="-10" type="curve" smooth="yes"/>
      <point x="229" y="-10"/>
      <point x="249" y="-6"/>
      <point x="266" y="4" type="curve"/>
      <point x="266" y="16" type="line"/>
      <point x="249" y="5"/>
      <point x="233" y="0"/>
      <point x="216" y="0" type="curve" smooth="yes"/>
      <point x="190" y="0"/>
      <point x="159" y="26"/>
      <point x="159" y="107" type="curve" smooth="yes"/>
      <point x="159" y="203"/>
      <point x="171" y="320"/>
      <point x="193" y="468" type="curve"/>
      <point x="313" y="468" type="line"/>
      <point x="313" y="536" type="line"/>
      <point x="111" y="536" type="line" smooth="yes"/>
      <point x="41" y="536"/>
      <point x="18" y="454"/>
      <point x="18" y="381" type="curve"/>
      <point x="28" y="381" type="line"/>
      <point x="28" y="438"/>
      <point x="40" y="468"/>
      <point x="119" y="468" type="curve" smooth="yes"/>
      <point x="174" y="468" type="line"/>
      <point x="142" y="317"/>
      <point x="114" y="219"/>
      <point x="114" y="127" type="curve" smooth="yes"/>
      <point x="114" y="19"/>
      <point x="155" y="-10"/>
    </contour>
  </outline>
</glyph>
<glyph name="upsilon" format="2">
  <advance width="395"/>
  <unicode hex="03C5"/>
  <anchor x="197" y="0" name="bottom"/>
  <anchor x="197" y="536" name="top"/>
  <outline>
    <contour>
      <point x="205" y="-10" type="curve" smooth="yes"/>
      <point x="307" y="-10"/>
      <point x="356" y="85"/>
      <point x="356" y="324" type="curve" smooth="yes"/>
      <point x="356" y="400"/>
      <point x="344" y="544"/>
      <point x="279" y="544" type="curve" smooth="yes"/>
      <point x="267" y="544"/>
      <point x="250" y="535"/>
      <point x="251" y="512" type="curve"/>
      <point x="301" y="491"/>
      <point x="330" y="411"/>
      <point x="330" y="288" type="curve" smooth="yes"/>
      <point x="330" y="74"/>
      <point x="295" y="7"/>
      <point x="227" y="7" type="curve" smooth="yes"/>
      <point x="185" y="7"/>
      <point x="140" y="47"/>
      <point x="140" y="162" type="curve" smooth="yes"/>
      <point x="140" y="536" type="line"/>
      <point x="0" y="536" type="line"/>
      <point x="0" y="526" type="line"/>
      <point x="-1" y="526" type="line" smooth="yes"/>
      <point x="53" y="526"/>
      <point x="67" y="524"/>
      <point x="67" y="456" type="curve" smooth="yes"/>
      <point x="67" y="182" type="line" smooth="yes"/>
      <point x="67" y="47"/>
      <point x="134" y="-10"/>
    </contour>
  </outline>
</glyph>
<glyph name="uni03D2" format="2">
  <advance width="436"/>
  <unicode hex="03D2"/>
  <anchor x="217" y="714" name="top"/>
  <outline>
    <contour>
      <point x="115" y="0" type="line"/>
      <point x="319" y="0" type="line"/>
      <point x="319" y="10" type="line"/>
      <point x="326" y="10" type="line" smooth="yes"/>
      <point x="266" y="10"/>
      <point x="255" y="12"/>
      <point x="255" y="75" type="curve" smooth="yes"/>
      <point x="255" y="228" type="line" smooth="yes"/>
      <point x="255" y="314"/>
      <point x="289" y="463"/>
      <point x="307" y="522" type="curve" smooth="yes"/>
      <point x="344" y="651"/>
      <point x="360" y="663"/>
      <point x="378" y="663" type="curve" smooth="yes"/>
      <point x="398" y="663"/>
      <point x="402" y="642"/>
      <point x="402" y="597" type="curve"/>
      <point x="418" y="598"/>
      <point x="439" y="620"/>
      <point x="439" y="652" type="curve" smooth="yes"/>
      <point x="439" y="695"/>
      <point x="419" y="721"/>
      <point x="386" y="721" type="curve" smooth="yes"/>
      <point x="353" y="721"/>
      <point x="333" y="687"/>
      <point x="312" y="609" type="curve" smooth="yes"/>
      <point x="300" y="563"/>
      <point x="261" y="400"/>
      <point x="247" y="267" type="curve"/>
      <point x="224" y="396"/>
      <point x="195" y="486"/>
      <point x="161" y="579" type="curve" smooth="yes"/>
      <point x="115" y="703"/>
      <point x="91" y="714"/>
      <point x="5" y="714" type="curve" smooth="yes"/>
      <point x="-3" y="714" type="line"/>
      <point x="-3" y="705" type="line"/>
      <point x="-3" y="705" type="line" smooth="yes"/>
      <point x="19" y="705"/>
      <point x="26" y="703"/>
      <point x="75" y="576" type="curve" smooth="yes"/>
      <point x="110" y="470"/>
      <point x="180" y="329"/>
      <point x="180" y="201" type="curve" smooth="yes"/>
      <point x="180" y="74" type="line" smooth="yes"/>
      <point x="180" y="12"/>
      <point x="166" y="10"/>
      <point x="107" y="10" type="curve" smooth="yes"/>
      <point x="115" y="10" type="line"/>
    </contour>
  </outline>
</glyph>
<glyph name="uni03D9" format="2">
  <advance width="382"/>
  <unicode hex="03D9"/>
  <anchor x="191" y="-240" name="bottom"/>
  <anchor x="191" y="536" name="top"/>
  <outline>
    <contour>
      <point x="155" y="-240" type="line"/>
      <point x="227" y="-240" type="line"/>
      <point x="227" y="-6" type="line"/>
      <point x="307" y="8"/>
      <point x="349" y="93"/>
      <point x="349" y="268" type="curve" smooth="yes"/>
      <point x="349" y="448"/>
      <point x="298" y="545"/>
      <point x="192" y="545" type="curve" smooth="yes"/>
      <point x="83" y="545"/>
      <point x="34" y="452"/>
      <point x="34" y="268" type="curve" smooth="yes"/>
      <point x="34" y="94"/>
      <point x="77" y="8"/>
      <point x="155" y="-6" type="curve"/>
    </contour>
    <contour>
      <point x="191" y="0" type="curve" smooth="yes"/>
      <point x="133" y="0"/>
      <point x="108" y="69"/>
      <point x="108" y="268" type="curve" smooth="yes"/>
      <point x="108" y="466"/>
      <point x="127" y="535"/>
      <point x="189" y="535" type="curve" smooth="yes"/>
      <point x="256" y="535"/>
      <point x="275" y="464"/>
      <point x="275" y="268" type="curve" smooth="yes"/>
      <point x="275" y="67"/>
      <point x="253" y="0"/>
    </contour>
  </outline>
</glyph>
<glyph name="uni03DB" format="2">
  <advance width="321"/>
  <unicode hex="03DB"/>
  <anchor x="161" y="-202" name="bottom"/>
  <anchor x="161" y="536" name="top"/>
  <outline>
    <contour>
      <point x="168" y="-204" type="curve" smooth="yes"/>
      <point x="233" y="-204"/>
      <point x="296" y="-154"/>
      <point x="296" y="-56" type="curve" smooth="yes"/>
      <point x="296" y="35"/>
      <point x="247" y="59"/>
      <point x="210" y="84" type="curve" smooth="yes"/>
      <point x="146" y="120"/>
      <point x="107" y="136"/>
      <point x="107" y="291" type="curve" smooth="yes"/>
      <point x="107" y="463"/>
      <point x="131" y="530"/>
      <point x="183" y="530" type="curve" smooth="yes"/>
      <point x="227" y="530"/>
      <point x="223" y="479"/>
      <point x="268" y="479" type="curve" smooth="yes"/>
      <point x="302" y="479"/>
      <point x="314" y="508"/>
      <point x="316" y="574" type="curve"/>
      <point x="308" y="574" type="line"/>
      <point x="304" y="546"/>
      <point x="298" y="537"/>
      <point x="269" y="537" type="curve" smooth="yes"/>
      <point x="251" y="537"/>
      <point x="216" y="540"/>
      <point x="191" y="540" type="curve" smooth="yes"/>
      <point x="80" y="540"/>
      <point x="34" y="468"/>
      <point x="34" y="263" type="curve" smooth="yes"/>
      <point x="34" y="99"/>
      <point x="85" y="58"/>
      <point x="181" y="22" type="curve" smooth="yes"/>
      <point x="231" y="-3"/>
      <point x="275" y="-2"/>
      <point x="275" y="-92" type="curve" smooth="yes"/>
      <point x="275" y="-156"/>
      <point x="226" y="-176"/>
      <point x="130" y="-176" type="curve"/>
      <point x="130" y="-191"/>
      <point x="139" y="-204"/>
    </contour>
  </outline>
</glyph>
<glyph name="uni03FA" format="2">
  <advance width="611"/>
  <unicode hex="03FA"/>
  <anchor x="313" y="0" name="bottom"/>
  <anchor x="313" y="714" name="top"/>
  <outline>
    <contour>
      <point x="23" y="0" type="line"/>
      <point x="184" y="0" type="line"/>
      <point x="184" y="10" type="line"/>
      <point x="167" y="10" type="line" smooth="yes"/>
      <point x="114" y="10"/>
      <point x="103" y="23"/>
      <point x="103" y="98" type="curve" smooth="yes"/>
      <point x="103" y="686" type="line"/>
      <point x="304" y="287" type="line"/>
      <point x="317" y="287" type="line"/>
      <point x="470" y="685" type="line"/>
      <point x="470" y="84" type="line" smooth="yes"/>
      <point x="470" y="17"/>
      <point x="459" y="10"/>
      <point x="419" y="10" type="curve" smooth="yes"/>
      <point x="411" y="10" type="line"/>
      <point x="411" y="0" type="line"/>
      <point x="606" y="0" type="line"/>
      <point x="606" y="10" type="line"/>
      <point x="589" y="10" type="line" smooth="yes"/>
      <point x="556" y="10"/>
      <point x="544" y="17"/>
      <point x="544" y="88" type="curve" smooth="yes"/>
      <point x="544" y="626" type="line" smooth="yes"/>
      <point x="544" y="695"/>
      <point x="554" y="704"/>
      <point x="590" y="704" type="curve" smooth="yes"/>
      <point x="606" y="704" type="line"/>
      <point x="606" y="714" type="line"/>
      <point x="469" y="714" type="line"/>
      <point x="333" y="362" type="line"/>
      <point x="171" y="714" type="line"/>
      <point x="23" y="714" type="line"/>
      <point x="23" y="704" type="line"/>
      <point x="41" y="704" type="line" smooth="yes"/>
      <point x="78" y="704"/>
      <point x="93" y="697"/>
      <point x="93" y="629" type="curve" smooth="yes"/>
      <point x="93" y="96" type="line" smooth="yes"/>
      <point x="93" y="22"/>
      <point x="87" y="10"/>
      <point x="42" y="10" type="curve" smooth="yes"/>
      <point x="23" y="10" type="line"/>
    </contour>
  </outline>
</glyph>
<glyph name="afii10053" format="2">
  <advance width="412"/>
  <unicode hex="0404"/>
  <anchor x="206" y="0" name="bottom"/>
  <anchor x="206" y="714" name="top"/>
  <outline>
    <contour>
      <point x="250" y="-10" type="curve" smooth="yes"/>
      <point x="335" y="-10"/>
      <point x="387" y="50"/>
      <point x="387" y="98" type="curve" smooth="yes"/>
      <point x="387" y="111"/>
      <point x="384" y="129"/>
      <point x="363" y="136" type="curve"/>
      <point x="357" y="51"/>
      <point x="328" y="0"/>
      <point x="260" y="0" type="curve" smooth="yes"/>
      <point x="156" y="0"/>
      <point x="117" y="126"/>
      <point x="114" y="358" type="curve"/>
      <point x="292" y="358" type="line"/>
      <point x="292" y="368" type="line"/>
      <point x="114" y="368" type="line"/>
      <point x="118" y="570"/>
      <point x="142" y="714"/>
      <point x="253" y="714" type="curve" smooth="yes"/>
      <point x="308" y="714"/>
      <point x="329" y="664"/>
      <point x="329" y="552" type="curve"/>
      <point x="365" y="552"/>
      <point x="389" y="579"/>
      <point x="389" y="616" type="curve" smooth="yes"/>
      <point x="389" y="673"/>
      <point x="338" y="724"/>
      <point x="254" y="724" type="curve" smooth="yes"/>
      <point x="110" y="724"/>
      <point x="37" y="583"/>
      <point x="37" y="357" type="curve" smooth="yes"/>
      <point x="37" y="141"/>
      <point x="109" y="-10"/>
    </contour>
  </outline>
</glyph>
<glyph name="afii10026" format="2">
  <advance width="524"/>
  <unicode hex="0418"/>
  <anchor x="262" y="0" name="bottom"/>
  <anchor x="262" y="714" name="top"/>
  <outline>
    <contour>
      <point x="23" y="0" type="line"/>
      <point x="218" y="0" type="line"/>
      <point x="218" y="10" type="line"/>
      <point x="205" y="10" type="line" smooth="yes"/>
      <point x="165" y="10"/>
      <point x="158" y="21"/>
      <point x="158" y="86" type="curve" smooth="yes"/>
      <point x="158" y="149" type="line"/>
      <point x="364" y="529" type="line"/>
      <point x="364" y="89" type="line" smooth="yes"/>
      <point x="364" y="21"/>
      <point x="358" y="10"/>
      <point x="317" y="10" type="curve" smooth="yes"/>
      <point x="306" y="10" type="line"/>
      <point x="306" y="0" type="line"/>
      <point x="502" y="0" type="line"/>
      <point x="502" y="10" type="line"/>
      <point x="489" y="10" type="line" smooth="yes"/>
      <point x="447" y="10"/>
      <point x="440" y="21"/>
      <point x="440" y="87" type="curve" smooth="yes"/>
      <point x="440" y="621" type="line" smooth="yes"/>
      <point x="440" y="693"/>
      <point x="445" y="704"/>
      <point x="489" y="704" type="curve" smooth="yes"/>
      <point x="502" y="704" type="line"/>
      <point x="502" y="714" type="line"/>
      <point x="306" y="714" type="line"/>
      <point x="306" y="704" type="line"/>
      <point x="315" y="704" type="line" smooth="yes"/>
      <point x="360" y="704"/>
      <point x="364" y="693"/>
      <point x="364" y="623" type="curve" smooth="yes"/>
      <point x="364" y="547" type="line"/>
      <point x="158" y="165" type="line"/>
      <point x="158" y="625" type="line" smooth="yes"/>
      <point x="158" y="693"/>
      <point x="164" y="704"/>
      <point x="206" y="704" type="curve" smooth="yes"/>
      <point x="218" y="704" type="line"/>
      <point x="218" y="714" type="line"/>
      <point x="23" y="714" type="line"/>
      <point x="23" y="704" type="line"/>
      <point x="35" y="704" type="line" smooth="yes"/>
      <point x="76" y="704"/>
      <point x="83" y="693"/>
      <point x="83" y="627" type="curve" smooth="yes"/>
      <point x="83" y="89" type="line" smooth="yes"/>
      <point x="83" y="21"/>
      <point x="76" y="10"/>
      <point x="34" y="10" type="curve" smooth="yes"/>
      <point x="23" y="10" type="line"/>
    </contour>
  </outline>
</glyph>
<glyph name="afii10040" format="2">
  <advance width="507"/>
  <unicode hex="0426"/>
  <anchor x="254" y="0" name="bottom"/>
  <anchor x="254" y="714" name="top"/>
  <outline>
    <contour>
      <point x="476" y="-210" type="curve"/>
      <point x="486" y="-210" type="line"/>
      <point x="486" y="8" type="line"/>
      <point x="490" y="8" type="line" smooth="yes"/>
      <point x="439" y="8"/>
      <point x="421" y="21"/>
      <point x="421" y="112" type="curve" smooth="yes"/>
      <point x="421" y="626" type="line" smooth="yes"/>
      <point x="421" y="689"/>
      <point x="427" y="704"/>
      <point x="470" y="704" type="curve" smooth="yes"/>
      <point x="482" y="704" type="line"/>
      <point x="482" y="714" type="line"/>
      <point x="283" y="714" type="line"/>
      <point x="283" y="704" type="line"/>
      <point x="297" y="704" type="line" smooth="yes"/>
      <point x="340" y="704"/>
      <point x="346" y="689"/>
      <point x="346" y="626" type="curve" smooth="yes"/>
      <point x="346" y="13" type="line"/>
      <point x="156" y="13" type="line"/>
      <point x="156" y="626" type="line" smooth="yes"/>
      <point x="156" y="689"/>
      <point x="163" y="704"/>
      <point x="206" y="704" type="curve" smooth="yes"/>
      <point x="220" y="704" type="line"/>
      <point x="220" y="714" type="line"/>
      <point x="20" y="714" type="line"/>
      <point x="20" y="704" type="line"/>
      <point x="31" y="704" type="line" smooth="yes"/>
      <point x="77" y="704"/>
      <point x="82" y="690"/>
      <point x="82" y="628" type="curve" smooth="yes"/>
      <point x="82" y="89" type="line" smooth="yes"/>
      <point x="82" y="25"/>
      <point x="77" y="10"/>
      <point x="31" y="10" type="curve" smooth="yes"/>
      <point x="20" y="10" type="line"/>
      <point x="20" y="0" type="line"/>
      <point x="313" y="0" type="line" smooth="yes"/>
      <point x="456" y="0"/>
      <point x="476" y="-10"/>
    </contour>
  </outline>
</glyph>
<glyph name="afii10044" format="2">
  <advance width="466"/>
  <unicode hex="042A"/>
  <anchor x="234" y="0" name="bottom"/>
  <anchor x="234" y="714" name="top"/>
  <outline>
    <contour>
      <point x="88" y="0" type="line"/>
      <point x="277" y="0" type="line" smooth="yes"/>
      <point x="403" y="0"/>
      <point x="445" y="80"/>
      <point x="445" y="200" type="curve" smooth="yes"/>
      <point x="445" y="328"/>
      <point x="396" y="392"/>
      <point x="262" y="392" type="curve" smooth="yes"/>
      <point x="230" y="392" type="line"/>
      <point x="230" y="628" type="line" smooth="yes"/>
      <point x="230" y="693"/>
      <point x="234" y="704"/>
      <point x="278" y="704" type="curve" smooth="yes"/>
      <point x="291" y="704" type="line"/>
      <point x="291" y="714" type="line"/>
      <point x="15" y="714" type="line"/>
      <point x="11" y="549" type="line"/>
      <point x="21" y="549" type="line"/>
      <point x="22" y="604" type="line" smooth="yes"/>
      <point x="26" y="683"/>
      <point x="42" y="706"/>
      <point x="117" y="706" type="curve" smooth="yes"/>
      <point x="155" y="706" type="line"/>
      <point x="155" y="90" type="line" smooth="yes"/>
      <point x="155" y="22"/>
      <point x="149" y="10"/>
      <point x="107" y="10" type="curve" smooth="yes"/>
      <point x="88" y="10" type="line"/>
    </contour>
    <contour>
      <point x="230" y="10" type="line"/>
      <point x="230" y="382" type="line"/>
      <point x="249" y="382" type="line" smooth="yes"/>
      <point x="338" y="382"/>
      <point x="367" y="334"/>
      <point x="367" y="195" type="curve" smooth="yes"/>
      <point x="367" y="73"/>
      <point x="350" y="10"/>
      <point x="270" y="10" type="curve" smooth="yes"/>
    </contour>
  </outline>
</glyph>
<glyph name="afii10045" format="2">
  <advance width="607"/>
  <unicode hex="042B"/>
  <anchor x="304" y="0" name="bottom"/>
  <anchor x="304" y="714" name="top"/>
  <outline>
    <contour>
      <point x="23" y="0" type="line"/>
      <point x="200" y="0" type="line" smooth="yes"/>
      <point x="329" y="0"/>
      <point x="369" y="82"/>
      <point x="369" y="199" type="curve" smooth="yes"/>
      <point x="369" y="328"/>
      <point x="320" y="392"/>
      <point x="187" y="392" type="curve" smooth="yes"/>
      <point x="158" y="392" type="line"/>
      <point x="158" y="628" type="line" smooth="yes"/>
      <point x="158" y="692"/>
      <point x="166" y="704"/>
      <point x="204" y="704" type="curve" smooth="yes"/>
      <point x="245" y="704" type="line"/>
      <point x="245" y="714" type="line"/>
      <point x="23" y="714" type="line"/>
      <point x="23" y="704" type="line"/>
      <point x="36" y="704" type="line" smooth="yes"/>
      <point x="75" y="704"/>
      <point x="83" y="694"/>
      <point x="83" y="626" type="curve" smooth="yes"/>
      <point x="83" y="93" type="line" smooth="yes"/>
      <point x="83" y="22"/>
      <point x="78" y="10"/>
      <point x="33" y="10" type="curve" smooth="yes"/>
      <point x="23" y="10" type="line"/>
    </contour>
    <contour>
      <point x="158" y="10" type="line"/>
      <point x="158" y="382" type="line"/>
      <point x="174" y="382" type="line" smooth="yes"/>
      <point x="260" y="382"/>
      <point x="290" y="332"/>
      <point x="290" y="198" type="curve" smooth="yes"/>
      <point x="290" y="76"/>
      <point x="272" y="10"/>
      <point x="193" y="10" type="curve" smooth="yes"/>
    </contour>
    <contour>
      <point x="389" y="0" type="line"/>
      <point x="590" y="0" type="line"/>
      <point x="590" y="10" type="line"/>
      <point x="573" y="10" type="line" smooth="yes"/>
      <point x="531" y="10"/>
      <point x="527" y="20"/>
      <point x="527" y="86" type="curve" smooth="yes"/>
      <point x="527" y="627" type="line" smooth="yes"/>
      <point x="527" y="693"/>
      <point x="533" y="704"/>
      <point x="570" y="704" type="curve" smooth="yes"/>
      <point x="590" y="704" type="line"/>
      <point x="590" y="714" type="line"/>
      <point x="389" y="714" type="line"/>
      <point x="389" y="704" type="line"/>
      <point x="407" y="704" type="line" smooth="yes"/>
      <point x="449" y="704"/>
      <point x="452" y="693"/>
      <point x="452" y="628" type="curve" smooth="yes"/>
      <point x="452" y="86" type="line" smooth="yes"/>
      <point x="452" y="21"/>
      <point x="450" y="10"/>
      <point x="406" y="10" type="curve" smooth="yes"/>
      <point x="389" y="10" type="line"/>
    </contour>
  </outline>
</glyph>
<glyph name="afii10049" format="2">
  <advance width="435"/>
  <unicode hex="042F"/>
  <anchor x="219" y="0" name="bottom"/>
  <anchor x="219" y="714" name="top"/>
  <outline>
    <contour>
      <point x="-6" y="0" type="line"/>
      <point x="7" y="0" type="line" smooth="yes"/>
      <point x="84" y="0"/>
      <point x="112" y="24"/>
      <point x="147" y="102" type="curve" smooth="yes"/>
      <point x="224" y="325" type="line"/>
      <point x="278" y="325" type="line"/>
      <point x="278" y="87" type="line" smooth="yes"/>
      <point x="278" y="24"/>
      <point x="274" y="10"/>
      <point x="229" y="10" type="curve" smooth="yes"/>
      <point x="215" y="10" type="line"/>
      <point x="215" y="0" type="line"/>
      <point x="414" y="0" type="line"/>
      <point x="414" y="10" type="line"/>
      <point x="403" y="10" type="line" smooth="yes"/>
      <point x="356" y="10"/>
      <point x="354" y="24"/>
      <point x="354" y="87" type="curve" smooth="yes"/>
      <point x="354" y="627" type="line" smooth="yes"/>
      <point x="354" y="690"/>
      <point x="357" y="704"/>
      <point x="407" y="704" type="curve" smooth="yes"/>
      <point x="414" y="704" type="line"/>
      <point x="414" y="714" type="line"/>
      <point x="234" y="714" type="line" smooth="yes"/>
      <point x="93" y="714"/>
      <point x="58" y="626"/>
      <point x="58" y="515" type="curve" smooth="yes"/>
      <point x="58" y="377"/>
      <point x="124" y="346"/>
      <point x="155" y="331" type="curve"/>
      <point x="81" y="134" type="line" smooth="yes"/>
      <point x="43" y="36"/>
      <point x="32" y="10"/>
      <point x="1" y="10" type="curve" smooth="yes"/>
      <point x="-6" y="10" type="line"/>
    </contour>
    <contour>
      <point x="230" y="335" type="line" smooth="yes"/>
      <point x="164" y="335"/>
      <point x="138" y="400"/>
      <point x="138" y="521" type="curve" smooth="yes"/>
      <point x="138" y="633"/>
      <point x="167" y="704"/>
      <point x="249" y="704" type="curve" smooth="yes"/>
      <point x="278" y="704" type="line"/>
      <point x="278" y="335" type="line"/>
    </contour>
  </outline>
</glyph>
<glyph name="afii10072" format="2">
  <advance width="577"/>
  <unicode hex="0436"/>
  <anchor x="288" y="0" name="bottom"/>
  <anchor x="288" y="536" name="top"/>
  <outline>
    <contour>
      <point x="3" y="0" type="line"/>
      <point x="18" y="0" type="line" smooth="yes"/>
      <point x="85" y="0"/>
      <point x="103" y="11"/>
      <point x="148" y="113" type="curve" smooth="yes"/>
      <point x="183" y="195" type="line" smooth="yes"/>
      <point x="212" y="265"/>
      <point x="212" y="277"/>
      <point x="254" y="277" type="curve"/>
      <point x="254" y="81" type="line" smooth="yes"/>
      <point x="254" y="21"/>
      <point x="247" y="10"/>
      <point x="210" y="10" type="curve" smooth="yes"/>
      <point x="213" y="10" type="line"/>
      <point x="213" y="0" type="line"/>
      <point x="369" y="0" type="line"/>
      <point x="369" y="10" type="line"/>
      <point x="376" y="10" type="line" smooth="yes"/>
      <point x="332" y="10"/>
      <point x="323" y="20"/>
      <point x="323" y="83" type="curve" smooth="yes"/>
      <point x="323" y="277" type="line"/>
      <point x="364" y="277"/>
      <point x="365" y="265"/>
      <point x="394" y="195" type="curve" smooth="yes"/>
      <point x="429" y="113" type="line" smooth="yes"/>
      <point x="474" y="11"/>
      <point x="492" y="0"/>
      <point x="559" y="0" type="curve" smooth="yes"/>
      <point x="574" y="0" type="line"/>
      <point x="574" y="10" type="line"/>
      <point x="571" y="10" type="line" smooth="yes"/>
      <point x="552" y="10"/>
      <point x="543" y="31"/>
      <point x="504" y="117" type="curve" smooth="yes"/>
      <point x="462" y="211" type="line"/>
      <point x="441" y="254"/>
      <point x="427" y="285"/>
      <point x="356" y="288" type="curve"/>
      <point x="383" y="312"/>
      <point x="398" y="344"/>
      <point x="424" y="393" type="curve" smooth="yes"/>
      <point x="458" y="457"/>
      <point x="470" y="485"/>
      <point x="501" y="485" type="curve" smooth="yes"/>
      <point x="517" y="485"/>
      <point x="533" y="473"/>
      <point x="536" y="444" type="curve"/>
      <point x="550" y="446"/>
      <point x="568" y="455"/>
      <point x="568" y="491" type="curve" smooth="yes"/>
      <point x="568" y="519"/>
      <point x="558" y="542"/>
      <point x="522" y="542" type="curve" smooth="yes"/>
      <point x="479" y="542"/>
      <point x="465" y="501"/>
      <point x="428" y="431" type="curve" smooth="yes"/>
      <point x="399" y="376"/>
      <point x="378" y="332"/>
      <point x="361" y="310" type="curve" smooth="yes"/>
      <point x="359" y="305"/>
      <point x="347" y="286"/>
      <point x="323" y="287" type="curve"/>
      <point x="323" y="454" type="line" smooth="yes"/>
      <point x="323" y="516"/>
      <point x="331" y="526"/>
      <point x="376" y="526" type="curve" smooth="yes"/>
      <point x="370" y="526" type="line"/>
      <point x="370" y="536" type="line"/>
      <point x="213" y="536" type="line"/>
      <point x="213" y="526" type="line"/>
      <point x="205" y="526" type="line" smooth="yes"/>
      <point x="249" y="526"/>
      <point x="254" y="515"/>
      <point x="254" y="453" type="curve" smooth="yes"/>
      <point x="254" y="287" type="line"/>
      <point x="230" y="286"/>
      <point x="218" y="304"/>
      <point x="215" y="310" type="curve" smooth="yes"/>
      <point x="198" y="332"/>
      <point x="177" y="376"/>
      <point x="149" y="431" type="curve" smooth="yes"/>
      <point x="111" y="501"/>
      <point x="98" y="542"/>
      <point x="55" y="542" type="curve" smooth="yes"/>
      <point x="19" y="542"/>
      <point x="8" y="519"/>
      <point x="8" y="491" type="curve" smooth="yes"/>
      <point x="8" y="455"/>
      <point x="27" y="446"/>
      <point x="41" y="444" type="curve"/>
      <point x="44" y="473"/>
      <point x="60" y="485"/>
      <point x="75" y="485" type="curve" smooth="yes"/>
      <point x="106" y="485"/>
      <point x="120" y="458"/>
      <point x="153" y="393" type="curve" smooth="yes"/>
      <point x="178" y="344"/>
      <point x="194" y="312"/>
      <point x="221" y="288" type="curve"/>
      <point x="150" y="285"/>
      <point x="135" y="254"/>
      <point x="115" y="211" type="curve"/>
      <point x="72" y="117" type="line" smooth="yes"/>
      <point x="33" y="31"/>
      <point x="24" y="10"/>
      <point x="6" y="10" type="curve" smooth="yes"/>
      <point x="3" y="10" type="line"/>
    </contour>
  </outline>
</glyph>
<glyph name="afii10093" format="2">
  <advance width="554"/>
  <unicode hex="044B"/>
  <anchor x="278" y="0" name="bottom"/>
  <anchor x="278" y="536" name="top"/>
  <outline>
    <contour>
      <point x="12" y="0" type="line"/>
      <point x="196" y="0" type="line" smooth="yes"/>
      <point x="286" y="0"/>
      <point x="343" y="48"/>
      <point x="343" y="153" type="curve" smooth="yes"/>
      <point x="343" y="271"/>
      <point x="275" y="293"/>
      <point x="187" y="293" type="curve" smooth="yes"/>
      <point x="147" y="293" type="line"/>
      <point x="147" y="453" type="line" smooth="yes"/>
      <point x="147" y="515"/>
      <point x="154" y="526"/>
      <point x="206" y="526" type="curve" smooth="yes"/>
      <point x="207" y="526" type="line"/>
      <point x="207" y="536" type="line"/>
      <point x="12" y="536" type="line"/>
      <point x="12" y="526" type="line"/>
      <point x="14" y="526" type="line" smooth="yes"/>
      <point x="65" y="526"/>
      <point x="73" y="516"/>
      <point x="73" y="451" type="curve" smooth="yes"/>
      <point x="73" y="82" type="line" smooth="yes"/>
      <point x="73" y="21"/>
      <point x="64" y="10"/>
      <point x="17" y="10" type="curve" smooth="yes"/>
      <point x="12" y="10" type="line"/>
    </contour>
    <contour>
      <point x="147" y="10" type="line"/>
      <point x="147" y="283" type="line"/>
      <point x="180" y="283" type="line" smooth="yes"/>
      <point x="237" y="283"/>
      <point x="268" y="253"/>
      <point x="268" y="155" type="curve" smooth="yes"/>
      <point x="268" y="50"/>
      <point x="238" y="10"/>
      <point x="193" y="10" type="curve" smooth="yes"/>
    </contour>
    <contour>
      <point x="353" y="0" type="line"/>
      <point x="536" y="0" type="line"/>
      <point x="536" y="10" type="line"/>
      <point x="535" y="10" type="line" smooth="yes"/>
      <point x="493" y="10"/>
      <point x="481" y="21"/>
      <point x="481" y="83" type="curve" smooth="yes"/>
      <point x="481" y="453" type="line" smooth="yes"/>
      <point x="481" y="515"/>
      <point x="492" y="526"/>
      <point x="537" y="526" type="curve" smooth="yes"/>
      <point x="536" y="526" type="line"/>
      <point x="536" y="536" type="line"/>
      <point x="353" y="536" type="line"/>
      <point x="353" y="526" type="line"/>
      <point x="357" y="526" type="line" smooth="yes"/>
      <point x="397" y="526"/>
      <point x="408" y="516"/>
      <point x="408" y="454" type="curve" smooth="yes"/>
      <point x="408" y="83" type="line" smooth="yes"/>
      <point x="408" y="19"/>
      <point x="397" y="10"/>
      <point x="354" y="10" type="curve" smooth="yes"/>
      <point x="353" y="10" type="line"/>
    </contour>
  </outline>
</glyph>
<glyph name="uni0482" format="2">
  <advance width="394"/>
  <unicode hex="0482"/>
  <outline>
    <contour>
      <point x="182" y="-20" type="line"/>
      <point x="192" y="151" type="line"/>
      <point x="325" y="149" type="line"/>
      <point x="329" y="170" type="line"/>
      <point x="196" y="171" type="line"/>
      <point x="220" y="427" type="line"/>
      <point x="352" y="425" type="line"/>
      <point x="355" y="444" type="line"/>
      <point x="221" y="447" type="line"/>
      <point x="234" y="636" type="line"/>
      <point x="213" y="638" type="line"/>
      <point x="200" y="448" type="line"/>
      <point x="68" y="451" type="line"/>
      <point x="65" y="431" type="line"/>
      <point x="198" y="429" type="line"/>
      <point x="174" y="174" type="line"/>
      <point x="42" y="175" type="line"/>
      <point x="39" y="155" type="line"/>
      <point x="172" y="153" type="line"/>
      <point x="162" y="-19" type="line"/>
    </contour>
  </outline>
</glyph>
<glyph name="palatalizationcomb.cy" format="2">
  <unicode hex="0484"/>
  <anchor x="4" y="536" name="_top"/>
  <anchor x="4" y="723" name="top"/>
  <outline>
    <contour>
      <point x="-125" y="613" type="line"/>
      <point x="-110" y="613" type="line" smooth="yes"/>
      <point x="-43" y="613"/>
      <point x="9" y="667"/>
      <point x="69" y="667" type="curve" smooth="yes"/>
      <point x="102" y="667"/>
      <point x="120" y="650"/>
      <point x="123" y="624" type="curve" smooth="yes"/>
      <point x="124" y="612" type="line"/>
      <point x="134" y="612" type="line"/>
      <point x="131" y="684"/>
      <point x="102" y="717"/>
      <point x="57" y="717" type="curve" smooth="yes"/>
      <point x="-5" y="717"/>
      <point x="-36" y="662"/>
      <point x="-124" y="662" type="curve"/>
      <point x="-125" y="662" type="line"/>
    </contour>
  </outline>
</glyph>
<glyph name="dasiapneumatacomb.cy" format="2">
  <unicode hex="0485"/>
  <anchor x="-1" y="536" name="_top"/>
  <anchor x="-1" y="777" name="top"/>
  <outline>
    <contour>
      <point x="33" y="612" type="curve"/>
      <point x="33" y="622" type="line"/>
      <point x="10" y="638"/>
      <point x="-9" y="650"/>
      <point x="-9" y="679" type="curve" smooth="yes"/>
      <point x="-9" y="717"/>
      <point x="30" y="706"/>
      <point x="30" y="732" type="curve" smooth="yes"/>
      <point x="30" y="743"/>
      <point x="24" y="752"/>
      <point x="7" y="752" type="curve" smooth="yes"/>
      <point x="-20" y="752"/>
      <point x="-35" y="729"/>
      <point x="-35" y="704" type="curve" smooth="yes"/>
      <point x="-35" y="661"/>
      <point x="-9" y="632"/>
    </contour>
  </outline>
</glyph>
<glyph name="pokrytiecomb.cy" format="2">
  <unicode hex="0487"/>
  <anchor x="-7" y="536" name="_top"/>
  <outline>
    <contour>
      <point x="-146" y="766" type="curve"/>
      <point x="-137" y="766" type="line"/>
      <point x="-135" y="782" type="line" smooth="yes"/>
      <point x="-134" y="812"/>
      <point x="-117" y="826"/>
      <point x="-86" y="826" type="curve" smooth="yes"/>
      <point x="-18" y="826"/>
      <point x="52" y="767"/>
      <point x="128" y="767" type="curve" smooth="yes"/>
      <point x="134" y="767" type="line"/>
      <point x="134" y="804" type="line"/>
      <point x="137" y="804" type="line" smooth="yes"/>
      <point x="50" y="804"/>
      <point x="2" y="860"/>
      <point x="-72" y="860" type="curve" smooth="yes"/>
      <point x="-128" y="860"/>
      <point x="-145" y="830"/>
    </contour>
  </outline>
</glyph>
<glyph name="afii10050" format="2">
  <advance width="352"/>
  <unicode hex="0490"/>
  <anchor x="177" y="0" name="bottom"/>
  <anchor x="177" y="836" name="top"/>
  <outline>
    <contour>
      <point x="23" y="0" type="line"/>
      <point x="231" y="0" type="line"/>
      <point x="231" y="10" type="line"/>
      <point x="207" y="10" type="line" smooth="yes"/>
      <point x="172" y="10"/>
      <point x="157" y="17"/>
      <point x="157" y="93" type="curve" smooth="yes"/>
      <point x="157" y="701" type="line"/>
      <point x="336" y="701" type="line"/>
      <point x="340" y="839" type="line"/>
      <point x="330" y="839" type="line"/>
      <point x="330" y="824" type="line" smooth="yes"/>
      <point x="325" y="738"/>
      <point x="306" y="714"/>
      <point x="220" y="714" type="curve" smooth="yes"/>
      <point x="23" y="714" type="line"/>
      <point x="23" y="704" type="line"/>
      <point x="26" y="704" type="line" smooth="yes"/>
      <point x="68" y="704"/>
      <point x="82" y="696"/>
      <point x="82" y="622" type="curve" smooth="yes"/>
      <point x="82" y="90" type="line" smooth="yes"/>
      <point x="82" y="17"/>
      <point x="67" y="10"/>
      <point x="30" y="10" type="curve" smooth="yes"/>
      <point x="23" y="10" type="line"/>
    </contour>
  </outline>
</glyph>
<glyph name="uni0498" format="2">
  <advance width="393"/>
  <unicode hex="0498"/>
  <anchor x="197" y="-220" name="bottom"/>
  <anchor x="197" y="714" name="top"/>
  <outline>
    <contour>
      <point x="177" y="-220" type="curve" smooth="yes"/>
      <point x="221" y="-220"/>
      <point x="249" y="-193"/>
      <point x="249" y="-148" type="curve" smooth="yes"/>
      <point x="249" y="-109"/>
      <point x="238" y="-74"/>
      <point x="181" y="-11" type="curve"/>
      <point x="273" y="-9"/>
      <point x="356" y="41"/>
      <point x="356" y="193" type="curve" smooth="yes"/>
      <point x="356" y="318"/>
      <point x="295" y="362"/>
      <point x="209" y="371" type="curve"/>
      <point x="303" y="390"/>
      <point x="351" y="458"/>
      <point x="351" y="561" type="curve" smooth="yes"/>
      <point x="351" y="686"/>
      <point x="275" y="724"/>
      <point x="184" y="724" type="curve" smooth="yes"/>
      <point x="62" y="724"/>
      <point x="38" y="636"/>
      <point x="38" y="587" type="curve" smooth="yes"/>
      <point x="38" y="554"/>
      <point x="53" y="533"/>
      <point x="97" y="533" type="curve"/>
      <point x="97" y="641"/>
      <point x="102" y="714"/>
      <point x="186" y="714" type="curve" smooth="yes"/>
      <point x="259" y="714"/>
      <point x="280" y="671"/>
      <point x="280" y="552" type="curve" smooth="yes"/>
      <point x="280" y="443"/>
      <point x="241" y="376"/>
      <point x="183" y="376" type="curve" smooth="yes"/>
      <point x="111" y="376" type="line"/>
      <point x="111" y="366" type="line"/>
      <point x="172" y="366" type="line" smooth="yes"/>
      <point x="245" y="366"/>
      <point x="286" y="315"/>
      <point x="286" y="193" type="curve" smooth="yes"/>
      <point x="286" y="37"/>
      <point x="246" y="-1"/>
      <point x="172" y="-1" type="curve" smooth="yes"/>
      <point x="90" y="-1"/>
      <point x="77" y="63"/>
      <point x="77" y="172" type="curve"/>
      <point x="44" y="172"/>
      <point x="25" y="145"/>
      <point x="25" y="108" type="curve" smooth="yes"/>
      <point x="25" y="41"/>
      <point x="76" y="-12"/>
      <point x="173" y="-11" type="curve"/>
      <point x="201" y="-54"/>
      <point x="213" y="-101"/>
      <point x="213" y="-131" type="curve" smooth="yes"/>
      <point x="213" y="-162"/>
      <point x="198" y="-186"/>
      <point x="171" y="-186" type="curve" smooth="yes"/>
      <point x="158" y="-186"/>
      <point x="147" y="-179"/>
      <point x="147" y="-162" type="curve"/>
      <point x="140" y="-165"/>
      <point x="136" y="-172"/>
      <point x="136" y="-183" type="curve" smooth="yes"/>
      <point x="136" y="-205"/>
      <point x="145" y="-220"/>
    </contour>
  </outline>
</glyph>
<glyph name="uni049A" format="2">
  <advance width="485"/>
  <unicode hex="049A"/>
  <anchor x="242" y="0" name="bottom"/>
  <anchor x="242" y="714" name="top"/>
  <outline>
    <contour>
      <point x="456" y="-210" type="curve"/>
      <point x="466" y="-210" type="line"/>
      <point x="466" y="10" type="line"/>
      <point x="458" y="10" type="line" smooth="yes"/>
      <point x="411" y="10"/>
      <point x="387" y="77"/>
      <point x="371" y="125" type="curve" smooth="yes"/>
      <point x="326" y="256" type="line" smooth="yes"/>
      <point x="292" y="345"/>
      <point x="261" y="359"/>
      <point x="181" y="360" type="curve"/>
      <point x="234" y="377"/>
      <point x="253" y="458"/>
      <point x="279" y="529" type="curve" smooth="yes"/>
      <point x="323" y="642"/>
      <point x="347" y="670"/>
      <point x="374" y="670" type="curve" smooth="yes"/>
      <point x="399" y="670"/>
      <point x="408" y="653"/>
      <point x="408" y="618" type="curve"/>
      <point x="423" y="618"/>
      <point x="436" y="633"/>
      <point x="436" y="661" type="curve" smooth="yes"/>
      <point x="436" y="697"/>
      <point x="416" y="720"/>
      <point x="386" y="720" type="curve" smooth="yes"/>
      <point x="332" y="720"/>
      <point x="303" y="661"/>
      <point x="271" y="551" type="curve" smooth="yes"/>
      <point x="249" y="480"/>
      <point x="234" y="430"/>
      <point x="220" y="411" type="curve" smooth="yes"/>
      <point x="204" y="385"/>
      <point x="189" y="365"/>
      <point x="152" y="365" type="curve"/>
      <point x="152" y="625" type="line" smooth="yes"/>
      <point x="152" y="694"/>
      <point x="166" y="704"/>
      <point x="203" y="704" type="curve" smooth="yes"/>
      <point x="222" y="704" type="line"/>
      <point x="222" y="714" type="line"/>
      <point x="22" y="714" type="line"/>
      <point x="22" y="704" type="line"/>
      <point x="31" y="704" type="line" smooth="yes"/>
      <point x="70" y="704"/>
      <point x="83" y="694"/>
      <point x="83" y="624" type="curve" smooth="yes"/>
      <point x="83" y="90" type="line" smooth="yes"/>
      <point x="83" y="19"/>
      <point x="70" y="10"/>
      <point x="31" y="10" type="curve" smooth="yes"/>
      <point x="22" y="10" type="line"/>
      <point x="22" y="0" type="line"/>
      <point x="222" y="0" type="line"/>
      <point x="222" y="10" type="line"/>
      <point x="205" y="10" type="line" smooth="yes"/>
      <point x="163" y="10"/>
      <point x="152" y="20"/>
      <point x="152" y="94" type="curve" smooth="yes"/>
      <point x="152" y="355" type="line"/>
      <point x="210" y="355"/>
      <point x="208" y="358"/>
      <point x="243" y="267" type="curve" smooth="yes"/>
      <point x="307" y="98" type="line" smooth="yes"/>
      <point x="329" y="39"/>
      <point x="347" y="19"/>
      <point x="414" y="0" type="curve" smooth="yes"/>
      <point x="456" y="-12"/>
      <point x="456" y="-34"/>
    </contour>
  </outline>
</glyph>
<glyph name="uni04A3" format="2">
  <advance width="446"/>
  <unicode hex="04A3"/>
  <anchor x="223" y="0" name="bottom"/>
  <anchor x="223" y="536" name="top"/>
  <outline>
    <contour>
      <point x="423" y="-213" type="line"/>
      <point x="433" y="-213" type="line"/>
      <point x="433" y="8" type="line"/>
      <point x="449" y="8" type="line" smooth="yes"/>
      <point x="393" y="8"/>
      <point x="374" y="15"/>
      <point x="374" y="107" type="curve" smooth="yes"/>
      <point x="374" y="453" type="line" smooth="yes"/>
      <point x="374" y="517"/>
      <point x="386" y="526"/>
      <point x="429" y="526" type="curve" smooth="yes"/>
      <point x="433" y="526" type="line"/>
      <point x="433" y="536" type="line"/>
      <point x="249" y="536" type="line"/>
      <point x="249" y="526" type="line"/>
      <point x="251" y="526" type="line" smooth="yes"/>
      <point x="292" y="526"/>
      <point x="301" y="517"/>
      <point x="301" y="454" type="curve" smooth="yes"/>
      <point x="301" y="280" type="line"/>
      <point x="147" y="280" type="line"/>
      <point x="147" y="453" type="line" smooth="yes"/>
      <point x="147" y="521"/>
      <point x="154" y="526"/>
      <point x="202" y="526" type="curve" smooth="yes"/>
      <point x="197" y="526" type="line"/>
      <point x="197" y="536" type="line"/>
      <point x="12" y="536" type="line"/>
      <point x="12" y="526" type="line"/>
      <point x="11" y="526" type="line" smooth="yes"/>
      <point x="62" y="526"/>
      <point x="73" y="521"/>
      <point x="73" y="454" type="curve" smooth="yes"/>
      <point x="73" y="83" type="line" smooth="yes"/>
      <point x="73" y="18"/>
      <point x="62" y="10"/>
      <point x="19" y="10" type="curve" smooth="yes"/>
      <point x="12" y="10" type="line"/>
      <point x="12" y="0" type="line"/>
      <point x="197" y="0" type="line"/>
      <point x="197" y="10" type="line"/>
      <point x="201" y="10" type="line" smooth="yes"/>
      <point x="153" y="10"/>
      <point x="147" y="18"/>
      <point x="147" y="83" type="curve" smooth="yes"/>
      <point x="147" y="270" type="line"/>
      <point x="301" y="270" type="line"/>
      <point x="301" y="83" type="line" smooth="yes"/>
      <point x="301" y="19"/>
      <point x="293" y="10"/>
      <point x="251" y="10" type="curve" smooth="yes"/>
      <point x="249" y="10" type="line"/>
      <point x="249" y="0" type="line"/>
      <point x="278" y="0" type="line" smooth="yes"/>
      <point x="400" y="0"/>
      <point x="415" y="-41"/>
      <point x="423" y="-207" type="curve" smooth="yes"/>
    </contour>
  </outline>
</glyph>
<glyph name="uni04A5" format="2">
  <advance width="507"/>
  <unicode hex="04A5"/>
  <anchor x="253" y="0" name="bottom"/>
  <anchor x="253" y="536" name="top"/>
  <outline>
    <contour>
      <point x="12" y="0" type="line"/>
      <point x="197" y="0" type="line"/>
      <point x="197" y="10" type="line"/>
      <point x="200" y="10" type="line" smooth="yes"/>
      <point x="153" y="10"/>
      <point x="147" y="18"/>
      <point x="147" y="83" type="curve" smooth="yes"/>
      <point x="147" y="270" type="line"/>
      <point x="301" y="270" type="line"/>
      <point x="301" y="83" type="line" smooth="yes"/>
      <point x="301" y="19"/>
      <point x="294" y="10"/>
      <point x="251" y="10" type="curve" smooth="yes"/>
      <point x="249" y="10" type="line"/>
      <point x="249" y="0" type="line"/>
      <point x="433" y="0" type="line"/>
      <point x="433" y="10" type="line"/>
      <point x="432" y="10" type="line" smooth="yes"/>
      <point x="384" y="10"/>
      <point x="374" y="23"/>
      <point x="374" y="83" type="curve" smooth="yes"/>
      <point x="374" y="526" type="line"/>
      <point x="403" y="526" type="line" smooth="yes"/>
      <point x="468" y="526"/>
      <point x="483" y="510"/>
      <point x="487" y="415" type="curve" smooth="yes"/>
      <point x="486" y="388" type="line"/>
      <point x="496" y="388" type="line"/>
      <point x="493" y="536" type="line"/>
      <point x="249" y="536" type="line"/>
      <point x="249" y="526" type="line"/>
      <point x="251" y="526" type="line" smooth="yes"/>
      <point x="294" y="526"/>
      <point x="301" y="517"/>
      <point x="301" y="454" type="curve" smooth="yes"/>
      <point x="301" y="280" type="line"/>
      <point x="147" y="280" type="line"/>
      <point x="147" y="453" type="line" smooth="yes"/>
      <point x="147" y="517"/>
      <point x="154" y="526"/>
      <point x="195" y="526" type="curve" smooth="yes"/>
      <point x="197" y="526" type="line"/>
      <point x="197" y="536" type="line"/>
      <point x="12" y="536" type="line"/>
      <point x="12" y="526" type="line"/>
      <point x="17" y="526" type="line" smooth="yes"/>
      <point x="62" y="526"/>
      <point x="73" y="517"/>
      <point x="73" y="454" type="curve" smooth="yes"/>
      <point x="73" y="83" type="line" smooth="yes"/>
      <point x="73" y="18"/>
      <point x="62" y="10"/>
      <point x="19" y="10" type="curve" smooth="yes"/>
      <point x="12" y="10" type="line"/>
    </contour>
  </outline>
</glyph>
